<svg width="80" height="80" viewBox="0 0 80 80" fill="none" xmlns="http://www.w3.org/2000/svg">
<g clip-path="url(#clip0_16_1029)">
<path fill-rule="evenodd" clip-rule="evenodd" d="M20.6016 9.69433C10.0666 15.0147 1.39406 19.4234 1.32938 19.4915C1.26469 19.5596 4.41964 21.2197 8.3404 23.1805L15.4694 26.7459L34.2629 16.7136C44.5993 11.196 53.0576 6.64123 53.0589 6.5921C53.0626 6.46238 40.1472 -0.024943 39.9349 7.21574e-05C39.8366 0.0116863 31.1367 4.37415 20.6016 9.69433ZM45.7439 22.3175C35.4752 27.8137 27.0526 32.3739 27.0269 32.4513C27.001 32.5287 29.9176 34.0601 33.5081 35.8544L40.0362 39.1171L59.417 29.3621C70.0763 23.9969 78.7977 19.5801 78.7977 19.5471C78.7977 19.4606 64.6956 12.3084 64.5421 12.3172C64.4717 12.3211 56.0125 16.8213 45.7439 22.3175ZM0 40.8825V60.4708L19.3294 70.2054C29.9606 75.5595 38.7249 79.9669 38.8054 79.9996C38.8862 80.0324 38.9521 71.2535 38.9521 60.4913V40.9234L32.3998 37.6055C28.796 35.7805 25.821 34.2874 25.7886 34.2874C25.7563 34.2874 25.7299 37.563 25.7299 41.5667V48.8457L22.8243 45.9443L19.9188 43.0427H17.1066H14.2944L14.2917 35.7615L14.289 28.4803L7.1445 24.8871L0 21.294V40.8825ZM60.5724 31.0674L41.1856 40.8498L41.1403 60.4547C41.1152 71.2375 41.161 80.0328 41.2421 79.9999C41.3232 79.967 50.0878 75.5595 60.7191 70.2054L80.0484 60.4708V40.8573C80.0484 30.0699 80.0283 21.2531 80.0038 21.2645C79.9793 21.2758 71.2351 25.6872 60.5724 31.0674Z" fill="#FEFEFE"/>
</g>
<defs>
<clipPath id="clip0_16_1029">
<rect width="80" height="80" fill="white"/>
</clipPath>
</defs>
</svg>
