<svg width="61" height="60" viewBox="0 0 61 60" fill="none" xmlns="http://www.w3.org/2000/svg">
<g clip-path="url(#clip0_16_1008)">
<path fill-rule="evenodd" clip-rule="evenodd" d="M27.0402 0.162255C22.193 0.751555 17.8308 2.36633 13.8086 5.0605L12.8131 5.72731H13.5495C14.0379 5.72731 14.4324 5.80153 14.721 5.94774C14.9602 6.06897 15.3837 6.20616 15.6621 6.25247C16.0364 6.31485 16.2016 6.41017 16.2965 6.61829C16.4112 6.87026 16.4995 6.89993 17.1388 6.90145C17.5314 6.90227 17.9792 6.93686 18.1338 6.97825C18.395 7.04813 18.4088 7.02949 18.3297 6.71397C18.2148 6.2561 18.0939 6.20018 17.2137 6.19807C16.6255 6.19666 16.4887 6.165 16.5981 6.05561C16.6755 5.97822 16.7388 5.79355 16.7388 5.64523C16.7388 5.38892 16.6972 5.37556 15.8974 5.37556H15.0562L15.9181 4.73068C16.7784 4.08709 16.7818 4.0858 17.6332 4.0858H18.4863L18.8386 4.59772C19.0883 4.96072 19.2989 5.13132 19.5623 5.18397C20.2351 5.31857 20.5102 5.26264 20.9705 4.89811C21.2858 4.64837 21.4978 4.5609 21.6616 4.61284C21.7915 4.65411 21.8979 4.72775 21.8979 4.77652C21.8979 4.82518 21.6269 5.08548 21.2958 5.3548C20.7522 5.79707 20.6313 5.84456 20.05 5.84456H19.4063L19.4796 6.21096C19.5199 6.41252 19.5528 6.64995 19.5528 6.73859C19.5528 6.86194 19.7736 6.89981 20.4938 6.89981C21.3895 6.89981 21.44 6.88574 21.5461 6.60668C21.6465 6.34287 21.7222 6.31356 22.3053 6.31356C22.7445 6.31356 22.9536 6.26642 22.9547 6.16699C22.9556 6.08644 22.9868 5.90693 23.0239 5.76823C23.0802 5.55882 23.0288 5.5023 22.7209 5.43465C22.4581 5.37696 22.3698 5.30263 22.4172 5.17893C22.454 5.08313 22.4841 4.95486 22.4841 4.89401C22.4841 4.66091 23.118 4.55328 24.0391 4.63008L24.9835 4.70887L24.4856 5.17342C24.039 5.59001 23.9951 5.67841 24.061 6.02993C24.1353 6.426 24.2434 6.48029 25.1709 6.58745C25.3002 6.60246 25.3309 6.45109 25.3103 5.90072L25.2837 5.19476L25.8319 4.92848C26.1334 4.78192 26.8068 4.60862 27.3282 4.5432L28.2764 4.4243L29.6541 5.03154L31.0316 5.63878L31.0668 6.17825C31.1 6.68712 31.1259 6.7244 31.5257 6.83802L31.9494 6.95843L31.7682 7.3395C31.5969 7.69993 31.5528 7.72056 30.9547 7.72056C30.3284 7.72056 30.3206 7.7249 30.126 8.18839C30.0179 8.44564 29.8668 8.65669 29.7902 8.65739C29.6446 8.65856 28.3828 8.38056 27.5946 8.1735L27.1357 8.05297L28.2173 7.46765C29.3884 6.83403 29.3976 6.81152 28.6903 6.30781C28.3954 6.09782 28.2902 6.08914 27.4487 6.2044C26.6447 6.31461 26.4771 6.38098 26.1139 6.73238C25.8855 6.95339 25.5953 7.13501 25.4691 7.13595C24.772 7.14076 24.5325 7.40715 24.8971 7.7718C25.0661 7.94076 25.0514 7.96339 24.7317 8.02729C24.5186 8.06997 24.3572 8.18804 24.3206 8.32804C24.2752 8.50157 24.1784 8.54917 23.9291 8.52068C23.6509 8.48878 23.5921 8.42184 23.5613 8.10162C23.5187 7.66088 23.5349 7.66487 22.744 7.89972C22.3041 8.03045 19.8867 9.32396 19.4612 9.65648C19.443 9.67067 19.4955 9.93437 19.5778 10.2424C19.7687 10.956 20.2599 11.2919 21.2864 11.411L22.0151 11.4956V12.376C22.0151 13.1306 22.0416 13.2462 22.2006 13.1852C22.3026 13.1461 22.4601 13.1141 22.5505 13.1141C22.6409 13.1141 22.867 12.8131 23.053 12.4453C23.3766 11.8053 23.4236 11.7656 24.1394 11.5269L24.8877 11.2773L24.9226 10.2317L24.9574 9.18619L25.394 8.87548L25.8307 8.56476L26.8689 8.80583L27.9072 9.04701L27.8355 9.73211C27.7653 10.4048 27.7694 10.4173 28.0587 10.4173C28.2207 10.4173 28.6757 10.2546 29.0697 10.0557C29.9196 9.62658 29.9837 9.67231 29.9865 10.7104L29.9884 11.4139L30.5745 11.7432C31.0211 11.994 31.1606 12.1387 31.1606 12.3511C31.1606 12.9058 30.9653 13.1824 30.4684 13.3313C29.7853 13.5359 29.8512 13.7768 30.6916 14.1482C31.3067 14.4201 31.3951 14.4999 31.3951 14.7833C31.3951 15.1751 31.23 15.1928 30.2136 14.9102C29.3648 14.6742 29.1087 14.3608 29.5035 14.0412C29.844 13.7654 29.8436 13.2313 29.5027 13.2313C29.3647 13.2313 29.1888 13.3175 29.1118 13.4228C28.9475 13.6476 27.842 13.8543 27.775 13.6729C27.6641 13.3725 27.2615 13.1141 26.9044 13.1141C26.434 13.1141 26.2361 13.2918 26.2361 13.7145C26.2361 13.9794 26.3007 14.0473 26.6172 14.1152C27.1634 14.2323 27.2125 14.2844 26.9989 14.5203C26.8254 14.712 26.7775 14.7152 26.4595 14.5566C26.1166 14.3855 26.0989 14.3923 25.4526 14.9446C25.0908 15.2537 24.77 15.601 24.7399 15.7162C24.7097 15.8316 24.265 16.1498 23.7517 16.4232C23.0012 16.8232 22.6362 17.1229 21.8891 17.9523C21.1883 18.7305 20.9598 19.0659 20.9598 19.3173C20.9598 19.6035 20.8315 19.7348 20.0498 20.2481C19.5491 20.5767 18.908 21.0816 18.6249 21.3699L18.1103 21.8944L18.1854 22.7817L18.2603 23.6692L17.6754 23.3728C17.1049 23.0836 17.0906 23.0636 17.0906 22.5507V22.0251L15.1853 22.0289L13.28 22.0325L12.4627 22.4685C11.7429 22.8524 11.5951 22.9921 11.2243 23.6378C10.9926 24.041 10.7341 24.6404 10.6498 24.9695C10.5076 25.5247 10.5157 25.6092 10.7625 26.1361C11.0408 26.7305 11.1478 26.7892 12.0664 26.8532C12.418 26.8777 12.6742 26.7634 13.5005 26.2136C14.0538 25.8455 14.5688 25.5306 14.645 25.5141C14.9606 25.4455 14.9431 26.0679 14.6106 26.7383C14.4284 27.1058 14.3183 27.4288 14.3659 27.4563C14.4135 27.4836 14.7163 27.5421 15.0387 27.5863C16.0037 27.7183 16.0353 27.7387 16.0353 28.2296C16.0353 28.4734 16.0691 29.0725 16.1104 29.5609L16.1854 30.4487L16.9018 30.5735C17.2959 30.6421 17.8556 30.7276 18.1458 30.7636L18.6735 30.8291L19.3982 29.9628L20.1229 29.0967L21.0385 29.2918C21.8664 29.4681 21.9824 29.5278 22.2484 29.9141C22.5312 30.3244 22.5702 30.3412 23.2462 30.3439C24.172 30.3475 24.4774 30.2578 24.4774 29.9821C24.4774 29.7644 24.4887 29.7647 24.9353 29.9925C25.2668 30.1616 25.5477 30.4699 25.9524 31.1087L26.5115 31.9914L27.4584 31.9915L28.4052 31.9916L28.7222 32.5559C28.9315 32.9286 29.0663 33.3855 29.1192 33.9013L29.1991 34.6823L30.2679 35.0959C31.2598 35.4799 31.4292 35.5096 32.6308 35.5092L33.925 35.5089L34.3164 36.1545C34.6532 36.7101 34.7833 36.8224 35.2498 36.96C35.7702 37.1135 35.7904 37.1358 35.7513 37.5159C35.6995 38.0196 35.5909 38.2221 34.9097 39.085L34.3543 39.7885L34.158 41.6059C34.05 42.6055 33.9252 43.4534 33.8802 43.4903C32.938 44.2657 32.8495 44.3027 31.9337 44.3027H31.0403L30.7877 44.8228C30.5388 45.3349 30.538 45.357 30.7329 46.2442C30.8485 46.7701 30.8886 47.2005 30.8293 47.2776C30.7735 47.3503 30.36 47.8847 29.9107 48.465C29.4615 49.0454 28.9469 49.776 28.7673 50.0885C28.4876 50.5754 28.318 50.715 27.5828 51.0641C27.111 51.2882 26.4759 51.5073 26.1715 51.5512C25.7419 51.613 25.5958 51.6907 25.519 51.8984C25.4365 52.1218 25.4693 52.1847 25.7185 52.2794C25.8826 52.3419 26.0662 52.3929 26.1265 52.3929C26.3697 52.3929 26.2136 52.9326 25.867 53.2901C25.508 53.6606 25.5033 53.6791 25.6938 53.9699C25.8501 54.2084 25.9852 54.2689 26.3613 54.2689H26.833L26.7526 54.7086C26.7084 54.9505 26.6269 55.2705 26.5714 55.4197C26.4094 55.856 26.4543 56.2373 26.6872 56.4021C27.3811 56.893 27.7414 57.3063 27.6799 57.5412C27.6218 57.7633 27.5314 57.7862 26.7207 57.7837L25.8257 57.7811L24.9498 57.0163C24.245 56.4012 23.9392 56.018 23.3847 55.0552L22.6956 53.8586L22.7772 52.6533L22.8588 51.4481L22.3581 50.7847L21.8572 50.1214L22.0102 49.1173C22.2304 47.6724 22.2291 47.6497 21.9294 47.6071C21.6689 47.5701 21.6677 47.5594 21.6363 44.9716L21.6047 42.3733L20.784 41.7547C20.3326 41.4144 19.7258 41.0653 19.4356 40.9786C18.9625 40.8374 18.8966 40.7739 18.7982 40.3635C18.7261 40.0624 18.2989 39.4144 17.5501 38.4699C16.4414 37.0715 16.4142 37.0227 16.5053 36.5939C16.5567 36.3518 16.635 35.7443 16.6789 35.2438L16.7591 34.3338L17.5188 33.7918L18.2783 33.2496L18.2027 32.474C18.0892 31.3116 18.0767 31.2879 17.5689 31.2879C17.3247 31.2879 16.8047 31.2545 16.4135 31.2135L15.7019 31.1391L14.8109 30.1082L13.9199 29.0774L12.9551 28.8533C12.0383 28.6405 11.9882 28.6123 11.9503 28.2881C11.9025 27.8789 11.7623 27.7746 11.2574 27.7721C10.9848 27.7708 10.8763 27.8241 10.8763 27.9588C10.8763 28.0624 10.8104 28.1226 10.7298 28.0926C10.6492 28.0626 10.0698 27.9148 9.44223 27.7644L8.30127 27.4907L7.77189 26.6947L7.2425 25.8986L7.46938 25.5255L7.69614 25.1524L6.86601 23.9329C6.27906 23.0705 6.00727 22.5525 5.93809 22.164C5.88427 21.8619 5.81017 21.4432 5.77347 21.2337C5.7152 20.9015 5.66068 20.8526 5.34879 20.8526H4.99083L5.07384 21.5854C5.17327 22.4621 5.32464 22.8548 5.88252 23.6831C6.15759 24.0916 6.30356 24.4446 6.30356 24.7013V25.0942L5.80525 25.0119C5.53123 24.9666 5.30154 24.9224 5.29486 24.9137C5.28829 24.9049 5.05086 24.502 4.76723 24.0184C4.26001 23.1533 4.25074 23.118 4.19306 21.8492L4.13443 20.5595L3.52414 20.2663L2.91397 19.9732L2.89908 19.0938L2.88431 18.2145L2.66083 18.6835C1.98183 20.1082 1.10808 23.3474 0.715764 25.8944C0.45922 27.5598 0.422873 32.0806 0.653035 33.6915C1.43123 39.1359 3.36374 43.8675 6.5533 48.1377C7.66226 49.6223 10.8477 52.8099 12.317 53.9053C16.4076 56.9551 20.7847 58.83 25.7671 59.6663C28.5566 60.1346 32.6046 60.1075 35.5813 59.6007C42.0687 58.4958 48.326 55.0477 52.7041 50.1652L53.808 48.934L53.33 48.898L52.8519 48.8619V47.9157V46.9695L52.2657 46.1787L51.6794 45.3878V44.1656V42.9433L51.2104 42.4853C50.5508 41.8411 50.5626 41.4083 51.2777 40.023L51.8225 38.9678L50.75 37.0918C50.0645 35.8926 49.697 35.1311 49.7313 34.9813C49.761 34.8523 49.8215 34.2892 49.866 33.73L49.9468 32.7133L49.0039 32.631C48.1728 32.5585 48.0225 32.5087 47.7377 32.2115C47.452 31.9132 47.3331 31.8741 46.7101 31.8741C46.1308 31.8741 45.9525 31.9236 45.7061 32.1526C45.4253 32.4137 45.293 32.4353 43.5892 32.4978L41.7718 32.5643L40.3941 30.9799L39.0164 29.3953V28.1218C39.0164 26.9516 39.0354 26.8421 39.2507 26.7739C39.3795 26.7329 39.5145 26.558 39.5508 26.3848C39.5871 26.2119 39.635 25.978 39.6574 25.865C39.6884 25.7082 39.6193 25.6599 39.364 25.6599C38.9783 25.6599 38.9471 25.6246 38.8431 25.07L38.7657 24.6577L40.4062 23.4879L42.0466 22.3182L42.0851 21.4434L42.1235 20.5686L42.827 20.1667C43.4937 19.7856 43.5836 19.7659 44.5452 19.7887C45.4212 19.8093 45.6383 19.773 46.1325 19.5225C46.5875 19.292 47.0122 19.2062 48.2019 19.1045C49.0253 19.0342 49.7752 18.9766 49.8684 18.9766C50.0008 18.9766 50.0379 19.1642 50.0379 19.8329V20.6891L51.1811 20.9581C51.8099 21.1061 52.5237 21.3276 52.7676 21.4502C53.0114 21.573 53.3412 21.6733 53.5004 21.6733C53.7583 21.6733 53.7899 21.6239 53.7899 21.2206V20.7679L54.5205 20.7017C55.2422 20.6363 55.2599 20.6419 55.9496 21.1544L56.6479 21.6733H57.9088C58.6022 21.6733 59.1994 21.6253 59.2357 21.5664C59.2721 21.5076 59.1095 20.9239 58.8743 20.2692L58.4468 19.0788L57.6978 19.106C56.9936 19.1316 56.9251 19.1101 56.5519 18.7484C56.2206 18.4274 56.1416 18.2494 56.0748 17.6735C56.0307 17.2939 55.9513 16.9833 55.8984 16.9833C55.8454 16.9833 55.6457 17.0732 55.4543 17.183C55.175 17.3433 55.078 17.5111 54.9628 18.0331C54.7354 19.0629 54.7123 19.072 54.1016 18.3739C53.6225 17.8262 53.5554 17.6838 53.5554 17.2144C53.5554 16.7006 53.5231 16.6505 52.743 15.952C51.9677 15.2579 51.9027 15.2246 51.3213 15.2246C50.7192 15.2246 50.7128 15.2283 50.7768 15.547C50.9304 16.3116 51.072 16.4815 51.9638 16.9709C52.7612 17.4086 53.0609 17.6868 52.7347 17.6868C52.6702 17.6868 52.6174 17.9158 52.6174 18.1957C52.6174 18.6825 52.5979 18.711 52.1637 18.8543C51.7894 18.9779 51.6525 18.976 51.3809 18.8437C50.86 18.59 50.882 18.3903 51.431 18.3903C51.7785 18.3903 51.9378 18.3302 52.0258 18.166C52.1314 17.9685 52.0097 17.8492 51.0039 17.1655C50.1691 16.5982 49.8299 16.2945 49.7425 16.0364L49.623 15.6835L49.1289 16.1064C48.6803 16.4903 48.5887 16.5227 48.1346 16.4572L47.6343 16.3851L46.9424 17.2986C46.5618 17.801 46.1813 18.3774 46.0969 18.5795C46.0103 18.7869 45.8266 18.9781 45.675 19.0187C45.1197 19.1675 43.6032 19.0968 43.1973 18.9032C42.8181 18.7224 42.7915 18.6693 42.6841 17.8773C42.598 17.2421 42.6075 16.954 42.724 16.675C42.861 16.3463 42.954 16.2936 43.6141 16.1693C44.1441 16.0694 44.4996 16.0647 44.8789 16.1523C45.7042 16.3428 45.7994 16.3195 45.9136 15.8988C46.0418 15.4261 45.9981 15.3418 45.6249 15.3418C45.3595 15.3418 45.3362 15.3058 45.3973 14.9901C45.4346 14.7966 45.4945 14.4859 45.5302 14.2996C45.5918 13.9795 45.6366 13.9564 46.3387 13.8811L47.0819 13.8015L47.6479 13.0012C48.1735 12.2579 48.2511 12.1957 48.7384 12.1289C49.0271 12.0893 49.5996 12.0914 50.0108 12.1336L50.7584 12.2102L50.6834 11.7535C50.6421 11.5022 50.5821 11.1549 50.55 10.9818L50.4916 10.6667L49.9619 10.8938C49.6706 11.0187 49.3911 11.1208 49.3406 11.1208C49.2902 11.1208 49.1583 10.8834 49.0475 10.5932C48.8748 10.1408 48.7991 10.0656 48.5165 10.0656C48.0039 10.0656 47.8876 9.56034 48.2748 9.01641C48.4201 8.8124 48.7649 8.5983 49.2098 8.43614C49.8613 8.19859 50.2724 7.852 50.2724 7.54035C50.2724 7.3436 48.3031 5.81126 46.7182 4.77476C42.7593 2.18553 38.1751 0.572514 33.4559 0.108085C31.7871 -0.0561825 28.6168 -0.0293322 27.0402 0.162255ZM45.6463 10.5874C45.7513 11.2875 46.4431 12.3783 46.9007 12.5651L47.2572 12.7105L46.9671 13.0478C46.7014 13.3565 46.596 13.3897 45.7194 13.4405L44.7617 13.496V13.0089C44.7617 12.5617 44.7903 12.5162 45.1134 12.4516C45.3863 12.3971 45.4652 12.3185 45.4652 12.1017C45.4652 11.8926 45.3177 11.7313 44.8789 11.4614C44.4627 11.2054 44.2937 11.0271 44.2964 10.8469C44.3034 10.3637 44.6138 10.1425 45.3701 10.0815C45.5183 10.0696 45.5877 10.1967 45.6463 10.5874ZM44.3458 11.4914C44.8772 11.7335 44.7191 12.123 43.8354 12.7487C43.1985 13.1997 42.6512 13.2438 42.6512 12.8439C42.6512 12.382 43.2932 11.4965 43.6691 11.4401C43.8509 11.4128 44.0102 11.3825 44.0233 11.3729C44.0365 11.3632 44.1815 11.4165 44.3458 11.4914ZM28.575 15.1011C28.7109 15.1871 28.6817 15.2371 28.4285 15.3526C28.2545 15.4319 28.1121 15.5373 28.1121 15.5868C28.1121 15.7625 27.7402 16.0453 27.5091 16.0453C27.2565 16.0453 26.9396 15.789 26.9396 15.5847C26.9396 15.5156 27.1471 15.4591 27.4008 15.4591C27.7588 15.4591 27.8784 15.4067 27.9362 15.2246C28.015 14.9764 28.2929 14.9225 28.575 15.1011ZM26.3534 15.9424C26.3534 16.0991 26.2688 16.1626 26.0602 16.1626C25.7412 16.1626 25.6989 16.0403 25.8926 15.6783C25.9927 15.4912 26.0518 15.472 26.1857 15.5831C26.2779 15.6597 26.3534 15.8214 26.3534 15.9424Z" fill="#FEFEFE"/>
</g>
<defs>
<clipPath id="clip0_16_1008">
<rect width="60" height="60" fill="white" transform="translate(0.5)"/>
</clipPath>
</defs>
</svg>
