<svg width="61" height="60" viewBox="0 0 61 60" fill="none" xmlns="http://www.w3.org/2000/svg">
<g clip-path="url(#clip0_16_1004)">
<path fill-rule="evenodd" clip-rule="evenodd" d="M14.7283 0.180684C5.01949 0.387598 4.99823 0.388969 4.01406 0.831084C2.89275 1.33457 1.64406 2.57777 1.16218 3.66994C0.808348 4.4724 0.766862 4.90971 0.648233 9.08571C0.577262 11.5843 0.495491 17.0229 0.466691 21.1714L0.414062 28.7143L0.825663 29.5714C1.15326 30.2535 4.12755 33.3245 15.3897 44.6093C31.4046 60.6562 30.5464 59.9134 33.0712 59.9139C35.7633 59.9146 34.8018 60.709 47.7775 47.7643C60.8702 34.703 60.2426 35.455 60.2426 32.8286C60.2426 30.2043 61.0502 31.1421 44.9377 15.0595C33.6179 3.7608 30.5839 0.822512 29.8998 0.495426C29.0776 0.102512 28.8813 0.0848549 25.0998 0.0647977C22.9312 0.0531406 18.2641 0.105427 14.7283 0.180684ZM27.8119 15.2695C28.6099 15.4911 29.7835 16.5163 30.0974 17.2659C30.6211 18.517 30.2243 20.507 29.2771 21.3775C28.2681 22.3053 26.4057 22.5653 25.1953 21.9478C23.6771 21.1733 22.8849 19.3774 23.3622 17.7919C23.9718 15.7665 25.8229 14.7171 27.8119 15.2695ZM39.3892 25.4443C40.8038 26.1758 40.4351 28.1549 38.7849 28.6879C36.6357 29.3818 21.2315 33.4286 20.7388 33.4286C20.0358 33.4286 19.0141 32.4806 19.0141 31.8283C19.0141 31.1223 19.3214 30.5187 19.829 30.2273C20.4259 29.8848 37.5829 25.2461 38.3512 25.2195C38.6622 25.2087 39.1293 25.3099 39.3892 25.4443ZM34.5026 36.9734C36.7172 38.5299 36.4977 41.8517 34.0989 43.0839C32.8751 43.7126 31.7485 43.6628 30.5596 42.9278C28.0862 41.3986 28.5501 37.3915 31.3029 36.5069C32.2091 36.2158 33.7429 36.4394 34.5026 36.9734Z" fill="#FEFEFE"/>
</g>
<defs>
<clipPath id="clip0_16_1004">
<rect width="60" height="60" fill="white" transform="translate(0.5)"/>
</clipPath>
</defs>
</svg>
