<svg width="80" height="80" viewBox="0 0 80 80" fill="none" xmlns="http://www.w3.org/2000/svg">
<g clip-path="url(#clip0_16_1020)">
<path fill-rule="evenodd" clip-rule="evenodd" d="M4.96844 0.301719C3.71016 0.703906 2.85359 1.24547 1.92906 2.22297C1.03859 3.16469 0.625625 3.88406 0.251563 5.14563C0.0235938 5.91437 0 9.19281 0 40C0 70.8072 0.0235938 74.0856 0.251563 74.8544C0.625625 76.1159 1.03859 76.8353 1.92906 77.777C2.86984 78.7716 3.71672 79.3002 5.01953 79.7056C5.92891 79.9886 6.90453 80 30.343 80C56.9548 80 55.5989 80.0448 57.2823 79.1095C58.2608 78.5658 59.5033 77.3233 60.047 76.3448C60.9244 74.7656 60.9375 74.5927 60.9375 64.6017V55.4203L59.3156 56.9984C56.9077 59.3411 56.48 59.5733 51.4927 61.2444C47.6056 62.5469 47.0772 62.6864 46.0461 62.6823C42.9964 62.6705 40.5439 60.3408 40.3467 57.2684C40.2787 56.2081 40.3348 55.9816 41.6427 52.0255C43.1631 47.4264 43.4605 46.7442 44.5348 45.3906C44.9441 44.875 48.8022 40.9831 53.1083 36.742L60.9375 29.0309V23.8905V18.75H52.5494C44.5105 18.75 44.1345 18.7372 43.5225 18.4408C43.1712 18.2708 42.7447 17.9016 42.5747 17.6205C42.2783 17.1303 42.2638 16.7592 42.2214 8.55469L42.1773 0L24.0183 0.0084375C6.88937 0.0164062 5.80891 0.0329687 4.96844 0.301719ZM46.7188 7.03125V14.0625H53.8434H60.9681L60.8569 13.0859C60.7311 11.9811 60.3844 10.9698 59.7594 9.88359C59.2186 8.94391 52.0722 1.76875 51.0156 1.10469C50.0312 0.486094 48.477 0 47.4836 0H46.7188V7.03125ZM73.7316 23.3408C72.7511 23.6911 72.1586 24.1537 70.3145 26.0084L68.5195 27.8137L71.877 31.1775L75.2344 34.5414L77.2039 32.5442C79.4725 30.2436 79.8639 29.6055 79.962 28.0469C80.1373 25.2602 78.0855 23.1119 75.2675 23.1319C74.7337 23.1356 74.0425 23.2297 73.7316 23.3408ZM45.4747 23.7891C47.1417 24.6297 47.1417 26.9328 45.4747 27.7734L44.7775 28.125H28.2081C17.8511 28.125 11.4383 28.0675 11.1045 27.9719C9.92219 27.6328 9.20453 26.3697 9.52281 25.1878C9.70734 24.5022 10.3794 23.795 11.0319 23.5997C11.2808 23.5253 18.9753 23.4583 28.1309 23.4509L44.7775 23.4375L45.4747 23.7891ZM57.5 38.8281L49.7667 46.5627L53.1261 49.922L56.4855 53.2814L64.2188 45.5469L71.952 37.8123L68.5927 34.453L65.2333 31.0936L57.5 38.8281ZM36.0997 33.1641C37.7667 34.0047 37.7667 36.3078 36.0997 37.1484L35.4025 37.5H23.5206C16.2258 37.5 11.4323 37.4409 11.1045 37.3469C9.92219 37.0078 9.20453 35.7447 9.52281 34.5628C9.70734 33.8772 10.3794 33.17 11.0319 32.9747C11.2808 32.9003 16.8659 32.8333 23.4434 32.8259L35.4025 32.8125L36.0997 33.1641ZM36.0997 42.5391C37.7667 43.3797 37.7667 45.6828 36.0997 46.5234L35.4025 46.875H23.5206C16.2258 46.875 11.4323 46.8159 11.1045 46.7219C9.92219 46.3828 9.20453 45.1197 9.52281 43.9378C9.70734 43.2522 10.3794 42.545 11.0319 42.3497C11.2808 42.2753 16.8659 42.2083 23.4434 42.2009L35.4025 42.1875L36.0997 42.5391ZM46.9598 50.6334C46.9131 50.7577 46.4214 52.2177 45.8672 53.878C45.0367 56.3662 44.8867 56.9678 45.0141 57.3027C45.2011 57.7945 45.593 58.1133 46.0184 58.12C46.192 58.1228 47.7569 57.65 49.4959 57.0695L52.658 56.0141L49.8514 53.2108C47.942 51.3036 47.0178 50.4797 46.9598 50.6334ZM36.0997 51.9141C37.7667 52.7547 37.7667 55.0578 36.0997 55.8984L35.4025 56.25H23.5206C16.2258 56.25 11.4323 56.1909 11.1045 56.0969C9.92219 55.7578 9.20453 54.4947 9.52281 53.3128C9.70734 52.6272 10.3794 51.92 11.0319 51.7247C11.2808 51.6503 16.8659 51.5833 23.4434 51.5759L35.4025 51.5625L36.0997 51.9141ZM45.4747 65.9766C47.1417 66.8172 47.1417 69.1203 45.4747 69.9609C44.7811 70.3106 44.7392 70.3125 37.4219 70.3125C30.1045 70.3125 30.0627 70.3106 29.3691 69.9609C27.702 69.1203 27.702 66.8172 29.3691 65.9766C30.0627 65.6269 30.1045 65.625 37.4219 65.625C44.7392 65.625 44.7811 65.6269 45.4747 65.9766Z" fill="#FEFEFE"/>
</g>
<defs>
<clipPath id="clip0_16_1020">
<rect width="80" height="80" fill="white"/>
</clipPath>
</defs>
</svg>
