<svg width="61" height="60" viewBox="0 0 61 60" fill="none" xmlns="http://www.w3.org/2000/svg">
<g clip-path="url(#clip0_16_1012)">
<path fill-rule="evenodd" clip-rule="evenodd" d="M15.9512 7.27075C8.04997 11.261 1.54554 14.5676 1.49703 14.6186C1.44852 14.6697 3.81473 15.9148 6.7553 17.3854L12.102 20.0594L26.1972 12.5352C33.9495 8.39697 40.2932 4.98093 40.2942 4.94407C40.297 4.84678 30.6104 -0.0187072 30.4512 5.41181e-05C30.3775 0.00876475 23.8525 3.28061 15.9512 7.27075ZM34.8079 16.7381C27.1064 20.8603 20.7895 24.2805 20.7702 24.3385C20.7507 24.3965 22.9382 25.5451 25.6311 26.8908L30.5271 29.3379L45.0628 22.0216C53.0572 17.9977 59.5983 14.6851 59.5983 14.6603C59.5983 14.5954 49.0217 9.23131 48.9066 9.23788C48.8538 9.24082 42.5093 12.616 34.8079 16.7381ZM0.5 30.6619V45.3531L14.997 52.6541C22.9705 56.6697 29.5436 59.9751 29.6041 59.9997C29.6647 60.0243 29.7141 53.4402 29.7141 45.3685V30.6926L24.7998 28.2041C22.097 26.8354 19.8657 25.7156 19.8415 25.7156C19.8172 25.7156 19.7974 28.1722 19.7974 31.175V36.6343L17.6183 34.4582L15.4391 32.282H13.33H11.2208L11.2188 26.8211L11.2168 21.3603L5.85838 18.6653L0.5 15.9705V30.6619ZM45.9293 23.3006L31.3892 30.6373L31.3552 45.341C31.3364 53.4281 31.3707 60.0246 31.4316 59.9999C31.4924 59.9753 38.0659 56.6697 46.0393 52.6541L60.5363 45.3531V30.643C60.5363 22.5524 60.5212 15.9398 60.5028 15.9484C60.4845 15.9569 53.9263 19.2654 45.9293 23.3006Z" fill="#FEFEFE"/>
</g>
<defs>
<clipPath id="clip0_16_1012">
<rect width="60" height="60" fill="white" transform="translate(0.5)"/>
</clipPath>
</defs>
</svg>
