<svg width="80" height="80" viewBox="0 0 80 80" fill="none" xmlns="http://www.w3.org/2000/svg">
<g clip-path="url(#clip0_156_3142)">
<path fill-rule="evenodd" clip-rule="evenodd" d="M23.2821 39.9127C23.2821 53.5288 23.335 64.6961 23.3993 64.7292C23.5259 64.7941 76.8074 60.1009 77.8664 59.9316C78.666 59.8036 79.4981 59.1823 79.7831 58.5C79.9651 58.0645 80.0009 55.0066 80.0009 39.9114C80.0009 19.7109 80.0831 21.1502 78.8853 20.3577C78.2924 19.9653 78.0537 19.9412 51.2143 17.5637C36.3243 16.2448 23.9481 15.1636 23.7118 15.1609L23.2821 15.1562V39.9127ZM9.82042 17.8177C4.51714 19.2702 1.2662 20.2353 0.972453 20.4445C-0.0598907 21.1797 0.000890595 19.9561 0.000890595 39.9923C0.000890595 59.9903 -0.0667657 58.6436 0.977297 59.428C1.3548 59.7117 3.63761 60.3956 9.86964 62.0923C14.481 63.3478 18.2956 64.375 18.3462 64.375C18.4831 64.375 18.4581 15.6537 18.3212 15.5825C18.2568 15.5489 14.4314 16.5548 9.82042 17.8177ZM33.8796 25.417C34.1096 25.5844 34.4575 26.0338 34.6526 26.4155L35.0073 27.1094L34.9651 40.1839C34.9231 53.1725 34.9206 53.2614 34.5959 53.6995C33.459 55.2336 31.5428 55.2336 30.4059 53.6995C30.0814 53.2616 30.0787 53.1664 30.0318 40.3402C30.0001 31.6331 30.0382 27.2378 30.149 26.857C30.3642 26.1173 30.8732 25.4848 31.472 25.2134C32.1076 24.9253 33.3485 25.0302 33.8796 25.417ZM47.1357 27.047C47.4279 27.2275 47.8067 27.6492 47.9775 27.9841C48.2803 28.5777 48.287 28.8813 48.246 40.1444C48.2046 51.5122 48.1989 51.703 47.8834 52.137C47.707 52.3797 47.2345 52.7428 46.8331 52.9442C45.8365 53.4441 45.0287 53.308 44.1553 52.4933L43.5165 51.8975L43.4764 40.1284C43.4371 28.6014 43.4426 28.3489 43.7484 27.8502C44.4287 26.7403 46.0265 26.3614 47.1357 27.047ZM60.4696 28.7297C60.6845 28.8856 61.0184 29.2456 61.2118 29.5297L61.5634 30.0463V39.9656C61.5634 49.7709 61.5596 49.8911 61.2351 50.4161C60.3139 51.9067 58.2356 51.903 57.12 50.4086C56.8023 49.9833 56.7978 49.8339 56.7978 39.9219C56.7978 30.0184 56.8026 29.86 57.1195 29.4255C57.2964 29.1828 57.7534 28.8222 58.1351 28.6239C58.9298 28.2112 59.8101 28.2511 60.4696 28.7297ZM72.1514 30.4175C72.3759 30.5852 72.7046 30.9166 72.8818 31.1539C73.1984 31.5778 73.204 31.7411 73.204 40.3906C73.204 49.0227 73.1978 49.2045 72.8834 49.637C72.707 49.8797 72.2345 50.2428 71.8331 50.4442C70.8367 50.9441 70.0287 50.808 69.1553 49.9933L68.5165 49.3977L68.4737 40.5325L68.4307 31.6675L68.8095 31.0953C69.0178 30.7805 69.4237 30.403 69.7117 30.2563C70.3773 29.917 71.5881 29.997 72.1514 30.4175Z" fill="#FEFEFE"/>
</g>
<defs>
<clipPath id="clip0_156_3142">
<rect width="80" height="80" fill="white"/>
</clipPath>
</defs>
</svg>
