<svg width="60" height="60" viewBox="0 0 60 60" fill="none" xmlns="http://www.w3.org/2000/svg">
<g clip-path="url(#clip0_16_1016)">
<path fill-rule="evenodd" clip-rule="evenodd" d="M17.4616 29.9345C17.4616 40.1466 17.5012 48.5221 17.5495 48.5469C17.6444 48.5955 57.6056 45.0757 58.3998 44.9487C58.9995 44.8527 59.6236 44.3868 59.8373 43.875C59.9738 43.5484 60.0007 41.2549 60.0007 29.9336C60.0007 14.7832 60.0623 15.8626 59.1639 15.2682C58.7193 14.974 58.5403 14.9559 38.4107 13.1728C27.2432 12.1836 17.9611 11.3727 17.7839 11.3707L17.4616 11.3672V29.9345ZM7.36532 13.3632C3.38786 14.4526 0.949652 15.1765 0.72934 15.3334C-0.044918 15.8848 0.000667946 14.9671 0.000667946 29.9943C0.000667946 44.9927 -0.0500743 43.9827 0.732973 44.571C1.0161 44.7838 2.72821 45.2967 7.40223 46.5693C10.8608 47.5109 13.7217 48.2812 13.7597 48.2812C13.8623 48.2812 13.8436 11.7403 13.7409 11.6869C13.6926 11.6617 10.8235 12.4161 7.36532 13.3632ZM25.4097 19.0628C25.5822 19.1883 25.8431 19.5253 25.9895 19.8116L26.2555 20.332L26.2238 30.1379C26.1923 39.8794 26.1904 39.9461 25.9469 40.2746C25.0943 41.4252 23.6571 41.4252 22.8044 40.2746C22.561 39.9462 22.559 39.8748 22.5239 30.2551C22.5001 23.7248 22.5287 20.4284 22.6118 20.1428C22.7731 19.588 23.1549 19.1136 23.604 18.9101C24.0807 18.694 25.0114 18.7726 25.4097 19.0628ZM35.3518 20.2853C35.5709 20.4206 35.855 20.7369 35.9831 20.988C36.2102 21.4332 36.2152 21.6609 36.1845 30.1083C36.1535 38.6341 36.1491 38.7772 35.9125 39.1028C35.7802 39.2848 35.4259 39.5571 35.1248 39.7082C34.3774 40.083 33.7715 39.981 33.1165 39.37L32.6374 38.9231L32.6073 30.0963C32.5779 21.4511 32.582 21.2617 32.8113 20.8876C33.3215 20.0552 34.5199 19.7711 35.3518 20.2853ZM45.3522 21.5473C45.5134 21.6642 45.7638 21.9342 45.9089 22.1473L46.1725 22.5347V29.9742C46.1725 37.3282 46.1697 37.4183 45.9263 37.8121C45.2354 38.93 43.6767 38.9272 42.84 37.8064C42.6017 37.4875 42.5983 37.3754 42.5983 29.9414C42.5983 22.5138 42.602 22.395 42.8396 22.0691C42.9723 21.8871 43.315 21.6166 43.6013 21.4679C44.1973 21.1584 44.8576 21.1883 45.3522 21.5473ZM54.1135 22.8131C54.2819 22.9389 54.5285 23.1874 54.6614 23.3654C54.8988 23.6834 54.903 23.8058 54.903 30.293C54.903 36.767 54.8983 36.9034 54.6625 37.2278C54.5302 37.4098 54.1759 37.6821 53.8748 37.8332C53.1275 38.208 52.5215 38.106 51.8665 37.495L51.3874 37.0482L51.3553 30.3994L51.3231 23.7506L51.6071 23.3215C51.7633 23.0854 52.0678 22.8022 52.2838 22.6922C52.783 22.4378 53.6911 22.4978 54.1135 22.8131Z" fill="#FEFEFE"/>
</g>
<defs>
<clipPath id="clip0_16_1016">
<rect width="60" height="60" fill="white"/>
</clipPath>
</defs>
</svg>
