<svg width="80" height="80" viewBox="0 0 80 80" fill="none" xmlns="http://www.w3.org/2000/svg">
<path fill-rule="evenodd" clip-rule="evenodd" d="M37.3376 0.0850173C33.0624 0.770642 29.7326 2.10845 26.7738 4.32908C21.9445 7.95361 18.8666 13.1183 17.9624 19.1152C17.7923 20.2438 17.7121 20.4294 17.1018 21.1081C15.9341 22.4069 15.9313 22.4281 15.9313 30.0608V36.805L16.4074 37.7577C17.2835 39.511 18.6755 40.3706 20.6188 40.3586C22.0466 40.3499 23.0871 39.8817 23.9924 38.841L24.5844 38.1605L25.4771 39.9686C25.968 40.9631 26.729 42.2689 27.1679 42.8705C28.3221 44.4524 30.1957 46.288 31.6377 47.25C32.8751 48.0755 34.4287 48.8816 34.7879 48.8845C34.8895 48.8855 35.1263 48.6703 35.3141 48.4064C35.8299 47.6822 37.0727 46.7642 38.0794 46.3641C38.9373 46.0231 39.224 46.0031 44.3688 45.9231L49.7594 45.8392L50.6091 45.3705C51.9455 44.6331 53.7345 42.097 54.8619 39.3413L55.347 38.156L55.9516 38.8119L56.5563 39.468V41.0192C56.5563 41.908 56.4541 42.9627 56.3171 43.4889C55.5935 46.2672 53.3124 48.5483 50.5341 49.2719C49.8085 49.461 48.6304 49.5113 44.922 49.5121C42.1754 49.5125 39.9871 49.5799 39.6471 49.6742C38.9413 49.8702 38.194 50.4752 37.8604 51.1202C37.2882 52.2267 37.6826 53.8502 38.7149 54.6371L39.267 55.058L45.2163 55.0561L51.1657 55.0541L52.4938 54.6105C54.2816 54.0135 55.6201 53.2933 57.0512 52.1586C59.1454 50.4981 60.6557 48.3086 61.572 45.6049C62.023 44.2739 62.0826 43.8863 62.1477 41.8549L62.2204 39.5892L62.741 39.0103C63.0273 38.6919 63.4227 38.1294 63.6199 37.7603C63.9757 37.0941 63.9785 37.0402 64.0235 30.2342C64.0751 22.4397 64.0738 22.4294 62.8755 21.0966C62.2521 20.4031 62.1699 20.218 62.0248 19.178C60.4785 8.09924 50.9907 -0.109826 39.8612 0.00111104C38.688 0.0128298 37.5524 0.0506423 37.3376 0.0850173ZM42.8249 5.83424C49.7094 7.03986 55.1324 12.4545 56.3232 19.3119L56.5323 20.5153L56.1334 20.9117C55.9141 21.1297 55.6332 21.4614 55.5094 21.6491C55.2941 21.9749 55.2432 21.9088 54.363 20.1647C52.4487 16.3706 49.8105 13.6947 46.3219 12.0083C44.1066 10.9374 42.4338 10.5541 39.9938 10.5586C37.2701 10.5638 35.4105 11.0335 33.0095 12.3231C29.8841 14.0016 27.4074 16.6316 25.6246 20.1647C24.7444 21.9088 24.6935 21.9749 24.4782 21.6491C24.3545 21.4614 24.0679 21.1239 23.8415 20.8989L23.4301 20.4899L23.6677 19.2369C24.8209 13.1578 29.0693 8.29377 34.8898 6.38892C37.2627 5.6122 40.3323 5.39767 42.8249 5.83424ZM23.3396 49.1203C19.1844 50.3495 15.5532 52.4438 12.5277 55.3558C8.44054 59.2897 5.91023 63.875 4.82836 69.3081C4.34195 71.7506 4.21523 76.2514 4.60429 77.2699C4.97617 78.2439 5.83882 79.168 6.7907 79.6122L7.57195 79.9767H39.9938H72.4157L73.197 79.6122C74.1488 79.168 75.0115 78.2439 75.3834 77.2699C75.7734 76.2489 75.6457 71.7508 75.1573 69.2971C74.3471 65.2281 72.6285 61.4733 70.0704 58.183C68.6782 56.3922 66.1076 53.9808 64.2552 52.7277L62.6595 51.6481L61.3046 53.0875C58.0266 56.5697 54.5621 58.2841 49.9157 58.7233C47.8059 58.9228 40.9026 58.9322 39.5554 58.7374C37.4734 58.4363 35.4399 57.0121 34.6577 55.307C34.3415 54.6178 34.2348 54.526 33.4715 54.2853C31.1709 53.5602 27.2429 51.123 25.548 49.3691C25.2084 49.0175 24.8568 48.7336 24.7668 48.7381C24.6768 48.7427 24.0346 48.9147 23.3396 49.1203Z" fill="#FEFEFE"/>
</svg>
