<svg width="37" height="32" viewBox="0 0 37 32" fill="none" xmlns="http://www.w3.org/2000/svg">
<path d="M23.9575 15.0533L15.2317 7.52001C15.0884 7.39504 14.9179 7.29584 14.73 7.22815C14.5421 7.16046 14.3406 7.12561 14.1371 7.12561C13.9336 7.12561 13.7321 7.16046 13.5442 7.22815C13.3564 7.29584 13.1859 7.39504 13.0425 7.52001C12.7554 7.76982 12.5942 8.10776 12.5942 8.46001C12.5942 8.81226 12.7554 9.15019 13.0425 9.40001L20.6738 16.0667L13.0425 22.6667C12.7554 22.9165 12.5942 23.2544 12.5942 23.6067C12.5942 23.9589 12.7554 24.2969 13.0425 24.5467C13.1853 24.6727 13.3556 24.7729 13.5435 24.8415C13.7314 24.9102 13.9332 24.9459 14.1371 24.9467C14.3411 24.9459 14.5429 24.9102 14.7308 24.8415C14.9187 24.7729 15.0889 24.6727 15.2317 24.5467L23.9575 17.0133C24.114 16.8885 24.2389 16.7369 24.3243 16.5683C24.4098 16.3996 24.4539 16.2175 24.4539 16.0333C24.4539 15.8492 24.4098 15.6671 24.3243 15.4984C24.2389 15.3297 24.114 15.1782 23.9575 15.0533Z" fill="#FEFEFE"/>
</svg>
