<svg width="17" height="19" viewBox="0 0 17 19" fill="none" xmlns="http://www.w3.org/2000/svg">
<path d="M8.97315 11.9788L12.7398 7.61586C12.8023 7.5442 12.8519 7.45894 12.8857 7.36501C12.9196 7.27107 12.937 7.17032 12.937 7.06856C12.937 6.9668 12.9196 6.86605 12.8857 6.77212C12.8519 6.67819 12.8023 6.59293 12.7398 6.52127C12.6149 6.3777 12.4459 6.29712 12.2698 6.29712C12.0937 6.29712 11.9247 6.3777 11.7998 6.52127L8.46648 10.3369L5.16648 6.52127C5.04157 6.3777 4.8726 6.29712 4.69648 6.29712C4.52036 6.29712 4.35139 6.3777 4.22648 6.52127C4.16349 6.59266 4.11337 6.6778 4.07904 6.77174C4.04471 6.86569 4.02685 6.96658 4.02648 7.06856C4.02685 7.17055 4.04471 7.27144 4.07904 7.36538C4.11337 7.45933 4.16349 7.54446 4.22648 7.61585L7.99315 11.9788C8.05557 12.057 8.13134 12.1195 8.21568 12.1622C8.30001 12.2049 8.39108 12.2269 8.48315 12.2269C8.57521 12.2269 8.66628 12.2049 8.75062 12.1622C8.83495 12.1195 8.91072 12.057 8.97315 11.9788Z" fill="#FEFEFE"/>
</svg>
