<svg width="27" height="26" viewBox="0 0 27 26" fill="none" xmlns="http://www.w3.org/2000/svg">
<path fill-rule="evenodd" clip-rule="evenodd" d="M13.7602 15.2263L23.3558 24.8048C23.5322 24.9827 23.7421 25.1239 23.9733 25.2203C24.2046 25.3166 24.4527 25.3662 24.7032 25.3662C24.9537 25.3662 25.2018 25.3166 25.433 25.2203C25.6643 25.1239 25.8742 24.9827 26.0506 24.8048C26.4041 24.4493 26.6025 23.9683 26.6025 23.4669C26.6025 22.9655 26.4041 22.4845 26.0506 22.129L16.6566 12.64L26.0506 3.246C26.4041 2.89043 26.6025 2.40943 26.6025 1.90806C26.6025 1.40669 26.4041 0.925695 26.0506 0.570121C25.8748 0.390803 25.6652 0.248145 25.434 0.150416C25.2027 0.0526863 24.9543 0.00182906 24.7032 0.00078672C24.4521 0.0018291 24.2037 0.0526864 23.9724 0.150416C23.7411 0.248146 23.5315 0.390803 23.3558 0.570121L13.769 10.1399L4.17348 0.561363C3.99706 0.383486 3.78716 0.242302 3.5559 0.145954C3.32463 0.0496057 3.07658 0 2.82605 0C2.57552 0 2.32747 0.0496055 2.09621 0.145954C1.86494 0.242302 1.65505 0.383486 1.47862 0.561362C1.12516 0.916936 0.926762 1.39793 0.926762 1.8993C0.926761 2.40067 1.12516 2.88167 1.47862 3.23724L10.8727 12.7262L1.47862 22.1202C1.12516 22.4758 0.926758 22.9568 0.926758 23.4582C0.926758 23.9595 1.12516 24.4405 1.47862 24.7961C1.65438 24.9754 1.86398 25.1181 2.09528 25.2158C2.32657 25.3135 2.57496 25.3644 2.82605 25.3654C3.07714 25.3644 3.32553 25.3135 3.55682 25.2158C3.78811 25.1181 3.99771 24.9754 4.17348 24.7961L13.7602 15.2263Z" fill="#FF5000"/>
</svg>
