<svg width="25" height="24" viewBox="0 0 25 24" fill="none" xmlns="http://www.w3.org/2000/svg">
<g clip-path="url(#clip0_143_2197)">
<path fill-rule="evenodd" clip-rule="evenodd" d="M1.88526 3.02068C1.35163 3.18474 0.832701 3.6737 0.668645 4.16716C0.457546 4.8022 0.591011 5.47404 1.02403 5.95567C1.16566 6.11319 1.41107 6.31043 1.56932 6.39392L1.8571 6.54575H12.5895H23.3219L23.6097 6.39392C24.6703 5.83437 24.9378 4.45725 24.155 3.58654C24.0133 3.42902 23.7679 3.23178 23.6097 3.14829L23.3219 2.99646L12.674 2.98694C6.81766 2.9817 1.96273 2.99685 1.88526 3.02068ZM1.88526 10.2319C1.35163 10.396 0.832701 10.885 0.668645 11.3784C0.457546 12.0135 0.591011 12.6853 1.02403 13.1669C1.16566 13.3245 1.41107 13.5217 1.56932 13.6052L1.8571 13.757H12.5895H23.3219L23.6097 13.6052C24.6703 13.0456 24.9378 11.6685 24.155 10.7978C24.0133 10.6403 23.7679 10.443 23.6097 10.3596L23.3219 10.2077L12.674 10.1982C6.81766 10.193 1.96273 10.2081 1.88526 10.2319ZM1.88526 17.4432C1.35163 17.6073 0.832701 18.0962 0.668645 18.5897C0.457546 19.2247 0.591011 19.8966 1.02403 20.3782C1.16566 20.5357 1.41107 20.733 1.56932 20.8165L1.8571 20.9683H12.5895H23.3219L23.6097 20.8165C24.6703 20.2569 24.9378 18.8798 24.155 18.0091C24.0133 17.8516 23.7679 17.6543 23.6097 17.5708L23.3219 17.419L12.674 17.4095C6.81766 17.4042 1.96273 17.4194 1.88526 17.4432Z" fill="#FEFEFE"/>
</g>
<defs>
<clipPath id="clip0_143_2197">
<rect width="24" height="24" fill="white" transform="translate(0.589844)"/>
</clipPath>
</defs>
</svg>
