<svg width="90" height="45" viewBox="0 0 90 45" fill="none" xmlns="http://www.w3.org/2000/svg">
<path d="M34.5671 31.7893C9.46921 41.4984 -10.2996 17.4241 18.3381 0H38.5035C28.474 2.40065 16.191 9.20573 12.5738 17.1821C8.95662 25.1585 14.5081 35.4387 34.5671 31.7893Z" fill="#1E3662"/>
<path d="M13.5693 17.6371C12.558 19.676 12.3716 22.0267 13.0491 24.1997C13.7265 26.3726 15.2155 28.2002 17.2059 29.3016H18.2891V11.5C16.3252 13.2126 14.7209 15.2987 13.5693 17.6371ZM0 1.82959V7.7441H7.53421C9.32208 5.51953 11.3859 3.53202 13.6757 1.82959H0ZM3.11427 19.0794C3.18245 15.7217 4.22409 12.4562 6.11248 9.68011H0V29.3016H7.50519C6.13776 27.9703 5.04607 26.3822 4.29261 24.6282C3.53916 22.8741 3.13874 20.9886 3.11427 19.0794ZM35.9979 1.82959C30.3228 3.56258 24.9942 6.2751 20.2524 9.84467V19.5247H28.1155V7.7441H49.1319V1.82959H35.9979Z" fill="#1E3662"/>
<path d="M86.1742 26.8428C86.0788 27.0144 85.9382 27.1566 85.7676 27.2539C85.5971 27.3512 85.4032 27.3998 85.207 27.3945H84.0077V24.355C84.0077 24.2728 84.0403 24.1941 84.0984 24.136C84.1564 24.0779 84.2351 24.0452 84.3172 24.0452H85.2844C85.4906 24.0315 85.6957 24.0843 85.8698 24.1958C86.0438 24.3073 86.1776 24.4716 86.2516 24.6648C86.3505 25.0039 86.3897 25.3576 86.3676 25.7102C86.4005 26.0945 86.3476 26.4814 86.2129 26.8428M88.3116 22.8643C88.0346 22.6069 87.7085 22.4081 87.3528 22.28C86.9971 22.152 86.6193 22.0971 86.2419 22.1189H82.7311C82.3813 22.1137 82.0437 22.2472 81.7918 22.4902C81.54 22.7332 81.3943 23.066 81.3867 23.416V31.9442H84.0464V29.3305H85.9807C86.4427 29.3866 86.9113 29.3276 87.3449 29.1587C87.7786 28.9899 88.1638 28.7163 88.4664 28.3625C88.9043 27.4876 89.1044 26.5128 89.0467 25.536C89.121 24.5899 88.8457 23.6495 88.2729 22.8933" fill="#1E3662"/>
<path d="M75.7094 23.9873C76.0181 23.8726 76.3488 23.8296 76.6765 23.8614C76.9131 23.8601 77.1494 23.8795 77.3826 23.9195C77.7791 23.9969 77.8661 24.2099 77.8661 24.4035C77.8661 24.5971 77.8661 24.781 77.4309 24.781H75.4966C75.4966 24.4132 75.4966 24.1325 75.7867 23.9873M75.5353 27.1042C75.4379 26.9236 75.3975 26.7178 75.4192 26.5137H79.3459C79.5956 26.539 79.8453 26.4661 80.0423 26.3105C80.2108 26.1391 80.3377 25.9313 80.4132 25.703C80.4886 25.4747 80.5106 25.2321 80.4775 24.994C80.5285 24.5602 80.4858 24.1205 80.3524 23.7046C80.2189 23.2888 79.9977 22.9065 79.7037 22.5836C79.1428 22.1093 78.1853 22.09 76.7346 22.09C75.2838 22.09 74.0072 22.09 73.3398 22.7966C72.6725 23.5033 72.7595 24.539 72.7595 25.8458C72.6582 26.7246 72.7848 27.6148 73.127 28.4304C73.6977 29.3984 74.5971 29.3984 75.6707 29.3984H80.226V27.4624H76.7346C76.2606 27.4624 75.7674 27.4624 75.5353 27.1236" fill="#1E3662"/>
<path d="M71.8892 29.3209V22.1189H69.2295V24.6454H66.8697V22.1189H64.21V29.3209H66.8697V26.5717H69.2295V29.3209H71.8892Z" fill="#1E3662"/>
<path d="M49.383 23.9873C49.6922 23.8742 50.0225 23.8312 50.3502 23.8614C50.5836 23.8601 50.8166 23.8796 51.0466 23.9195C51.4431 23.9969 51.5398 24.2099 51.5398 24.4035C51.5398 24.5971 51.4818 24.781 51.1046 24.781H49.1703C49.1703 24.4132 49.1703 24.1325 49.4507 23.9873M49.2283 27.1042C49.1276 26.9247 49.0838 26.7188 49.1026 26.5137H53.0196C53.2725 26.5416 53.5261 26.4685 53.7256 26.3105C53.8941 26.1391 54.021 25.9313 54.0965 25.703C54.172 25.4747 54.194 25.2321 54.1608 24.994C54.2119 24.5602 54.1692 24.1205 54.0357 23.7046C53.9022 23.2888 53.681 22.9065 53.3871 22.5836C52.8165 22.1093 51.8687 22.09 50.4179 22.09C48.9672 22.09 47.6808 22.09 47.0232 22.7966C46.3655 23.5033 46.4429 24.539 46.4429 25.8458C46.3449 26.7237 46.4679 27.6122 46.8007 28.4304C47.381 29.3984 48.2805 29.3984 49.354 29.3984H53.8997V27.4624H50.4179C49.944 27.4624 49.4507 27.4624 49.2283 27.1236" fill="#1E3662"/>
<path d="M43.1453 29.3209V24.0162H45.834V22.1189H37.7969V24.0162H40.4856V29.3209H43.1453Z" fill="#1E3662"/>
<path d="M37.0718 29.3209V22.1189H34.4024V24.6454H32.0425V22.1189H29.3828V29.3209H32.0425V26.5717H34.4024V29.3209H37.0718Z" fill="#1E3662"/>
<path d="M25.3588 26.9784C25.2212 27.1529 25.0417 27.2896 24.8371 27.376C24.6325 27.4623 24.4094 27.4954 24.1885 27.4721C23.9663 27.4943 23.7421 27.4609 23.5361 27.3747C23.3301 27.2885 23.1488 27.1523 23.0086 26.9784C22.7898 26.5975 22.6983 26.1566 22.7474 25.72C22.6999 25.2711 22.791 24.8183 23.0086 24.4229C23.1559 24.2599 23.3395 24.1338 23.5444 24.0547C23.7493 23.9757 23.97 23.946 24.1885 23.9679C24.4072 23.9444 24.6283 23.9734 24.8335 24.0525C25.0387 24.1317 25.2221 24.2586 25.3685 24.4229C25.5988 24.8143 25.7035 25.2671 25.6683 25.72C25.7061 26.1572 25.6118 26.5956 25.3975 26.9784M27.4382 22.7676C26.4813 22.1676 25.3488 21.9116 24.2272 22.0416C23.1056 21.9116 21.9731 22.1676 21.0162 22.7676C20.6672 23.1708 20.402 23.6395 20.2359 24.1464C20.0698 24.6533 20.0063 25.1883 20.049 25.72C20.0107 26.244 20.0764 26.7704 20.2424 27.2688C20.4084 27.7673 20.6714 28.2279 21.0162 28.624C21.9692 29.2344 23.1031 29.4976 24.2272 29.3694C25.3513 29.4976 26.4852 29.2344 27.4382 28.624C27.783 28.2279 28.046 27.7673 28.212 27.2688C28.378 26.7704 28.4437 26.244 28.4053 25.72C28.4481 25.1883 28.3846 24.6533 28.2185 24.1464C28.0524 23.6395 27.7872 23.1708 27.4382 22.7676Z" fill="#1E3662"/>
<path d="M62.1689 16.8627V15.0428H59.5189C59.1127 15.0428 58.426 15.0912 58.0875 14.5588C57.9101 14.1679 57.8368 13.7377 57.8747 13.3101C57.8629 12.9834 57.9021 12.6568 57.9908 12.3421C58.1455 11.8678 58.455 11.4612 59.3738 11.4612H62.1592V9.68008H58.1455C57.7509 9.64517 57.3533 9.69347 56.9785 9.82186C56.6037 9.95024 56.2599 10.1559 55.9694 10.4254C55.3282 11.2678 55.0371 12.3257 55.157 13.3779C55.044 14.3114 55.2743 15.2542 55.805 16.0302C56.0841 16.3273 56.4262 16.5581 56.8061 16.7055C57.1861 16.8529 57.5942 16.9132 58.0004 16.882H62.1689" fill="#1E3662"/>
<path d="M54.1518 16.8724V9.66077H51.4825V12.1969H49.1323V9.66077H46.4629V16.8724H49.1323V14.1233H51.4825V16.8724H54.1518Z" fill="#1E3662"/>
<path d="M42.8456 14.5201C42.8533 14.5849 42.845 14.6506 42.8214 14.7113C42.7978 14.7721 42.7596 14.8261 42.7102 14.8686C42.5898 14.9377 42.4523 14.9713 42.3136 14.9654H40.9306C40.866 14.9716 40.8008 14.9633 40.7398 14.941C40.6788 14.9188 40.6236 14.8831 40.5781 14.8367C40.5327 14.7903 40.4982 14.7343 40.4772 14.6728C40.4562 14.6114 40.4492 14.546 40.4567 14.4814C40.4567 14.1813 40.6888 14.0652 40.9499 14.0652H42.8842V14.5201M44.8669 10.319C44.6257 10.0994 44.3434 9.92988 44.0362 9.82022C43.7291 9.71055 43.4033 9.66294 43.0777 9.68012H38.2419V11.4806H41.8591C42.0069 11.4616 42.1572 11.477 42.2981 11.5257C42.4391 11.5744 42.5668 11.655 42.6715 11.7613C42.7691 11.8995 42.8168 12.0667 42.8069 12.2357V12.3421H39.6926C39.2432 12.3008 38.7931 12.4134 38.4159 12.6616C38.1757 12.8942 37.9936 13.1802 37.8844 13.4963C37.7752 13.8125 37.7419 14.15 37.7873 14.4814C37.7217 15.1912 37.9331 15.8989 38.3773 16.4562C38.7484 16.7515 39.2215 16.8872 39.6926 16.8337H43.9288C44.1485 16.86 44.3713 16.84 44.5828 16.775C44.7944 16.71 44.99 16.6014 45.1571 16.4562C45.4206 16.1333 45.5458 15.7192 45.5053 15.3042V12.3131C45.5328 11.9477 45.4871 11.5805 45.3708 11.2331C45.2546 10.8857 45.0701 10.565 44.8282 10.29" fill="#1E3662"/>
<path d="M34.209 14.3845C34.1136 14.5561 33.9729 14.6984 33.8024 14.7956C33.6319 14.8929 33.438 14.9415 33.2418 14.9362H32.0522V11.8967C32.0547 11.8162 32.0884 11.7399 32.1462 11.6839C32.204 11.6279 32.2812 11.5966 32.3617 11.5966H33.3288C33.5339 11.5822 33.7382 11.6336 33.9121 11.7432C34.086 11.8529 34.2205 12.0151 34.296 12.2065C34.3815 12.5479 34.4077 12.9016 34.3734 13.2519C34.4035 13.637 34.3473 14.0239 34.209 14.3845ZM36.3077 10.406C35.7393 9.90227 34.9962 9.64163 34.238 9.67997H30.7368C30.5628 9.67612 30.3898 9.70661 30.2275 9.76972C30.0653 9.83283 29.9171 9.92731 29.7913 10.0478C29.6656 10.1682 29.5648 10.3123 29.4947 10.4718C29.4246 10.6312 29.3866 10.8029 29.3828 10.9771V19.5052H32.0522V16.8626H33.9865C34.45 16.9203 34.9205 16.8621 35.356 16.6932C35.7915 16.5242 36.1783 16.2498 36.4818 15.8946C36.9197 15.0197 37.1198 14.0448 37.0621 13.068C37.1364 12.122 36.8611 11.1816 36.2884 10.4253" fill="#1E3662"/>
<path d="M59.1032 21.8479C60.8248 21.8479 62.1691 20.8799 62.1691 19.486H60.4186C60.4186 20.1055 59.8383 20.454 59.1032 20.454C58.3682 20.454 57.7782 20.1055 57.7782 19.486H56.0277C56.0277 20.8992 57.372 21.8479 59.1032 21.8479ZM61.7049 22.0415C61.4672 22.0073 61.2246 22.0398 61.0043 22.1356C60.784 22.2313 60.5946 22.3864 60.4573 22.5836L57.8459 25.8554C57.7976 25.9232 57.7105 26.0587 57.6041 26.0587C57.4977 26.0587 57.4784 25.9813 57.4784 25.8554L57.5848 22.1189H54.9541V28.0722C54.9541 29.3209 55.9213 29.4371 56.4725 29.4371C56.7331 29.4697 56.9976 29.4279 57.2354 29.3166C57.4733 29.2053 57.6749 29.0289 57.8169 28.8079L60.3799 25.6134C60.4669 25.507 60.5346 25.3908 60.6217 25.3908C60.7087 25.3908 60.7281 25.507 60.7281 25.6134L60.5927 29.3499H63.2524V23.5419C63.2524 23.1741 63.2524 22.1093 61.7049 22.1093" fill="#1E3662"/>
<path d="M2.45697 40.0852H1.00623V43.5603H0.0390625V39.243H2.45697V40.0852Z" fill="#1E3662"/>
<path d="M4.50701 39.2429C4.91457 39.2125 5.31861 39.3369 5.63859 39.5914C5.78299 39.7269 5.89593 39.8925 5.96945 40.0765C6.04298 40.2605 6.0753 40.4584 6.06415 40.6562C6.06651 41.0134 5.93543 41.3587 5.69662 41.6242C5.54763 41.7581 5.3732 41.8605 5.18376 41.9254C4.99432 41.9902 4.79375 42.0162 4.59406 42.0017H3.98474V43.5602H3.01758V39.2429H4.50701ZM3.98474 41.2273H4.33292C4.52775 41.2429 4.72124 41.1841 4.87453 41.0628C4.97704 40.9518 5.03551 40.8072 5.03895 40.6562C5.04212 40.5792 5.02913 40.5023 5.00081 40.4306C4.97249 40.3589 4.92947 40.294 4.87453 40.24C4.71673 40.1128 4.51497 40.0537 4.31358 40.0754H3.98474V41.2273Z" fill="#1E3662"/>
<path d="M7.36029 39.243L8.25975 41.2371L9.1302 39.243H10.1941L8.25975 43.5603H7.15718L7.78584 42.3116L6.24805 39.243H7.36029Z" fill="#1E3662"/>
<path d="M14.3627 39.243V43.5603H13.3955V40.0852H11.7513V43.5603H10.7842V39.243H14.3627Z" fill="#1E3662"/>
<path d="M18.9462 39.243V43.5603H17.9307V40.0852H16.2865V43.5603H15.3193V39.243H18.9462Z" fill="#1E3662"/>
<path d="M22.4385 42.7375H20.8331L20.5042 43.5603H19.4307L21.1812 39.243H22.0904L23.7926 43.5603H22.7674L22.4385 42.7375ZM22.1581 41.9728L21.6358 40.5305L21.0942 41.9728H22.1581Z" fill="#1E3662"/>
<path d="M26.7904 41.0435L28.2702 39.243H29.5372L27.7866 41.2855L29.6242 43.5603H28.3379L26.7904 41.6243V43.5603H25.8232V39.243H26.7904V41.0435Z" fill="#1E3662"/>
<path d="M33.6962 39.7657C33.9103 39.9788 34.0802 40.2322 34.1961 40.5113C34.312 40.7904 34.3716 41.0897 34.3716 41.3919C34.3716 41.6941 34.312 41.9934 34.1961 42.2725C34.0802 42.5516 33.9103 42.805 33.6962 43.0182C33.4738 43.2307 33.2113 43.3967 32.924 43.5064C32.6367 43.6161 32.3304 43.6673 32.0231 43.657C31.4 43.6739 30.7954 43.4444 30.3402 43.0182C30.1237 42.8107 29.952 42.5612 29.8356 42.2848C29.7192 42.0085 29.6605 41.7112 29.6632 41.4113C29.6707 40.8011 29.9092 40.2164 30.3305 39.7753C30.7962 39.3669 31.3942 39.1417 32.0134 39.1417C32.6325 39.1417 33.2306 39.3669 33.6962 39.7753V39.7657ZM31.0752 40.4336C30.8269 40.6946 30.6884 41.0412 30.6884 41.4016C30.6884 41.762 30.8269 42.1086 31.0752 42.3696C31.2034 42.4924 31.3553 42.5875 31.5217 42.6491C31.6881 42.7107 31.8653 42.7375 32.0424 42.7277C32.22 42.7345 32.3972 42.7054 32.5633 42.6422C32.7295 42.579 32.8812 42.483 33.0096 42.3599C33.1357 42.2333 33.2343 42.0819 33.2992 41.9154C33.3641 41.7488 33.3939 41.5706 33.3868 41.3919C33.3948 41.2147 33.3662 41.0377 33.3028 40.8721C33.2393 40.7065 33.1423 40.5558 33.0179 40.4295C32.8935 40.3031 32.7443 40.2039 32.5798 40.138C32.4153 40.072 32.2389 40.0409 32.0617 40.0464C31.8796 40.0401 31.6981 40.0712 31.5284 40.1378C31.3588 40.2044 31.2045 40.305 31.0752 40.4336Z" fill="#1E3662"/>
<path d="M34.9141 43.5603L35.6104 39.243H36.4422L37.5157 41.8179L38.5893 39.243H39.421L40.1174 43.5603H39.1502L38.8021 40.9758L37.6898 43.5603H37.3416L36.3068 40.9758L35.9102 43.5603H34.9141Z" fill="#1E3662"/>
<path d="M44.4994 39.243V43.5603H43.5322V40.0852H41.8881V43.5603H40.9209V39.243H44.4994Z" fill="#1E3662"/>
<path d="M47.9906 42.7375H46.3561L46.0272 43.5603H45.0117L46.7623 39.243H47.6714L49.3543 43.5603H48.3097L47.9906 42.7375ZM47.7198 41.9728L47.1878 40.5305L46.6462 41.9728H47.7198Z" fill="#1E3662"/>
<path d="M50.8148 40.879H52.5557V39.243H53.5229V43.5603H52.5557V41.7211H50.8148V43.5603H49.8477V39.243H50.8148V40.879Z" fill="#1E3662"/>
<path d="M55.5053 39.2429V42.0598L57.5073 39.1558H58.3874V43.5602H57.4202V40.724L55.4182 43.628H54.5381V39.2429H55.5053Z" fill="#1E3662"/>
<path d="M60.3324 39.2428V42.0597L62.3441 39.1557H63.2242V43.5601H62.2571V40.7239L60.2454 43.6279H59.3652V39.2428H60.3324ZM62.5665 38.1006C62.4651 38.3425 62.2932 38.5483 62.0733 38.6911C61.826 38.8079 61.5567 38.8708 61.2833 38.8758C61.0099 38.8808 60.7386 38.8278 60.4871 38.7201C60.2672 38.5773 60.0954 38.3716 59.9939 38.1296L60.6806 37.8392C60.726 37.9607 60.7988 38.07 60.8934 38.1587C61.0121 38.2285 61.1473 38.2652 61.2851 38.2652C61.4228 38.2652 61.558 38.2285 61.6768 38.1587C61.7719 38.0724 61.842 37.962 61.8799 37.8392L62.5665 38.1006Z" fill="#1E3662"/>
<path d="M66.7643 43.1351L66.2419 43.503L65.2744 42.1087L66.2419 40.7143L66.7547 41.0726L66 42.1087L66.7643 43.1351ZM68.1188 43.1351L67.5964 43.503L66.6289 42.1087L67.5964 40.7143L68.1091 41.0726L67.3545 42.1087L68.1188 43.1351Z" fill="#1E3662"/>
<path d="M72.4313 39.243V42.7279H72.9245V44.5283H72.0251V43.5603H69.375V44.5283H68.4756V42.7279C68.6599 42.6966 68.8312 42.6125 68.9688 42.4859C69.2735 42.0783 69.4055 41.5671 69.3364 41.0629V39.243H72.4313ZM70.2939 41.0339C70.302 41.3588 70.2728 41.6836 70.2068 42.0019C70.1405 42.261 70.0071 42.4981 69.8199 42.6891H71.4448V40.0658H70.2939V41.0339Z" fill="#1E3662"/>
<path d="M75.903 40.0852H74.4619V40.9177H75.8353V41.7599H74.4619V42.7279H75.903V43.5603H73.4561V39.243H75.903V40.0852Z" fill="#1E3662"/>
<path d="M80.2847 39.243V43.5603H79.3175V40.0852H78.1183V41.5663C78.1852 42.1682 78.0305 42.774 77.683 43.2699C77.4174 43.5053 77.0702 43.627 76.7159 43.6087C76.5842 43.6248 76.451 43.6248 76.3193 43.6087V42.7085C76.3992 42.7239 76.4813 42.7239 76.5611 42.7085C76.6932 42.7121 76.8226 42.6711 76.9286 42.5923C77.0968 42.3208 77.1652 41.999 77.1221 41.6824V39.243H80.2847Z" fill="#1E3662"/>
<path d="M85.0615 39.7658C85.2755 39.9789 85.4454 40.2324 85.5613 40.5114C85.6772 40.7905 85.7369 41.0898 85.7369 41.392C85.7369 41.6942 85.6772 41.9935 85.5613 42.2726C85.4454 42.5517 85.2755 42.8051 85.0615 43.0183C84.8397 43.2317 84.5773 43.3983 84.2898 43.508C84.0023 43.6178 83.6958 43.6685 83.3883 43.6571C82.7659 43.6699 82.1628 43.4409 81.7054 43.0183C81.489 42.8108 81.3173 42.5613 81.2008 42.2849C81.0844 42.0086 81.0257 41.7113 81.0284 41.4114C81.0356 40.7992 81.278 40.2134 81.7054 39.7754C82.1695 39.3677 82.7659 39.1429 83.3835 39.1429C84.001 39.1429 84.5974 39.3677 85.0615 39.7754V39.7658ZM82.4405 40.4337C82.1921 40.6947 82.0536 41.0413 82.0536 41.4017C82.0536 41.7621 82.1921 42.1087 82.4405 42.3697C82.6275 42.5575 82.8665 42.685 83.1266 42.7355C83.3868 42.786 83.656 42.7573 83.8997 42.653C84.1433 42.5488 84.3502 42.3739 84.4935 42.1508C84.6368 41.9278 84.71 41.6668 84.7036 41.4017C84.7097 41.2232 84.6793 41.0453 84.6145 40.8789C84.5496 40.7125 84.4516 40.561 84.3264 40.4337C84.068 40.1806 83.7208 40.0389 83.3593 40.0389C82.9977 40.0389 82.6506 40.1806 82.3921 40.4337H82.4405Z" fill="#1E3662"/>
<path d="M86.1845 41.0726L86.6972 40.7143L87.6647 42.1087L86.6972 43.503L86.1748 43.1351L86.9391 42.1087L86.1845 41.0726ZM87.5389 41.0726L88.0517 40.7143L89.0192 42.1087L88.0517 43.503L87.568 43.1351L88.3323 42.1087L87.5389 41.0726Z" fill="#1E3662"/>
</svg>
