<svg width="80" height="80" viewBox="0 0 80 80" fill="none" xmlns="http://www.w3.org/2000/svg">
<path fill-rule="evenodd" clip-rule="evenodd" d="M17.5542 1.06828C16.6564 1.65594 15.7991 2.27641 15.6489 2.44719C15.3923 2.73937 15.3737 4.11203 15.3364 25.4805L15.2969 48.2031L13.9688 48.2955C13.0434 48.3598 12.4339 48.4939 11.9589 48.7373C10.9644 49.2472 9.97828 50.3361 9.60328 51.3386C9.29688 52.1573 9.28125 52.5173 9.28125 58.7394V65.2794L8.01609 65.3369C6.85938 65.3894 6.71891 65.4317 6.37547 65.8309C6.00219 66.265 6 66.2883 6 69.9219C6 73.5589 6.00172 73.5784 6.37687 74.0147L6.75359 74.4531L9.58 74.5048L12.4062 74.5566V76.3661C12.4062 78.0077 12.442 78.2367 12.7916 78.8331C13.4423 79.9436 13.6977 80 18.0708 80C21.7756 80 21.9069 79.9894 22.4078 79.6484C23.4498 78.9392 23.5727 78.6203 23.63 76.4736L23.6817 74.5312H40.0625H56.4433L56.495 76.4736C56.5523 78.6203 56.6752 78.9392 57.7172 79.6484C58.2181 79.9894 58.3494 80 62.0542 80C66.4273 80 66.6827 79.9436 67.3334 78.8331C67.683 78.2367 67.7188 78.0077 67.7188 76.3661V74.5566L70.545 74.5048L73.3714 74.4531L73.7481 74.0147C74.1233 73.5784 74.125 73.5589 74.125 69.9219C74.125 66.2883 74.1228 66.265 73.7495 65.8309C73.4061 65.4317 73.2656 65.3894 72.1089 65.3369L70.8438 65.2794V58.7394C70.8438 52.5173 70.8281 52.1573 70.5217 51.3386C70.1467 50.3361 69.1606 49.2472 68.1661 48.7373C67.6911 48.4939 67.0816 48.3598 66.1562 48.2955L64.8281 48.2031L64.7886 25.4805C64.7513 4.11203 64.7327 2.73937 64.4761 2.44719C63.9603 1.86047 60.9512 0 60.5177 0C60.2864 0 59.9311 0.134375 59.7283 0.298594L59.3594 0.597188L59.2812 7.91578L59.2031 15.2344L58.8339 14.2188C57.6167 10.8703 55.7042 8.90672 52.7969 8.02016C51.9239 7.75406 51.0469 7.73438 40.0625 7.73438C29.0547 7.73438 28.203 7.75359 27.3281 8.02172C24.5653 8.86828 22.6913 10.6294 21.6167 13.3888C21.3553 14.0602 21.0792 14.75 21.0031 14.9219C20.9203 15.1092 20.8606 12.3359 20.8544 8.00078L20.8438 0.767031L20.4602 0.383594C19.8461 -0.230469 19.3659 -0.117344 17.5542 1.06828ZM57.7188 28.2031V34.0625H40.0625H22.4062V28.2031V22.3438H40.0625H57.7188V28.2031ZM49.6742 43.2812C50.5547 44.1042 50.5312 43.8464 50.5309 52.6875C50.5308 61.7005 50.5498 61.5161 49.5433 62.2545C49.1091 62.573 48.9594 62.5781 40.0625 62.5781C31.1656 62.5781 31.0159 62.573 30.5817 62.2545C29.5752 61.5161 29.5942 61.7005 29.5941 52.6875C29.5938 43.9139 29.5792 44.0825 30.3992 43.3402C30.6008 43.1578 30.8711 42.9691 31 42.9209C31.1289 42.8728 35.2892 42.8462 40.2453 42.862L49.2562 42.8906L49.6742 43.2812ZM31.7031 44.4075C30.9009 44.8675 30.7777 45.6725 31.4119 46.3069L31.8239 46.7188H39.9202C45.6389 46.7188 48.1311 46.6666 48.4067 46.5409C48.8855 46.3228 49.167 45.5997 48.9725 45.088C48.6348 44.1998 48.8255 44.2183 40.0667 44.2234C34.3052 44.2269 31.9267 44.2792 31.7031 44.4075ZM31.3836 49.4461C30.8978 49.9317 30.8956 50.4861 31.377 51.0459L31.7541 51.4844L39.8536 51.5234C48.6028 51.5655 48.5386 51.5711 48.9394 50.7352C49.1791 50.2353 49.0752 49.7988 48.6145 49.3697C48.2953 49.0723 48.0214 49.0625 40.0259 49.0625H31.767L31.3836 49.4461ZM31.3239 54.318C31.1458 54.5444 31 54.8864 31 55.0781C31 55.2698 31.1458 55.6119 31.3239 55.8383L31.6477 56.25H39.9784C47.8852 56.25 48.3275 56.2352 48.6702 55.9577C49.1719 55.5514 49.1719 54.6048 48.6702 54.1986C48.3275 53.9211 47.8852 53.9062 39.9784 53.9062H31.6477L31.3239 54.318ZM22.7347 57.8547C24.2172 58.8452 24.1228 60.8767 22.5569 61.6797C21.9344 61.9989 21.6548 62.0309 19.5216 62.0278C16.597 62.0236 16.0128 61.8283 15.5077 60.6861C14.993 59.5228 15.3122 58.4445 16.36 57.8056C16.8034 57.5353 17.1586 57.5011 19.5316 57.5006C22.0502 57.5 22.2344 57.5205 22.7347 57.8547ZM63.765 57.8056C64.8128 58.4445 65.132 59.5228 64.6173 60.6861C64.1122 61.8283 63.528 62.0236 60.6034 62.0278C58.4702 62.0309 58.1906 61.9989 57.5681 61.6797C56.0022 60.8767 55.9078 58.8452 57.3903 57.8547C57.8906 57.5205 58.0748 57.5 60.5934 57.5006C62.9664 57.5011 63.3216 57.5353 63.765 57.8056ZM31.7647 58.7678C30.9797 59.0559 30.7745 60.1013 31.3836 60.7102L31.767 61.0938H40.0259C48.0214 61.0938 48.2953 61.0839 48.6145 60.7866C49.0752 60.3575 49.1791 59.9209 48.9394 59.4211C48.5434 58.5952 48.5691 58.5975 40.0625 58.6084C35.4584 58.6142 32.0023 58.6806 31.7647 58.7678Z" fill="#656565"/>
</svg>
