<svg width="80" height="80" viewBox="0 0 80 80" fill="none" xmlns="http://www.w3.org/2000/svg">
<path fill-rule="evenodd" clip-rule="evenodd" d="M23.2815 39.9693C23.2815 53.7025 23.3343 64.9659 23.3987 64.9993C23.5253 65.0647 76.8054 60.3312 77.8643 60.1604C78.664 60.0313 79.496 59.4047 79.781 58.7165C79.963 58.2773 79.9988 55.1931 79.9988 39.9681C79.9988 19.5939 80.081 21.0455 78.8832 20.2461C78.2904 19.8504 78.0517 19.8262 51.213 17.4282C36.3234 16.098 23.9475 15.0074 23.7112 15.0047L23.2815 15V39.9693ZM9.82017 17.6843C4.51702 19.1493 1.26617 20.1227 0.972428 20.3338C-0.0598891 21.0752 0.000890572 19.8411 0.000890572 40.0497C0.000890572 60.2197 -0.066764 58.8614 0.977271 59.6525C1.35476 59.9387 3.63751 60.6285 9.86938 62.3398C14.4807 63.606 18.2951 64.6421 18.3457 64.6421C18.4826 64.6421 18.4576 15.5018 18.3207 15.4299C18.2564 15.396 14.431 16.4106 9.82017 17.6843ZM33.8788 25.349C34.1087 25.5178 34.4566 25.9711 34.6517 26.3561L35.0064 27.0559L34.9642 40.2429C34.9222 53.3432 34.9197 53.4329 34.595 53.8748C33.4581 55.422 31.5419 55.422 30.4051 53.8748C30.0806 53.433 30.0779 53.3371 30.031 40.4005C29.9993 31.6186 30.0375 27.1855 30.1482 26.8014C30.3634 26.0554 30.8724 25.4174 31.4712 25.1437C32.1068 24.8531 33.3477 24.9588 33.8788 25.349ZM47.1345 26.993C47.4267 27.1751 47.8054 27.6004 47.9762 27.9381C48.279 28.5368 48.2857 28.843 48.2448 40.203C48.2034 51.6686 48.1976 51.861 47.8821 52.2988C47.7057 52.5436 47.2333 52.9098 46.8319 53.113C45.8353 53.6171 45.0275 53.4798 44.1541 52.6582L43.5154 52.0573L43.4752 40.187C43.436 28.5608 43.4415 28.3061 43.7472 27.8031C44.4275 26.6837 46.0253 26.3015 47.1345 26.993ZM60.4681 28.6902C60.6829 28.8475 61.0168 29.2106 61.2102 29.4971L61.5618 30.0181V40.0228C61.5618 49.9124 61.558 50.0336 61.2335 50.5631C60.3123 52.0665 58.2341 52.0628 57.1185 50.5555C56.8008 50.1266 56.7963 49.9759 56.7963 39.9786C56.7963 29.99 56.8011 29.8302 57.118 29.3919C57.2949 29.1472 57.7519 28.7835 58.1336 28.5835C58.9283 28.1673 59.8085 28.2075 60.4681 28.6902ZM72.1495 30.3925C72.374 30.5616 72.7027 30.8959 72.8799 31.1352C73.1965 31.5628 73.2021 31.7275 73.2021 40.4514C73.2021 49.1577 73.1959 49.3411 72.8815 49.7773C72.7051 50.0221 72.2326 50.3883 71.8312 50.5915C70.8348 51.0956 70.0269 50.9583 69.1535 50.1367L68.5147 49.5359L68.4719 40.5945L68.4289 31.6533L68.8077 31.0761C69.016 30.7586 69.4219 30.3778 69.7098 30.2299C70.3755 29.8877 71.5862 29.9684 72.1495 30.3925Z" fill="#656565"/>
</svg>
