<svg width="320" height="76" viewBox="0 0 320 76" fill="none" xmlns="http://www.w3.org/2000/svg">
<path d="M82.0262 61.6607C82.0262 61.6607 85.8129 65.3425 85.8379 69.3399C85.8379 69.3399 83.6813 69.1558 81.8757 66.973C80.0702 64.7639 79.7943 64.6061 79.8946 63.7383C79.8946 63.7383 80.5466 63.0808 83.9571 66.6311C83.9571 66.6311 83.7314 64.6061 79.5184 61.7922C79.5184 61.7922 80.5466 60.109 79.6188 58.3733C79.6188 58.3733 78.4401 60.635 77.4621 61.0821C77.1361 61.161 77.5123 59.3727 76.9856 58.7415C76.9856 58.7415 76.0076 61.3977 75.1801 60.9506C75.1801 60.9506 75.3305 59.662 74.8792 58.6363C74.8792 58.6363 73.7757 60.8717 73.3996 60.6876C73.0234 60.5035 72.2962 59.4253 72.9231 57.8736C73.5501 56.322 76.4339 56.5061 78.2144 56.8743C78.2144 56.8743 77.0107 55.1912 74.0265 55.7435C74.0265 55.7435 74.5531 53.8762 78.089 54.7441C78.089 54.7441 77.8383 53.8236 75.9826 53.3766C75.9826 53.3766 78.3147 51.5883 78.6157 49.9577C78.6157 49.9577 76.459 50.0629 75.9575 49.3266C75.4559 48.5902 77.6878 49.3003 79.8695 47.249C79.8695 47.249 76.5343 47.5383 76.4841 46.8808C76.4339 46.2233 79.5937 45.0662 80.1454 44.3824C80.1454 44.3824 74.6284 45.8288 72.2711 41.8314C72.2711 41.8314 71.3934 43.7512 69.8386 44.3824V36.9399C69.8386 36.9399 70.5408 36.4402 72.221 39.859L72.4216 40.0694C72.4216 40.0694 72.246 38.2548 72.8479 38.1233C73.4497 37.9918 73.55 39.0964 75.3556 39.2016C77.1863 39.2805 79.3429 37.2555 78.8915 34.5993C78.8915 34.5993 80.4965 35.9405 79.042 38.8071C77.5624 41.6473 75.2553 41.174 75.2553 41.174C75.2553 41.174 78.415 42.673 81.2237 37.6236C81.2237 37.6236 81.7754 40.7795 78.1392 42.3574C78.1392 42.3574 81.2739 42.0418 82.4525 39.1753C83.6311 36.335 82.7283 34.836 82.2017 33.8103C81.6751 32.7847 83.2801 32.7847 83.0293 31.2594C83.0293 31.2594 82.4023 31.9694 81.0482 31.8642C79.6689 31.759 75.3807 31.496 73.6253 33.2844C73.6253 33.2844 73.5501 31.1542 77.1863 30.6545C80.8225 30.1548 84.5088 28.7873 84.0073 23.7905C84.0073 23.7905 82.7033 25.5525 81.1234 25.5525C79.5435 25.5525 76.8352 25.8155 75.8321 25.1055C75.8321 25.1055 76.7098 27.2357 80.7974 26.8675C80.9479 27.5249 79.8946 29.3659 76.5593 29.7603C72.4968 30.26 70.7163 33.1529 70.7163 33.1529H70.1897C70.1897 33.1529 69.8888 30.523 66.0269 29.997C62.165 29.471 61.2873 27.972 61.2873 27.972C61.2873 27.972 64.0458 28.4454 65.9266 28.3139C67.8074 28.1824 70.2148 29.8129 70.2148 29.8129C70.2148 29.8129 68.7352 27.3671 63.8702 26.473C63.8702 26.473 66.2526 25.3421 71.2429 26.9201C71.2429 26.9201 69.4374 25.1581 67.055 24.7899C67.055 24.7899 67.9829 24.6321 73.525 24.6321C73.525 24.6321 71.268 23.6853 68.1835 23.6327C65.099 23.5801 62.9173 24.7899 61.7136 24.8425C60.5099 24.8951 58.1526 25.4999 56.1464 23.0542C56.1464 23.0542 55.5445 25.237 56.3972 26.7886C57.2749 28.3402 58.1777 30.8649 56.5226 33.6262C56.1715 34.1785 55.7201 34.1259 55.9458 33.1266C56.1464 32.1272 56.4975 29.4447 54.5916 26.736C52.6857 24.0272 50.1278 24.2376 49.4758 24.2376C48.8238 24.2113 45.6641 23.922 44.9118 21.5025C44.9118 21.5025 45.8898 21.0029 49.6012 22.5808C49.6012 22.5808 48.4978 21.3973 44.5858 19.8457C42.1533 18.899 40.9746 18.2941 40.8492 16.7951C40.8492 16.7951 42.6799 18.3467 46.3161 18.899C46.3161 18.899 39.0688 14.0863 36.1096 11.3512C36.1096 11.3512 38.3415 15.4801 38.2914 16.085C38.2412 16.6899 33.0753 11.8246 29.088 9.37883C25.1007 6.93305 22.1917 5.64442 22.1917 5.64442C22.1917 5.64442 32.0471 12.4821 32.8496 14.06C33.6521 15.6379 23.6462 8.80026 21.1134 6.74896C18.5555 4.72396 13.2391 0.384676 10.7063 0.0690918C10.7063 0.0690918 10.3302 3.33013 14.4178 6.51228C18.5304 9.69442 18.9567 10.536 18.9567 10.536C18.9567 10.536 7.19549 6.45968 4.43698 4.98695C4.43698 4.98695 2.45588 7.59052 6.59363 10.3256C10.7565 13.0607 15.0196 15.2171 15.0196 15.2171C15.0196 15.2171 4.66268 14.4019 0.750618 12.5347C0.750618 12.5347 -1.18033 14.0863 1.15186 16.3743C3.48405 18.6623 16.1732 21.2133 16.1732 21.2133C16.1732 21.2133 6.09209 21.7918 2.88219 21.2922C2.88219 21.2922 2.15495 24.3691 6.86948 26.2626C11.584 28.1561 22.7183 27.9457 22.7183 27.9457L11.4837 29.8392C11.4837 29.8392 11.7846 34.047 18.5304 34.0996C18.5304 34.0996 22.5428 34.0996 23.3704 34.0996C24.1979 34.0996 22.7936 35.099 20.4865 35.8353C20.01 36.5191 21.4896 38.623 25.2261 38.4915C27.809 38.4915 28.4611 38.3337 28.4611 38.3337L26.0285 40.5954C26.0285 40.5954 26.505 43.0412 30.5425 42.9886C32.8747 42.9097 33.4264 42.8308 33.4264 42.8308C33.4264 42.8308 32.2728 45.4607 34.6301 45.8551C36.9873 46.2496 38.4167 45.8551 38.4167 45.8551C38.4167 45.8551 37.5892 48.4061 38.5421 48.9847C39.4951 49.5633 42.2285 49.7736 43.0811 49.537C43.0811 49.537 42.3539 52.5876 44.0591 53.2188C45.7644 53.8236 48.1217 52.1668 48.5229 51.6146C48.5229 51.6146 48.9241 54.9808 50.6795 55.4016C52.435 55.8486 54.2154 54.0077 54.2154 54.0077C54.2154 54.0077 55.5445 55.9538 57.0743 56.0853C58.604 56.2431 60.0083 53.6922 60.0083 53.6922C60.0083 53.6922 60.1588 55.1123 61.3374 55.9012V56.322C61.3374 56.322 59.5318 56.848 59.6321 58.8204C59.7074 60.7928 59.7826 61.424 59.7826 61.424C59.7826 61.424 53.8894 64.8428 53.6888 68.0775C53.6387 69.9974 53.6387 70.234 53.6387 70.234C53.6387 70.234 54.8675 70.497 56.7232 69.5766V72.4431C56.7232 72.4431 58.6792 72.8902 59.9331 71.4438V74.0473C59.9331 74.0473 62.6665 74.4681 63.8451 73.2321C63.8451 73.2321 63.7699 74.8363 65.2244 75.5464C65.2244 75.5464 67.4563 74.8889 68.5095 73.2058C68.5095 73.2058 69.3371 75.2308 70.9922 75.8357C70.9922 75.8357 72.5971 75.3623 73.8761 72.8376C73.8761 72.8376 75.4058 74.5733 77.2615 74.9678C77.2615 74.9678 78.5655 73.9422 78.9166 72.1538C78.9166 72.1538 80.6219 73.2058 82.929 72.7587C82.929 72.7587 83.4807 71.8646 83.581 70.1551C83.581 70.1551 84.7095 70.6548 86.9664 70.5496C86.9664 70.5496 88.12 65.2373 82.0763 61.6081L82.0262 61.6607ZM74.3274 35.4409L74.3776 35.4146C74.4779 36.072 75.0547 36.5717 75.7318 36.4665C76.2083 36.3876 76.6095 35.9931 76.7098 35.5197C76.785 35.1516 76.7098 34.7834 76.5092 34.5204L77.738 34.573C77.738 34.573 78.1643 36.1509 77.1361 37.2029C76.1581 38.2285 74.503 38.1233 73.6253 36.9925C73.3745 36.6769 73.2491 36.3876 73.2491 36.3876L74.3024 35.4672L74.3274 35.4409ZM46.6421 27.6301C46.6421 27.6301 45.8145 29.3659 43.5074 29.3659C41.2003 29.3659 40.8994 28.1561 40.8994 28.1561C40.9746 28.1298 46.6672 27.6564 46.6672 27.6564L46.6421 27.6301ZM44.7362 25.0003C44.7362 25.0003 43.2817 26.473 40.9746 26.473C38.6675 26.473 36.7115 25.0003 36.7115 25.0003H44.7362ZM40.9746 22.3967C40.9746 22.3967 39.2944 23.1068 36.887 23.0805C35.2319 23.0805 33.627 22.3967 32.5486 21.0818C31.9969 20.4243 31.7713 19.8983 31.7713 19.8983C31.7713 19.8983 35.7084 22.1074 40.9495 22.3967H40.9746ZM37.4638 19.0305C31.7963 18.9253 31.044 16.348 31.044 16.348C33.627 15.6379 37.5641 19.0305 37.4638 19.0305ZM25.853 15.296C25.853 15.296 17.5023 14.2178 15.1952 10.9831C15.1952 10.9831 22.1165 12.2454 25.853 15.296ZM10.6562 16.5321C10.6562 16.5321 20.8877 15.6905 28.6617 19.5564C28.6617 19.5564 23.9471 20.5821 10.6562 16.5321ZM11.5339 23.5538C11.5339 23.5538 24.8499 22.4493 29.9908 23.5538C29.9908 23.5538 30.6428 24.7899 23.1948 24.7636C15.7469 24.7373 11.5339 23.5538 11.5339 23.5538ZM16.9004 30.6808C16.9004 30.6808 21.3892 30.4704 26.9564 29.024C32.5236 27.5775 34.2038 27.5512 34.2038 27.5512C34.2038 27.5512 31.9969 30.1548 27.5332 30.8912C23.0945 31.6275 18.4301 31.496 16.9004 30.6808ZM27.0316 34.3363C27.0316 34.3363 29.3388 32.7584 33.2759 31.6012C37.213 30.4441 37.6143 29.6814 37.6143 29.6814C37.6143 29.6814 35.8839 32.7584 32.2226 33.5736C28.5614 34.3889 27.0567 34.3363 27.0567 34.3363H27.0316ZM32.7994 38.2548C32.9248 35.8879 40.2975 33.3896 40.2975 33.3896C36.887 38.7019 32.7994 38.2548 32.7994 38.2548ZM35.5579 43.3305C36.9873 40.4902 43.2817 36.4928 43.2817 36.4928C43.2817 36.4928 43.0059 38.0181 40.2975 40.5954C37.5892 43.1727 35.5329 43.3305 35.5329 43.3305H35.5579ZM40.5734 47.249C40.5734 47.249 40.7991 44.8295 42.6799 43.3305C44.5607 41.8314 45.7895 39.412 45.7895 39.412C45.0622 44.5928 40.5734 47.249 40.5734 47.249ZM45.3381 50.6415C45.3381 50.6415 45.0372 48.3798 46.4164 46.4074C47.7957 44.4087 48.548 41.174 48.548 41.174C48.874 47.7486 45.3381 50.6415 45.3381 50.6415ZM44.9368 31.4172C44.9368 31.4172 47.0684 29.287 48.874 31.1805C48.874 31.1805 46.4164 32.4428 44.9368 31.4172ZM50.8802 52.6139C49.852 50.0103 52.0086 46.8545 52.0086 46.8545C53.2876 49.5107 50.8802 52.6139 50.8802 52.6139ZM53.2876 28.8399C51.0056 27.8668 49.2251 25.7366 49.2251 25.7366C49.2251 25.7366 50.83 25.3159 52.2343 26.3152C53.6387 27.2883 53.2625 28.8662 53.2625 28.8662L53.2876 28.8399ZM59.1808 68.6298H58.0021C58.0021 68.6298 57.8266 66.3944 59.5068 65.7896C59.5068 65.7896 58.7795 67.5516 59.2058 68.6298H59.1808ZM76.9606 51.0886C76.9606 51.0886 74.8039 53.0084 72.1457 50.9834C72.1457 50.9834 74.7036 49.4844 76.9606 51.0886ZM76.0327 47.8801C76.0327 47.8801 74.3776 49.011 73.2241 48.6165C72.0705 48.222 71.6943 47.6435 71.6943 47.6435C71.6943 47.6435 74.8792 46.0918 76.0327 47.8801ZM71.9702 49.3792C71.9702 49.3792 70.6411 51.4831 68.5847 50.1155C68.5847 50.1155 69.6129 48.222 71.9702 49.3792ZM71.895 53.324C71.4937 53.6133 70.7915 53.9288 69.9891 53.2714C69.8135 53.1136 69.8135 52.8506 69.9891 52.6928C70.3652 52.4035 71.0423 52.0879 71.895 52.6665C72.0956 52.8243 72.1206 53.1399 71.895 53.2977V53.324ZM66.3779 32.3376C68.1584 33.6262 67.3309 35.2305 67.3309 35.2305C64.9987 32.3113 62.0396 32.3376 62.0396 32.3376C62.0897 31.4697 64.5975 31.049 66.3779 32.3376ZM67.4813 56.9532C66.9046 55.1649 65.3247 55.1649 64.5473 55.2964C64.1711 55.349 63.9454 54.8756 64.2213 54.6126C64.8232 54.034 66.7039 54.1918 67.4813 55.1649C68.5095 56.4535 67.8324 57.5318 67.4813 56.9795V56.9532ZM62.0396 34.5467L63.2684 34.4941C63.0928 34.7571 62.9925 35.1253 63.0677 35.4935C63.168 35.9931 63.5693 36.3613 64.0458 36.4402C64.7228 36.5454 65.2996 36.0457 65.3999 35.3883L65.4501 35.4146L66.5033 36.335C66.5033 36.335 66.3779 36.6243 66.1272 36.9399C65.2495 38.0707 63.5944 38.1759 62.6163 37.1503C61.6133 36.0983 62.0145 34.5204 62.0145 34.5204L62.0396 34.5467ZM59.1055 36.7295C59.1055 36.7295 60.0585 42.2785 66.1021 41.3318C66.1021 41.3318 66.9046 42.3574 63.7197 42.7519C60.5098 43.1464 57.6009 38.8334 59.1055 36.7295ZM55.9207 53.6396C54.2154 52.1931 55.4944 49.5107 55.4944 49.5107C57.1495 50.9571 55.9207 53.6396 55.9207 53.6396ZM56.0962 43.3305C54.8424 38.2285 56.347 37.0714 56.347 37.0714C56.3972 39.7538 57.3752 44.5928 60.0083 48.1168C62.6414 51.6409 62.2653 53.3503 62.2653 53.3503C60.0083 48.3272 57.0993 47.4331 56.0962 43.3305ZM62.7919 71.9698H61.1869C61.1869 71.9698 61.1869 71.812 61.1869 70.6022C61.1869 69.3925 62.7919 67.7883 62.7919 67.7883V71.996V71.9698ZM62.2903 59.0308C62.3656 61.0032 62.1399 61.7659 62.1399 61.7659C60.1086 59.5305 61.3374 57.111 62.5662 57.111C63.795 57.111 63.7197 57.0847 64.6978 57.111C65.6758 57.1373 67.1804 57.1899 67.1303 58.7415C67.0801 60.2931 65.7259 61.3451 65.7259 61.3451C64.4971 60.1353 64.7981 58.5048 64.7981 58.5048C63.9956 59.0045 63.9956 61.3451 63.9956 61.3451C62.7919 60.7928 62.2903 59.0308 62.2903 59.0308ZM66.1773 63.5279C66.6789 64.7376 64.5975 65.1847 64.5975 65.1847C64.1711 63.0545 66.1773 63.5279 66.1773 63.5279ZM65.099 74.3629C65.099 74.3629 65.099 74.3629 64.7479 72.075C64.3968 69.787 66.3278 67.7883 66.3278 67.7883L66.1773 72.1801C66.403 71.3386 68.008 70.76 68.008 70.76C68.0331 74.4155 65.099 74.3629 65.099 74.3629ZM68.1584 66.3944C67.4563 63.6594 69.5377 63.7383 69.5377 63.7383C70.3903 65.5792 68.1584 66.3944 68.1584 66.3944ZM72.9482 71.3123C72.7476 73.4688 71.0925 74.6785 71.0925 74.6785C68.2587 72.259 70.1646 67.6568 70.1646 67.6568C70.2649 70.2866 71.3182 72.7324 71.3182 72.7324C72.2711 71.3649 71.9702 68.6824 71.9702 68.6824C71.9702 68.6824 73.0987 69.7081 72.9482 71.3386V71.3123ZM72.6473 67.1045C70.5157 65.7107 70.9922 63.6331 70.9922 63.6331C72.3714 65.3162 72.4216 65.0532 72.4216 65.0532C73.0234 64.4483 73.3996 62.7652 73.3996 62.7652C74.1519 64.7639 72.6473 67.1045 72.6473 67.1045ZM75.5312 63.896C75.7819 64.1064 76.133 64.0012 76.2584 63.712C76.459 63.2649 76.5844 62.8178 76.5844 62.8178C77.2113 63.5542 76.3838 65.6844 75.9826 65.6581C74.9042 65.6318 74.3776 63.449 74.3776 63.449C74.7788 63.3438 75.2052 63.6068 75.5312 63.8698V63.896ZM77.086 74.0737C73.2491 72.1012 73.9764 66.9993 73.9764 66.9993C75.9073 69.2084 76.6596 71.9698 76.6596 71.9698C77.0107 71.1019 76.5844 68.735 76.5844 68.735C79.2677 71.7068 77.086 74.0737 77.086 74.0737ZM76.785 66.0525C78.8163 66.6837 81.0732 69.6818 81.0732 69.6818C80.3962 67.2623 78.1894 65.5792 78.1894 65.5792C82.7785 65.8159 82.7785 72.2327 82.7785 72.2327C78.1643 70.7863 76.7599 66.0525 76.7599 66.0525H76.785Z" fill="white"/>
<path d="M130.923 15.8858C133.28 16.0436 133.18 17.9108 136.616 17.8582C140.026 17.7793 140.151 13.4663 140.151 13.4663C140.151 13.4663 137.518 13.6504 133.631 13.9134C129.744 14.1501 123.224 15.2809 123.224 15.2809C124.929 14.8338 128.842 12.914 128.842 12.914C128.842 12.914 125.23 12.204 125.381 10.9942C125.531 9.78449 127.939 10.8101 129.117 11.3098C130.296 11.8095 134.007 11.6517 135.537 8.96923C137.067 6.28676 135.989 4.84033 135.989 4.84033C135.989 4.84033 134.484 5.12962 130.597 6.89163C122.622 10.4946 119.989 10.7575 119.989 10.7575C121.017 9.91598 121.369 9.07442 121.369 9.07442C121.369 9.07442 117.808 10.3631 114.472 12.3092C111.112 14.2816 111.112 13.966 111.237 13.7293C115.174 10.626 116.855 8.65364 116.855 8.65364C110.41 12.9403 106.548 14.8075 107.325 13.9134C108.078 13.0192 112.993 8.94293 115.325 7.83838C117.657 6.73384 119.086 8.25916 122.447 8.04877C125.807 7.86468 127.061 5.12962 127.061 5.12962C127.061 5.12962 124.027 6.83903 121.695 6.15527C119.362 5.4452 118.384 5.3926 117.181 5.94488C111.939 8.54845 103.614 14.7812 102.611 15.7543C101.633 16.7273 100.68 17.1218 101.432 16.1751C102.159 15.2283 103.112 12.651 103.112 12.651C100.354 13.3611 96.0154 18.1212 96.0154 18.1212C97.6203 18.1212 99.3256 16.9903 99.3256 16.9903C99.3256 16.9903 98.5482 19.2783 95.6141 19.8306C92.6801 20.3829 92.6801 20.9088 92.6801 20.9088C94.1596 20.6459 96.4668 20.6196 96.6925 21.0929C95.564 22.4342 91.3761 23.2231 90.4984 23.1442C89.6207 23.0653 91.2005 21.4874 91.2005 21.4874C89.2946 22.3816 84.9312 26.1949 85.0064 28.2725C85.0817 30.3501 83.6272 30.8497 83.6272 30.8497C83.6272 30.8497 84.3043 31.6387 84.8309 36.0569C85.4829 44.1043 78.4863 52.6777 78.4863 52.6777C78.7873 53.4666 81.6461 56.3595 81.6461 56.3595L81.5959 53.3351H82.0222C82.4987 54.9394 84.9814 56.5173 84.9814 56.5173C85.9092 56.0702 86.3857 54.729 86.3857 54.729C87.9405 55.6231 90.4482 55.4127 90.4482 55.4127C91.5265 54.5975 91.4011 51.7572 91.4011 51.7572C93.0562 52.8092 94.4606 52.5462 94.4606 52.5462C94.4606 52.5462 91.2758 49.0484 89.7711 45.9189C88.2665 42.7631 88.6928 40.7644 88.6928 40.7644C92.2287 49.1799 94.0092 49.9952 94.0092 49.9952C91.4764 46.1819 90.4231 40.7907 91.2005 42.2634C91.9528 43.7361 95.1627 48.8381 96.1658 50.2056C97.1689 51.5731 96.0154 52.0465 96.0154 52.0465C98.9494 52.2306 97.2191 49.2851 97.2191 49.2851C99.1751 50.0478 99.8773 49.2851 99.8773 49.2851C94.0593 47.5494 92.5798 40.6592 92.5798 40.6592C94.3352 43.0523 98.7739 47.8913 98.5733 47.1286C98.3726 46.366 94.5609 40.6329 95.5138 41.4218C96.4918 42.1845 100.655 46.5764 101.357 47.2864C102.059 47.9965 100.78 48.7066 100.78 48.7066C100.78 48.7066 100.579 48.9958 102.561 48.5488C104.542 48.1017 102.31 46.103 102.31 46.103C103.814 46.2082 104.115 45.7085 104.115 45.7085C96.6172 43.2364 95.7897 38.529 95.7897 38.529C101.909 44.1569 103.137 43.2627 103.137 43.2627C98.2222 39.8439 98.1469 37.6348 98.1469 37.6348C104.191 42.9734 106.698 42.9734 106.774 43.6046C106.874 44.2358 105.219 45.1299 105.219 45.1299C106.849 45.3666 108.002 44.3673 108.604 43.7361C109.206 43.1049 108.579 42.8683 105.971 41.6059C101.081 39.3442 101.056 37.6348 101.056 37.6348C102.435 38.6868 106.147 39.502 106.147 39.502C101.432 36.6881 99.7519 33.1114 99.7519 33.1114C99.7519 33.1114 100.73 34.3212 104.742 36.3199C108.755 38.3186 109.908 38.1608 110.134 38.8446C110.335 39.5283 107.902 40.5014 107.902 40.5014C107.902 40.5014 108.504 40.8696 111.137 40.554C113.77 40.2384 114.247 38.266 114.247 38.266C111.162 37.6348 105.545 34.742 103.739 33.3218C101.934 31.928 103.589 32.2436 105.52 33.3481C107.426 34.4264 111.012 35.0838 111.012 35.0838C111.012 35.0838 107.877 33.4796 104.742 31.7702C101.633 30.0608 103.187 30.0082 104.742 30.8497C106.297 31.6913 112.842 33.953 113.695 34.2423C114.547 34.5316 112.316 36.1621 112.316 36.1621C112.316 36.1621 112.541 36.2936 115.952 36.767C119.337 37.2403 120.014 34.8734 120.014 34.8734C113.319 33.4533 111.087 31.6913 111.087 31.6913C114.146 32.5329 118.685 32.454 118.685 32.454C118.685 32.454 113.193 30.7709 110.284 29.8504C107.375 28.9299 104.617 27.4835 107.225 28.1673C109.808 28.851 116.278 29.7452 116.278 29.7452C116.278 29.7452 112.366 28.0095 110.761 27.4309C109.156 26.8523 109.356 25.9056 109.733 26.2212C110.134 26.5368 112.165 26.9838 116.077 27.2994C120.014 27.615 126.886 27.4572 126.886 27.4572C126.886 27.4572 123.4 26.7997 120.742 26.5894C111.864 25.7478 113.143 24.8536 113.143 24.8536L122.798 24.9325C120.742 23.8543 120.19 23.9332 115.35 23.5913C110.51 23.2494 111.187 22.3816 111.187 22.3816L124.528 23.1442C126.434 27.0627 131.65 26.9838 131.65 26.9838C131.65 26.9838 129.97 26.0897 129.318 24.9851C128.666 23.9069 127.312 22.9864 127.312 22.9864C127.312 22.9864 128.265 22.8286 129.669 23.302C132.026 24.3014 131.575 26.0371 133.857 26.116C136.114 26.1949 137.293 24.4592 137.293 23.302C137.293 22.1449 137.293 21.7504 137.293 21.7504H121.92C125.807 21.1455 128.24 19.9884 128.24 19.9884C114.121 21.1455 116.478 20.2251 116.478 20.2251C118.886 20.2777 125.18 18.2264 125.18 18.2264C121.82 18.3842 111.112 18.989 111.112 18.989C115.3 17.4637 126.008 16.3066 126.008 16.3066C129.519 21.0666 134.033 19.4624 134.033 19.4624C134.033 19.4624 131.851 18.8049 130.095 17.3848C128.315 15.9647 128.666 15.8595 131.023 16.0173L130.923 15.8858ZM84.9061 54.8342C82.7495 53.8611 83.7024 47.1812 83.7024 47.1812C83.6773 49.5744 84.7306 52.2306 85.2321 53.3614C85.7588 54.4923 84.9061 54.8605 84.9061 54.8605V54.8342ZM90.2225 24.1173C91.4764 24.0384 93.0312 24.1173 93.0312 24.1173C93.0312 24.1173 90.2977 26.2212 87.6395 26.5105C87.6395 26.5105 88.9686 24.1962 90.2476 24.1173H90.2225ZM89.1943 48.1017C90.8244 51.6783 90.047 54.8342 90.047 54.8342C86.0346 52.5725 86.3104 47.865 86.3104 47.865C87.1882 50.4686 88.9185 52.2306 88.9185 52.2306C88.6176 50.1793 86.9875 43.9728 86.9875 43.9728C86.9875 43.9728 87.5643 44.5251 89.1943 48.1017ZM87.5142 29.9293C86.3606 30.0871 86.2854 29.9293 86.2854 29.9293C86.3104 29.903 87.4389 28.2462 88.0909 28.1673C88.743 28.0884 89.8213 28.0358 89.8213 28.0358C89.8213 28.0358 88.6677 29.7715 87.5142 29.9293ZM90.5234 34.5842C89.395 34.2423 88.8934 32.5329 88.8934 32.5329C88.8934 32.5329 90.5736 34.0056 92.7302 33.8215C92.7302 33.8215 91.6268 34.9523 90.4984 34.6105L90.5234 34.5842ZM95.5138 32.4014C92.5547 32.7433 90.9498 30.5605 90.9498 30.5605C92.6801 31.5598 97.2943 30.9023 97.2943 30.9023C97.2943 30.9023 96.4166 32.1384 95.5138 32.4014ZM99.4008 29.2455C97.3194 29.3244 95.8649 29.2981 93.4826 27.878C93.4826 27.878 97.4197 28.5618 99.4008 28.0621C101.382 27.5624 101.583 27.3783 101.583 27.3783C101.583 27.3783 101.482 29.1666 99.4008 29.2455ZM102.887 26.2212C99.3256 26.9049 95.589 25.5637 95.589 25.5637C98.0215 25.0903 98.8742 25.4322 101.959 25.0903C105.068 24.7484 105.244 23.7754 105.244 23.7754C105.996 24.5644 104.943 25.8004 102.887 26.2212ZM104.316 22.9601C102.109 22.9601 98.9996 22.9601 98.9996 22.9601C98.9996 22.9601 99.451 22.592 103.513 21.9608C107.576 21.3559 108.303 19.1731 108.303 19.1731C109.457 21.8819 106.523 22.9601 104.316 22.9601ZM107.25 18.1475C105.319 18.9364 102.736 18.989 102.736 18.989C102.736 18.989 106.347 17.0692 108.002 16.0173C109.657 14.9653 109.206 17.3322 107.25 18.1475ZM115.4 15.465C112.943 16.3855 110.736 16.254 110.736 16.254C110.736 16.254 115.375 13.966 118.359 12.3355C122.221 10.2053 123.4 13.703 125.857 13.4137C125.857 13.4137 121.243 16.3329 116.077 16.2803L121.343 13.6241C121.343 13.6241 117.858 14.5709 115.4 15.4913V15.465Z" fill="white"/>
<path d="M121.551 28.8571H129.049C129.049 28.8571 128.673 32.2233 125.588 32.3811C122.504 32.5389 123.206 30.4613 121.551 28.8571Z" fill="white"/>
<path d="M117.056 28.4857C117.056 28.4857 119.814 27.8019 120.892 30.7211C121.143 31.3522 121.494 31.9571 121.971 32.4042C122.096 32.5357 122.197 32.5883 122.197 32.5883C122.197 32.5883 120.692 32.825 119.237 30.6159C118.059 28.8538 117.056 28.4857 117.056 28.4857Z" fill="white"/>
<path d="M120.514 4.28669C120.514 4.28669 126.156 2.39318 128.789 0C128.789 0 130.168 3.81331 126.357 4.28669C123.924 4.28669 120.514 4.28669 120.514 4.28669Z" fill="white"/>
<path d="M154.075 18.2851C155.643 18.2851 157.141 18.5104 158.604 18.9609C160.067 19.4114 161.321 20.1247 162.401 21.1383C163.481 22.1144 164.317 23.2782 164.839 24.5922C165.362 25.9062 165.641 27.3703 165.641 29.0597C165.641 30.8242 165.362 32.4761 164.77 33.9402C164.177 35.4419 163.307 36.6808 162.192 37.732C161.077 38.7832 159.753 39.534 158.186 40.0221C156.653 40.5101 155.016 40.7354 153.343 40.7354C151.671 40.7354 150.104 40.5101 148.571 40.0221C147.038 39.534 145.749 38.7832 144.599 37.732C143.485 36.6808 142.683 35.517 142.196 34.2406C141.708 32.9641 141.499 31.5375 141.499 29.9608C141.499 27.6331 141.987 25.6058 142.997 23.8789C144.007 22.1144 145.47 20.7629 147.421 19.7868C149.372 18.8107 151.567 18.3226 154.04 18.3226L154.075 18.2851ZM153.796 23.053C152.681 23.053 151.636 23.3533 150.731 23.954C149.825 24.5547 149.128 25.3806 148.64 26.4318C148.153 27.483 147.909 28.6468 147.909 29.8481C147.909 30.9744 148.118 31.988 148.571 32.9266C149.024 33.8652 149.686 34.5785 150.626 35.1041C151.532 35.6296 152.507 35.8924 153.518 35.8924C154.597 35.8924 155.608 35.5921 156.513 35.029C157.419 34.4283 158.116 33.6024 158.604 32.5512C159.091 31.5 159.3 30.3737 159.3 29.2099C159.3 28.0836 159.091 27.0325 158.639 26.0939C158.186 25.1553 157.559 24.4045 156.688 23.8789C155.852 23.3533 154.876 23.0905 153.796 23.0905V23.053ZM169.473 40.3224L168.985 37.3941C168.88 36.7184 168.671 35.7423 168.428 34.5034L166.024 22.6775L165.153 18.6981C166.372 18.7356 167.382 18.7356 168.149 18.7356C169.02 18.7356 169.995 18.7356 171.145 18.6981C171.423 20.425 171.632 21.6639 171.772 22.4898L172.991 28.872C173.235 30.2611 173.548 31.913 173.827 33.9027L174.315 31.6877L176.057 24.3669L177.276 18.6981C178.635 18.7356 179.749 18.7356 180.69 18.7356C181.7 18.7356 182.815 18.7356 184.069 18.6981L185.01 25.3806L186.299 33.8652L186.856 31.5375C186.96 31.1246 187.065 30.7116 187.204 30.2986C187.309 29.8857 187.588 29.0597 187.936 27.8584L189.713 21.7765L190.549 18.6981C191.733 18.6981 192.708 18.6981 193.475 18.6981C194.346 18.6981 195.321 18.6981 196.401 18.6981L190.723 37.0938L189.817 40.3224C188.354 40.2849 187.065 40.2849 185.985 40.2849C184.835 40.2849 183.546 40.2849 182.153 40.3224L181.805 38.145L180.516 30.599C180.446 30.1485 180.376 29.6604 180.342 29.2099C180.307 28.7219 180.202 27.971 180.133 26.9574L179.61 29.4352C179.471 29.9983 179.366 30.5239 179.227 31.087L176.858 40.3224C175.395 40.2849 174.141 40.2849 173.165 40.2849C172.12 40.2849 170.901 40.2849 169.473 40.3224ZM195.635 40.3224C195.879 37.8446 196.053 35.7798 196.157 34.203C196.366 31.3498 196.506 28.4591 196.61 25.6434C196.715 22.7902 196.749 20.5001 196.749 18.6605C198.073 18.6981 199.258 18.6981 200.303 18.6981C200.999 18.6981 202.01 18.6981 203.299 18.6605L202.95 24.4045L202.497 33.3771L202.428 35.5921C204.1 35.6296 205.215 35.6296 205.737 35.6296C208.315 35.6296 210.266 35.5921 211.59 35.517L211.241 40.2849C208.664 40.2474 206.225 40.2474 203.891 40.2474C200.721 40.2474 197.969 40.2474 195.6 40.2849L195.635 40.3224ZM230.297 27.7458C231.621 27.7833 232.91 27.7833 234.129 27.7833C236.184 27.7833 237.822 27.7833 239.006 27.7458C238.867 29.1724 238.762 31.2372 238.623 33.8652C238.483 36.5307 238.414 38.5204 238.379 39.8719C237.264 40.0972 236.324 40.2473 235.592 40.36C234.86 40.4726 233.955 40.5477 232.91 40.6228C231.865 40.6979 230.959 40.7354 230.123 40.7354C228.799 40.7354 227.475 40.6228 226.186 40.3975C224.897 40.1723 223.748 39.7968 222.737 39.2713C221.727 38.7457 220.891 38.0323 220.194 37.1689C219.532 36.2679 219.01 35.2167 218.627 34.0153C218.243 32.814 218.069 31.5375 218.069 30.2611C218.069 28.1212 218.557 26.1314 219.567 24.2919C220.543 22.4523 221.971 20.9881 223.852 19.937C225.698 18.8482 228.102 18.3226 231.028 18.3226C233.188 18.3226 235.557 18.5854 238.17 19.1486C238.17 20.6878 238.24 22.3772 238.344 24.2543C237.647 23.9915 237.055 23.8038 236.637 23.6912C236.184 23.5786 235.697 23.4284 235.104 23.3158C234.512 23.2031 233.955 23.128 233.432 23.0905C232.91 23.053 232.422 23.0154 232.039 23.0154C230.959 23.0154 229.948 23.1656 228.973 23.5035C228.033 23.8414 227.196 24.3294 226.5 25.0427C225.803 25.7185 225.28 26.5444 224.967 27.5205C224.619 28.4966 224.444 29.5103 224.444 30.5614C224.444 31.6502 224.653 32.6263 225.037 33.4522C225.42 34.3157 226.047 34.9539 226.918 35.4044C227.754 35.8549 228.729 36.0802 229.774 36.0802C230.645 36.0802 231.621 35.93 232.631 35.6672L232.77 32.2884C232.143 32.2508 231.76 32.2508 231.655 32.2508H230.088L230.192 30.2986C230.192 30.0734 230.227 29.773 230.227 29.3976C230.262 28.9847 230.262 28.4591 230.262 27.7833L230.297 27.7458ZM239.494 40.3224C239.668 38.4453 239.842 36.7935 239.947 35.2918C240.051 33.7901 240.156 32.0631 240.225 30.1109C240.295 28.1587 240.365 26.0564 240.399 23.8789C240.434 21.7014 240.469 19.9745 240.469 18.6605C241.688 18.6981 242.664 18.6981 243.43 18.6981C244.197 18.6981 245.172 18.6605 246.287 18.623C247.402 18.5854 248.516 18.5479 249.561 18.5479C250.815 18.5479 251.93 18.5854 252.906 18.6981C253.637 18.7731 254.299 18.9233 254.891 19.1486C255.484 19.3738 256.006 19.6742 256.424 19.9745C256.842 20.3124 257.191 20.6878 257.469 21.1008C257.748 21.5137 257.957 22.0018 258.096 22.5649C258.236 23.1281 258.305 23.7287 258.305 24.3294C258.305 25.0427 258.236 25.7185 258.061 26.3191C257.887 26.9198 257.643 27.5205 257.26 28.0461C256.912 28.6092 256.459 29.0597 255.902 29.4727C255.344 29.8857 254.578 30.2611 253.602 30.6741L254.369 32.7013C254.578 33.2645 254.822 33.8276 255.066 34.4283L257.016 39.0835C257.121 39.2712 257.26 39.6842 257.504 40.2849C255.867 40.2474 254.787 40.2474 254.229 40.2474C253.533 40.2474 252.383 40.2474 250.746 40.2849C250.606 39.7218 250.293 38.7081 249.91 37.2064C249.736 36.5682 249.596 36.0802 249.492 35.7798C249.248 35.029 248.899 33.9778 248.447 32.6263L246.949 28.1212C247.471 28.2338 247.994 28.2714 248.516 28.2714C249.213 28.2714 249.875 28.1587 250.467 27.9335C251.059 27.7082 251.477 27.3328 251.791 26.8447C252.07 26.3567 252.244 25.8686 252.244 25.3055C252.244 24.855 252.139 24.442 251.895 24.1042C251.686 23.7663 251.303 23.5035 250.815 23.3533C250.328 23.2031 249.596 23.0905 248.586 23.0905C248.238 23.0905 247.889 23.0905 247.506 23.1281C247.123 23.1281 246.705 23.1656 246.217 23.1656C246.078 25.343 245.973 27.971 245.869 31.087C245.764 34.203 245.695 37.244 245.66 40.2474C244.022 40.2098 242.977 40.2098 242.455 40.2098C241.897 40.2098 240.852 40.2098 239.389 40.2474L239.494 40.3224ZM270.289 18.2851C271.857 18.2851 273.355 18.5104 274.818 18.9609C276.281 19.4114 277.535 20.1247 278.615 21.1383C279.695 22.1144 280.531 23.2782 281.053 24.5922C281.576 25.9062 281.855 27.3703 281.855 29.0597C281.855 30.8242 281.576 32.4761 280.984 33.9402C280.392 35.4419 279.521 36.6808 278.406 37.732C277.291 38.7832 275.967 39.534 274.4 40.0221C272.867 40.5101 271.23 40.7354 269.557 40.7354C267.885 40.7354 266.318 40.5101 264.785 40.0221C263.252 39.534 261.963 38.7832 260.813 37.732C259.699 36.6808 258.898 35.517 258.41 34.2406C257.922 32.9641 257.713 31.5375 257.713 29.9608C257.713 27.6331 258.201 25.6058 259.211 23.8789C260.221 22.1144 261.684 20.7629 263.635 19.7868C265.586 18.8107 267.781 18.3226 270.254 18.3226L270.289 18.2851ZM270.01 23.053C268.896 23.053 267.85 23.3533 266.945 23.954C266.039 24.5547 265.342 25.3806 264.855 26.4318C264.367 27.483 264.123 28.6468 264.123 29.8481C264.123 30.9744 264.332 31.988 264.785 32.9266C265.238 33.8652 265.9 34.5785 266.84 35.1041C267.746 35.6296 268.721 35.8924 269.732 35.8924C270.812 35.8924 271.822 35.5921 272.728 35.029C273.633 34.4283 274.33 33.6024 274.818 32.5512C275.305 31.5 275.514 30.3737 275.514 29.2099C275.514 28.0836 275.305 27.0325 274.853 26.0939C274.4 25.1553 273.773 24.4045 272.902 23.8789C272.066 23.3533 271.09 23.0905 270.01 23.0905V23.053ZM282.621 18.6605C284.154 18.6981 285.234 18.6981 285.861 18.6981C286.627 18.6981 287.672 18.6981 288.996 18.6605L288.543 25.4181C288.474 26.6946 288.404 27.8584 288.334 28.9847C288.299 30.1109 288.265 30.8618 288.265 31.2747C288.265 32.0631 288.334 32.7389 288.439 33.302C288.543 33.8276 288.752 34.2781 289.031 34.6535C289.31 35.029 289.728 35.3293 290.215 35.517C290.738 35.7047 291.26 35.8174 291.783 35.8174C292.271 35.8174 292.689 35.7423 293.107 35.6296C293.42 35.517 293.734 35.3668 293.978 35.1416C294.187 34.9539 294.396 34.7286 294.57 34.4658C294.779 34.1655 294.953 33.7901 295.127 33.3396C295.267 32.9266 295.406 32.3635 295.476 31.6877C295.545 31.0119 295.685 29.4352 295.824 26.9574C295.963 24.855 296.033 22.9403 296.103 21.2134C296.172 19.524 296.207 18.6981 296.277 18.6981C297.74 18.6981 298.924 18.6981 299.761 18.6981H302.756L302.06 29.9608C302.06 30.186 302.06 30.3362 302.06 30.4863C302.025 32.7013 301.886 34.2406 301.677 35.1416C301.468 36.0426 301.119 36.831 300.631 37.5068C300.144 38.1825 299.412 38.7832 298.472 39.3088C297.531 39.8344 296.451 40.2098 295.267 40.4351C294.082 40.6603 292.863 40.7729 291.644 40.7729C290.529 40.7729 289.484 40.6979 288.474 40.5101C287.533 40.36 286.697 40.0972 285.93 39.7593C285.164 39.4214 284.537 39.046 283.945 38.633C283.422 38.2201 283.039 37.8071 282.76 37.3941C282.482 36.9812 282.273 36.4931 282.099 35.8924C281.924 35.2542 281.82 34.5409 281.82 33.7901C281.82 33.5273 281.82 33.1519 281.855 32.6263C281.889 32.1007 281.924 31.3874 281.994 30.4113L282.168 27.8584C282.203 27.1826 282.273 26.2065 282.308 24.9301L282.586 18.6605H282.621ZM302.756 40.2849L303.035 36.2303L303.418 28.3089L303.593 22.7151C303.593 22.1144 303.593 21.5137 303.593 20.9131C303.593 20.4625 303.593 19.7117 303.593 18.6981C304.882 18.7356 305.927 18.7356 306.693 18.7356C307.459 18.7356 308.47 18.6981 309.793 18.6605C311.117 18.623 312.232 18.5854 313.138 18.5854C314.461 18.5854 315.437 18.6605 316.064 18.8482C316.691 19.0359 317.283 19.2987 317.771 19.7117C318.293 20.0871 318.712 20.5376 319.025 21.0632C319.373 21.5888 319.617 22.1895 319.757 22.8277C319.931 23.5035 320 24.1792 320 24.855C320 26.2816 319.687 27.558 319.06 28.7594C318.433 29.9232 317.527 30.8242 316.377 31.3874C315.228 31.9505 313.939 32.2508 312.476 32.2508C311.953 32.2508 311.326 32.1758 310.629 32.0631C310.56 31.5751 310.42 30.8618 310.177 29.9232C309.968 28.9847 309.793 28.2713 309.654 27.7833C310.072 27.8584 310.525 27.8959 311.013 27.8959C311.988 27.8959 312.72 27.6331 313.207 27.1075C313.695 26.5819 313.939 25.9813 313.939 25.2304C313.939 24.855 313.869 24.5547 313.765 24.2543C313.66 23.9915 313.486 23.7287 313.242 23.5786C312.998 23.3908 312.755 23.2782 312.476 23.2407C312.197 23.2031 311.884 23.1656 311.5 23.1656C311.152 23.1656 310.769 23.1656 310.386 23.2031L309.166 23.2782C309.027 25.3055 308.957 27.5956 308.888 30.0734C308.783 34.616 308.713 37.319 308.713 38.2576V40.3224L305.787 40.2849C305.369 40.2849 304.359 40.2849 302.722 40.3224L302.756 40.2849Z" fill="white"/>
<path d="M141.499 56.5704H142.587V52.3711L144.583 54.9421H144.764L146.714 52.3282V56.5704H147.803V50.6999H146.759L144.719 53.4423L142.587 50.6999H141.499V56.5704ZM151.158 56.5704H154.832V55.5848H152.247V54.0851H154.469V53.0995H152.247V51.6426H154.741V50.657H151.158V56.5275V56.5704ZM159.593 53.528L157.144 56.5704H158.414L160.772 53.528V56.5704H161.861V53.528L164.219 56.5704H165.489L163.04 53.4852L165.398 50.6999H164.128L161.861 53.4852V50.6999H160.772V53.4852L158.505 50.6999H157.235L159.593 53.528ZM167.257 57.6417H168.3V56.6132H172.654V57.6417H173.697V55.6277H172.835V50.7427H168.98L168.935 51.8997C168.844 54.0851 168.255 55.3277 167.983 55.6277H167.302V57.6417H167.257ZM169.887 52.7139L169.978 51.6855H171.701V55.6277H169.116C169.343 55.3706 169.797 54.2136 169.887 52.7139ZM181.089 50.7427H180L178.504 54.0422L176.463 50.7427H175.239L178.005 55.0278L177.914 55.242C177.778 55.4991 177.597 55.6705 177.279 55.6705C177.098 55.6705 177.007 55.6277 176.826 55.542L176.463 56.399C176.644 56.5275 177.007 56.6132 177.325 56.6132C178.095 56.6132 178.594 56.1419 179.002 55.242L181.134 50.7427H181.089ZM187.664 56.6132H188.752V50.7427H187.664V53.1424H184.807V50.7427H183.719V56.6132H184.807V54.0851H187.664V56.6132ZM191.337 56.6132H192.426L193.061 55.1135H195.736L196.371 56.6132H197.55L194.92 50.6999H193.968L191.337 56.6132ZM194.421 52.0711L195.328 54.1708H193.514L194.421 52.0711ZM201.223 56.6132V54.4707C201.495 54.5136 201.858 54.5136 202.04 54.5136C203.536 54.5136 204.307 53.6137 204.307 52.5853C204.307 51.5998 203.718 50.6999 201.904 50.6999C201.45 50.6999 200.498 50.6999 200.135 50.6999V56.5704H201.223V56.6132ZM201.994 51.6855C202.72 51.6855 203.128 51.9854 203.128 52.5853C203.128 53.2281 202.629 53.528 201.994 53.528C201.768 53.528 201.495 53.528 201.223 53.4852V51.6855C201.495 51.6855 201.768 51.6855 201.994 51.6855ZM206.711 53.6566C206.711 55.4991 208.116 56.6989 209.93 56.6989C211.79 56.6989 213.195 55.4134 213.195 53.6566C213.195 51.814 211.79 50.6142 209.93 50.6142C208.026 50.6142 206.711 51.9426 206.711 53.6566ZM207.844 53.6566C207.844 52.4568 208.751 51.5998 209.93 51.5998C211.109 51.5998 212.016 52.4568 212.016 53.6566C212.016 54.8135 211.245 55.7134 209.93 55.7134C208.751 55.7134 207.844 54.8135 207.844 53.6566ZM215.1 57.6417H216.143V56.6132H220.497V57.6417H221.54V55.6277H220.678V50.7427H216.823L216.778 51.8997C216.687 54.0851 216.098 55.3277 215.826 55.6277H215.145V57.6417H215.1ZM217.73 52.7139L217.821 51.6855H219.544V55.6277H216.959C217.186 55.3706 217.64 54.2136 217.73 52.7139ZM228.161 56.6132H229.249V50.7427H228.161V53.1424H225.304V50.7427H224.215V56.6132H225.304V54.0851H228.161V56.6132ZM237.502 56.6132H238.591V50.7427H237.502V56.6132ZM234.328 53.6566C235.099 53.6566 235.552 53.9994 235.552 54.5993C235.552 55.2849 235.144 55.6277 234.328 55.6277C234.101 55.6277 233.92 55.6277 233.738 55.5848V53.6566C233.965 53.6137 234.192 53.6137 234.328 53.6137V53.6566ZM233.738 50.7427H232.65V56.6132C233.013 56.6132 233.602 56.6132 234.192 56.6132C235.779 56.6132 236.686 55.8419 236.686 54.5993C236.686 53.4423 235.961 52.7139 234.419 52.7139C234.237 52.7139 234.011 52.7139 233.738 52.7567V50.7427ZM241.992 56.6132H245.665V55.6277H243.08V54.1279H245.302V53.1424H243.08V51.6855H245.574V50.6999H241.992V56.5704V56.6132ZM256.413 56.6132H257.501V50.7427H252.558V56.6132H253.647V51.7283H256.413V56.6132ZM260.902 56.6132H264.576V55.6277H261.991V54.1279H264.213V53.1424H261.991V51.6855H264.485V50.6999H260.902V56.5704V56.6132ZM268.748 56.6132V54.4707C269.02 54.5136 269.383 54.5136 269.564 54.5136C271.061 54.5136 271.831 53.6137 271.831 52.5853C271.831 51.5998 271.242 50.6999 269.428 50.6999C268.974 50.6999 268.022 50.6999 267.659 50.6999V56.5704H268.748V56.6132ZM269.519 51.6855C270.244 51.6855 270.652 51.9854 270.652 52.5853C270.652 53.2281 270.154 53.528 269.519 53.528C269.292 53.528 269.02 53.528 268.748 53.4852V51.6855C269.02 51.6855 269.292 51.6855 269.519 51.6855ZM274.734 56.6132H278.407V55.6277H275.822V54.1279H278.044V53.1424H275.822V51.6855H278.316V50.6999H274.734V56.5704V56.6132ZM281.491 56.6132C281.854 56.6561 282.67 56.6561 283.214 56.6561C284.529 56.6561 285.527 56.099 285.527 54.8992C285.527 54.1279 285.028 53.6566 284.438 53.528C284.983 53.3138 285.345 52.8853 285.345 52.1997C285.345 51.3855 284.801 50.7427 283.305 50.7427C282.67 50.7427 281.854 50.7856 281.491 50.7856V56.6561V56.6132ZM283.35 54.0851C284.03 54.0851 284.438 54.3422 284.438 54.8135C284.438 55.3706 284.03 55.6705 283.305 55.6705C282.987 55.6705 282.715 55.6277 282.579 55.6277V54.0851H283.35ZM283.259 51.6855C283.849 51.6855 284.257 51.9426 284.257 52.4139C284.257 52.971 283.849 53.1852 283.35 53.1852H282.624V51.6855C282.806 51.6855 283.078 51.6426 283.305 51.6426L283.259 51.6855ZM288.157 53.6994C288.157 55.542 289.563 56.7418 291.377 56.7418C293.236 56.7418 294.642 55.4563 294.642 53.6994C294.642 51.8569 293.236 50.657 291.377 50.657C289.472 50.657 288.157 51.9854 288.157 53.6994ZM289.291 53.6994C289.291 52.4996 290.198 51.6426 291.377 51.6426C292.556 51.6426 293.463 52.4996 293.463 53.6994C293.463 54.8564 292.692 55.7562 291.377 55.7562C290.198 55.7562 289.291 54.8564 289.291 53.6994ZM299.131 56.7418C300.265 56.7418 301.308 56.099 301.308 54.9849C301.308 54.2993 300.991 53.7851 300.22 53.5709V53.528C300.809 53.2281 301.036 52.671 301.036 52.2425C301.036 51.2141 300.265 50.6142 299.177 50.6142C298.315 50.6142 297.59 50.9998 297.136 51.5141L297.771 52.1997C298.134 51.7712 298.497 51.5569 299.041 51.5569C299.54 51.5569 299.948 51.814 299.948 52.2854C299.948 52.7567 299.494 53.0567 299.041 53.0567H298.451V54.0422H299.086C299.812 54.0422 300.174 54.3422 300.174 54.8135C300.174 55.4134 299.63 55.6705 299.041 55.6705C298.542 55.6705 297.952 55.3706 297.544 54.9421L296.955 55.6277C297.272 56.099 297.998 56.6132 299.086 56.6132L299.131 56.7418ZM304.392 56.6561H305.48V53.6137L308.02 56.6561H309.426L306.705 53.528L309.244 50.7856H307.929L305.48 53.5709V50.7856H304.392V56.6561ZM312.963 56.6561L316.228 52.4996V56.6561H317.316V50.7856H316.364L313.099 54.9421V50.7856H312.01V56.6561H312.963Z" fill="white"/>
</svg>
