<svg width="140" height="110" viewBox="0 0 140 110" fill="none" xmlns="http://www.w3.org/2000/svg">
<path d="M81.754 60.302C81.754 60.302 85.5282 63.8722 85.5531 67.7485C85.5531 67.7485 83.4037 67.57 81.6041 65.4534C79.8045 63.3112 79.5296 63.1582 79.6295 62.3166C79.6295 62.3166 80.2794 61.6791 83.6786 65.1218C83.6786 65.1218 83.4536 63.1582 79.2546 60.4295C79.2546 60.4295 80.2794 58.7974 79.3546 57.1142C79.3546 57.1142 78.1799 59.3074 77.2051 59.7409C76.8802 59.8174 77.2551 58.0833 76.7302 57.4712C76.7302 57.4712 75.7555 60.0469 74.9306 59.6134C74.9306 59.6134 75.0806 58.3638 74.6307 57.3692C74.6307 57.3692 73.531 59.5369 73.1561 59.3584C72.7812 59.1799 72.0563 58.1343 72.6812 56.6297C73.306 55.1251 76.1804 55.3036 77.9549 55.6606C77.9549 55.6606 76.7552 54.0285 73.7809 54.564C73.7809 54.564 74.3058 52.7534 77.83 53.595C77.83 53.595 77.58 52.7024 75.7305 52.2688C75.7305 52.2688 78.0549 50.5347 78.3548 48.9536C78.3548 48.9536 76.2054 49.0556 75.7055 48.3416C75.2056 47.6275 77.4301 48.316 79.6045 46.3269C79.6045 46.3269 76.2803 46.6074 76.2303 45.9699C76.1804 45.3323 79.3296 44.2102 79.8795 43.5472C79.8795 43.5472 74.3808 44.9498 72.0313 41.0735C72.0313 41.0735 71.1565 42.9351 69.6069 43.5472V36.3301C69.6069 36.3301 70.3067 35.8456 71.9813 39.1609L72.1813 39.3649C72.1813 39.3649 72.0063 37.6052 72.6062 37.4777C73.2061 37.3502 73.306 38.4213 75.1056 38.5233C76.9302 38.5998 79.0797 36.6362 78.6298 34.0605C78.6298 34.0605 80.2294 35.3611 78.7797 38.1408C77.3051 40.895 75.0056 40.436 75.0056 40.436C75.0056 40.436 78.1549 41.8896 80.9542 36.9932C80.9542 36.9932 81.5041 40.0534 77.88 41.5835C77.88 41.5835 81.0042 41.2775 82.1789 38.4978C83.3537 35.7436 82.4539 34.29 81.929 33.2954C81.4041 32.3008 83.0037 32.3008 82.7538 30.8217C82.7538 30.8217 82.129 31.5103 80.7793 31.4083C79.4046 31.3063 75.1306 31.0512 73.381 32.7854C73.381 32.7854 73.306 30.7197 76.9302 30.2352C80.5543 29.7506 84.2285 28.4245 83.7286 23.5792C83.7286 23.5792 82.4289 25.2878 80.8542 25.2878C79.2796 25.2878 76.5803 25.5428 75.5805 24.8543C75.5805 24.8543 76.4553 26.9199 80.5293 26.5629C80.6793 27.2004 79.6295 28.9856 76.3053 29.3681C72.2563 29.8526 70.4817 32.6579 70.4817 32.6579H69.9568C69.9568 32.6579 69.6569 30.1077 65.8078 29.5976C61.9587 29.0876 61.0839 27.634 61.0839 27.634C61.0839 27.634 63.8333 28.093 65.7078 27.9655C67.5824 27.838 69.9818 29.4191 69.9818 29.4191C69.9818 29.4191 68.5072 27.0474 63.6583 26.1804C63.6583 26.1804 66.0327 25.0838 71.0066 26.6139C71.0066 26.6139 69.207 24.9053 66.8326 24.5482C66.8326 24.5482 67.7573 24.3952 73.281 24.3952C73.281 24.3952 71.0316 23.4772 67.9573 23.4262C64.883 23.3752 62.7085 24.5482 61.5088 24.5992C60.3091 24.6502 57.9596 25.2368 55.9601 22.8651C55.9601 22.8651 55.3603 24.9818 56.2101 26.4864C57.0849 27.991 57.9846 30.4392 56.335 33.1169C55.9851 33.6524 55.5352 33.6014 55.7602 32.6324C55.9601 31.6633 56.31 29.0621 54.4105 26.4354C52.5109 23.8087 49.9615 24.0127 49.3117 24.0127C48.6618 23.9872 45.5126 23.7067 44.7628 21.3605C44.7628 21.3605 45.7375 20.876 49.4367 22.4061C49.4367 22.4061 48.3369 21.2585 44.4378 19.7539C42.0134 18.8358 40.8387 18.2493 40.7137 16.7957C40.7137 16.7957 42.5383 18.3003 46.1624 18.8358C46.1624 18.8358 38.9391 14.169 35.9898 11.5167C35.9898 11.5167 38.2143 15.5206 38.1643 16.1071C38.1143 16.6936 32.9655 11.9758 28.9915 9.6041C25.0174 7.23242 22.1181 5.98283 22.1181 5.98283C22.1181 5.98283 31.9408 12.6133 32.7406 14.1434C33.5404 15.6736 23.5678 9.04306 21.0433 7.05391C18.4939 5.09026 13.1952 0.882439 10.6708 0.576416C10.6708 0.576416 10.2959 3.73866 14.3699 6.82439C18.469 9.91013 18.8939 10.7262 18.8939 10.7262C18.8939 10.7262 7.17161 6.77339 4.42226 5.34528C4.42226 5.34528 2.44773 7.86997 6.57176 10.5222C10.7208 13.1744 14.9698 15.2655 14.9698 15.2655C14.9698 15.2655 4.64721 14.475 0.748128 12.6643C0.748128 12.6643 -1.17642 14.169 1.14803 16.3876C3.47249 18.6063 16.1195 21.08 16.1195 21.08C16.1195 21.08 6.07187 21.641 2.87263 21.1565C2.87263 21.1565 2.1478 24.1402 6.84669 25.9764C11.5456 27.8125 22.643 27.6085 22.643 27.6085L11.4456 29.4446C11.4456 29.4446 11.7455 33.5249 18.469 33.5759C18.469 33.5759 22.468 33.5759 23.2928 33.5759C24.1176 33.5759 22.718 34.545 20.4185 35.2591C19.9436 35.9221 21.4183 37.9623 25.1424 37.8348C27.7168 37.8348 28.3666 37.6817 28.3666 37.6817L25.9422 39.8749C25.9422 39.8749 26.4171 42.2466 30.4411 42.1956C32.7656 42.1191 33.3155 42.0426 33.3155 42.0426C33.3155 42.0426 32.1657 44.5928 34.5152 44.9753C36.8646 45.3578 38.2893 44.9753 38.2893 44.9753C38.2893 44.9753 37.4645 47.449 38.4143 48.01C39.364 48.5711 42.0884 48.7751 42.9382 48.5456C42.9382 48.5456 42.2134 51.5038 43.913 52.1158C45.6126 52.7024 47.962 51.0958 48.3619 50.5602C48.3619 50.5602 48.7618 53.8245 50.5114 54.2325C52.261 54.666 54.0356 52.8809 54.0356 52.8809C54.0356 52.8809 55.3603 54.768 56.8849 54.8956C58.4095 55.0486 59.8092 52.5749 59.8092 52.5749C59.8092 52.5749 59.9592 53.952 61.1339 54.717V55.1251C61.1339 55.1251 59.3343 55.6351 59.4343 57.5478C59.5093 59.4604 59.5843 60.0724 59.5843 60.0724C59.5843 60.0724 53.7106 63.3877 53.5107 66.5244C53.4607 68.3861 53.4607 68.6156 53.4607 68.6156C53.4607 68.6156 54.6854 68.8706 56.535 67.978V70.7578C56.535 70.7578 58.4845 71.1913 59.7342 69.7887V72.3134C59.7342 72.3134 62.4586 72.7214 63.6333 71.5228C63.6333 71.5228 63.5583 73.0784 65.008 73.767C65.008 73.767 67.2325 73.1294 68.2822 71.4973C68.2822 71.4973 69.107 73.461 70.7566 74.0475C70.7566 74.0475 72.3563 73.5885 73.631 71.1403C73.631 71.1403 75.1556 72.8234 77.0052 73.2059C77.0052 73.2059 78.3048 72.2114 78.6548 70.4772C78.6548 70.4772 80.3544 71.4973 82.6538 71.0638C82.6538 71.0638 83.2037 70.1967 83.3037 68.5391C83.3037 68.5391 84.4284 69.0236 86.6779 68.9216C86.6779 68.9216 87.8276 63.7702 81.804 60.251L81.754 60.302ZM74.0808 34.8765L74.1308 34.851C74.2308 35.4886 74.8057 35.9731 75.4805 35.8711C75.9554 35.7946 76.3553 35.4121 76.4553 34.953C76.5303 34.596 76.4553 34.239 76.2553 33.984L77.48 34.035C77.48 34.035 77.9049 35.5651 76.8802 36.5852C75.9054 37.5797 74.2558 37.4777 73.381 36.3811C73.1311 36.0751 73.0061 35.7946 73.0061 35.7946L74.0559 34.902L74.0808 34.8765ZM46.4874 27.3025C46.4874 27.3025 45.6625 28.9856 43.3631 28.9856C41.0636 28.9856 40.7637 27.8125 40.7637 27.8125C40.8387 27.787 46.5123 27.328 46.5123 27.328L46.4874 27.3025ZM44.5878 24.7523C44.5878 24.7523 43.1381 26.1804 40.8387 26.1804C38.5392 26.1804 36.5897 24.7523 36.5897 24.7523H44.5878ZM40.8387 22.2276C40.8387 22.2276 39.1641 22.9161 36.7646 22.8906C35.115 22.8906 33.5154 22.2276 32.4407 20.9525C31.8908 20.3149 31.6658 19.8049 31.6658 19.8049C31.6658 19.8049 35.5899 21.947 40.8137 22.2276H40.8387ZM37.3395 18.9633C31.6908 18.8613 30.941 16.3621 30.941 16.3621C33.5154 15.6736 37.4395 18.9633 37.3395 18.9633ZM25.7672 15.342C25.7672 15.342 17.4442 14.2965 15.1447 11.1597C15.1447 11.1597 22.0431 12.3838 25.7672 15.342ZM10.6208 16.5406C10.6208 16.5406 20.8184 15.7246 28.5666 19.4734C28.5666 19.4734 23.8677 20.4679 10.6208 16.5406ZM11.4956 23.3497C11.4956 23.3497 24.7675 22.2786 29.8913 23.3497C29.8913 23.3497 30.5411 24.5482 23.1179 24.5227C15.6946 24.4972 11.4956 23.3497 11.4956 23.3497ZM16.8443 30.2607C16.8443 30.2607 21.3183 30.0567 26.867 28.6541C32.4157 27.2514 34.0903 27.2259 34.0903 27.2259C34.0903 27.2259 31.8908 29.7506 27.4418 30.4647C23.0179 31.1787 18.369 31.0512 16.8443 30.2607ZM26.942 33.8055C26.942 33.8055 29.2414 32.2753 33.1655 31.1532C37.0896 30.0312 37.4895 29.2916 37.4895 29.2916C37.4895 29.2916 35.7649 32.2753 32.1157 33.0659C28.4666 33.8565 26.967 33.8055 26.967 33.8055H26.942ZM32.6906 37.6052C32.8156 35.3101 40.1638 32.8874 40.1638 32.8874C36.7646 38.0388 32.6906 37.6052 32.6906 37.6052ZM35.44 42.5271C36.8646 39.7729 43.1381 35.8966 43.1381 35.8966C43.1381 35.8966 42.8632 37.3757 40.1638 39.8749C37.4645 42.3741 35.415 42.5271 35.415 42.5271H35.44ZM40.4388 46.3269C40.4388 46.3269 40.6637 43.9807 42.5383 42.5271C44.4128 41.0735 45.6376 38.7273 45.6376 38.7273C44.9127 43.7512 40.4388 46.3269 40.4388 46.3269ZM45.1877 49.6166C45.1877 49.6166 44.8877 47.4235 46.2624 45.5108C47.6371 43.5727 48.3869 40.436 48.3869 40.436C48.7118 46.8114 45.1877 49.6166 45.1877 49.6166ZM44.7878 30.9747C44.7878 30.9747 46.9123 28.9091 48.7118 30.7452C48.7118 30.7452 46.2624 31.9693 44.7878 30.9747ZM50.7114 51.5293C49.6866 49.0046 51.8361 45.9444 51.8361 45.9444C53.1108 48.5201 50.7114 51.5293 50.7114 51.5293ZM53.1108 28.4755C50.8363 27.532 49.0617 25.4663 49.0617 25.4663C49.0617 25.4663 50.6614 25.0583 52.061 26.0274C53.4607 26.9709 53.0858 28.501 53.0858 28.501L53.1108 28.4755ZM58.9844 67.06H57.8097C57.8097 67.06 57.6347 64.8923 59.3093 64.3058C59.3093 64.3058 58.5845 66.0144 59.0094 67.06H58.9844ZM76.7052 50.0502C76.7052 50.0502 74.5557 51.9118 71.9064 49.9482C71.9064 49.9482 74.4558 48.4946 76.7052 50.0502ZM75.7804 46.9389C75.7804 46.9389 74.1308 48.0355 72.9811 47.653C71.8314 47.2705 71.4565 46.7094 71.4565 46.7094C71.4565 46.7094 74.6307 45.2048 75.7804 46.9389ZM71.7314 48.3926C71.7314 48.3926 70.4067 50.4327 68.3572 49.1066C68.3572 49.1066 69.382 47.2705 71.7314 48.3926ZM71.6564 52.2178C71.2565 52.4984 70.5567 52.8044 69.7569 52.1668C69.5819 52.0138 69.5819 51.7588 69.7569 51.6058C70.1318 51.3253 70.8066 51.0193 71.6564 51.5803C71.8564 51.7333 71.8814 52.0393 71.6564 52.1923V52.2178ZM66.1577 31.8673C67.9323 33.1169 67.1075 34.6725 67.1075 34.6725C64.783 31.8418 61.8337 31.8673 61.8337 31.8673C61.8837 31.0257 64.3831 30.6177 66.1577 31.8673ZM67.2575 55.7371C66.6826 54.003 65.108 54.003 64.3331 54.1305C63.9582 54.1815 63.7333 53.7225 64.0082 53.4674C64.6081 52.9064 66.4826 53.0594 67.2575 54.003C68.2822 55.2526 67.6074 56.2982 67.2575 55.7626V55.7371ZM61.8337 34.0095L63.0584 33.9585C62.8835 34.2135 62.7835 34.5705 62.8585 34.9275C62.9585 35.4121 63.3584 35.7691 63.8333 35.8456C64.5081 35.9476 65.083 35.4631 65.1829 34.8255L65.2329 34.851L66.2827 35.7436C66.2827 35.7436 66.1577 36.0241 65.9078 36.3301C65.033 37.4267 63.3834 37.5287 62.4086 36.5342C61.4088 35.5141 61.8087 33.984 61.8087 33.984L61.8337 34.0095ZM58.9094 36.1261C58.9094 36.1261 59.8592 41.507 65.8828 40.589C65.8828 40.589 66.6826 41.5835 63.5083 41.9661C60.3091 42.3486 57.4098 38.1663 58.9094 36.1261ZM55.7352 52.5239C54.0356 51.1213 55.3103 48.5201 55.3103 48.5201C56.9599 49.9227 55.7352 52.5239 55.7352 52.5239ZM55.9101 42.5271C54.6604 37.5797 56.1601 36.4576 56.1601 36.4576C56.2101 39.0588 57.1848 43.7512 59.8092 47.1685C62.4336 50.5857 62.0587 52.2434 62.0587 52.2434C59.8092 47.3725 56.9099 46.5054 55.9101 42.5271ZM62.5836 70.2987H60.9839C60.9839 70.2987 60.9839 70.1457 60.9839 68.9726C60.9839 67.7995 62.5836 66.2439 62.5836 66.2439V70.3242V70.2987ZM62.0837 57.7518C62.1587 59.6644 61.9337 60.404 61.9337 60.404C59.9092 58.2363 61.1339 55.8901 62.3586 55.8901C63.5833 55.8901 63.5083 55.8646 64.4831 55.8901C65.4579 55.9156 66.9575 55.9666 66.9075 57.4712C66.8576 58.9759 65.5079 59.9959 65.5079 59.9959C64.2832 58.8228 64.5831 57.2417 64.5831 57.2417C63.7833 57.7263 63.7833 59.9959 63.7833 59.9959C62.5836 59.4604 62.0837 57.7518 62.0837 57.7518ZM65.9578 62.1126C66.4576 63.2857 64.3831 63.7192 64.3831 63.7192C63.9582 61.6536 65.9578 62.1126 65.9578 62.1126ZM64.883 72.6194C64.883 72.6194 64.883 72.6194 64.5331 70.4007C64.1832 68.1821 66.1077 66.2439 66.1077 66.2439L65.9578 70.5027C66.1827 69.6867 67.7823 69.1256 67.7823 69.1256C67.8073 72.6704 64.883 72.6194 64.883 72.6194ZM67.9323 64.8923C67.2325 62.2401 69.307 62.3166 69.307 62.3166C70.1568 64.1018 67.9323 64.8923 67.9323 64.8923ZM72.7062 69.6612C72.5062 71.7523 70.8566 72.9254 70.8566 72.9254C68.0323 70.5792 69.9318 66.1164 69.9318 66.1164C70.0318 68.6666 71.0816 71.0383 71.0816 71.0383C72.0313 69.7122 71.7314 67.111 71.7314 67.111C71.7314 67.111 72.8561 68.1056 72.7062 69.6867V69.6612ZM72.4062 65.5809C70.2817 64.2293 70.7566 62.2146 70.7566 62.2146C72.1313 63.8467 72.1813 63.5917 72.1813 63.5917C72.7812 63.0052 73.1561 61.373 73.1561 61.373C73.9059 63.3112 72.4062 65.5809 72.4062 65.5809ZM75.2806 62.4696C75.5305 62.6736 75.8804 62.5716 76.0054 62.2911C76.2053 61.8576 76.3303 61.424 76.3303 61.424C76.9552 62.1381 76.1304 64.2038 75.7305 64.1783C74.6557 64.1528 74.1308 62.0361 74.1308 62.0361C74.5307 61.9341 74.9556 62.1891 75.2806 62.4441V62.4696ZM76.8302 72.3389C73.0061 70.4262 73.7309 65.4789 73.7309 65.4789C75.6555 67.621 76.4053 70.2987 76.4053 70.2987C76.7552 69.4572 76.3303 67.162 76.3303 67.162C79.0047 70.0437 76.8302 72.3389 76.8302 72.3389ZM76.5303 64.5608C78.5548 65.1728 80.8043 68.0801 80.8043 68.0801C80.1294 65.7339 77.9299 64.1018 77.9299 64.1018C82.5039 64.3313 82.5039 70.5537 82.5039 70.5537C77.9049 69.1511 76.5053 64.5608 76.5053 64.5608H76.5303Z" fill="#091B3B"/>
<path d="M130.493 15.9037C132.843 16.0567 132.743 17.8673 136.167 17.8163C139.566 17.7398 139.691 13.5575 139.691 13.5575C139.691 13.5575 137.067 13.736 133.193 13.991C129.318 14.2206 122.82 15.3171 122.82 15.3171C124.52 14.8836 128.419 13.022 128.419 13.022C128.419 13.022 124.819 12.3334 124.969 11.1603C125.119 9.98724 127.519 10.9818 128.694 11.4663C129.868 11.9509 133.567 11.7979 135.092 9.19668C136.617 6.59548 135.542 5.19287 135.542 5.19287C135.542 5.19287 134.042 5.47339 130.168 7.18202C122.22 10.6758 119.596 10.9308 119.596 10.9308C120.62 10.1147 120.97 9.29868 120.97 9.29868C120.97 9.29868 117.421 10.5483 114.097 12.4354C110.748 14.3481 110.748 14.042 110.873 13.8125C114.797 10.8033 116.471 8.89065 116.471 8.89065C110.048 13.0475 106.199 14.8581 106.974 13.991C107.724 13.124 112.622 9.17117 114.947 8.10009C117.271 7.02901 118.696 8.50812 122.045 8.30411C125.394 8.12559 126.644 5.47339 126.644 5.47339C126.644 5.47339 123.62 7.13102 121.295 6.46797C118.971 5.77942 117.996 5.72841 116.796 6.26395C111.573 8.78865 103.275 14.8326 102.275 15.7762C101.3 16.7197 100.35 17.1023 101.1 16.1842C101.825 15.2661 102.775 12.7669 102.775 12.7669C100.025 13.4555 95.7014 18.0714 95.7014 18.0714C97.301 18.0714 99.0006 16.9748 99.0006 16.9748C99.0006 16.9748 98.2258 19.1934 95.3014 19.729C92.3771 20.2645 92.3771 20.7746 92.3771 20.7746C93.8518 20.5195 96.1513 20.494 96.3762 20.9531C95.2515 22.2537 91.0774 23.0187 90.2026 22.9422C89.3279 22.8657 90.9025 21.3356 90.9025 21.3356C89.0029 22.2027 84.654 25.9004 84.7289 27.9151C84.8039 29.9298 83.3543 30.4143 83.3543 30.4143C83.3543 30.4143 84.0291 31.1794 84.554 35.4637C85.2038 43.2673 78.2305 51.5809 78.2305 51.5809C78.5304 52.346 81.3797 55.1512 81.3797 55.1512L81.3297 52.2185H81.7546C82.2295 53.7741 84.7039 55.3042 84.7039 55.3042C85.6287 54.8707 86.1036 53.5701 86.1036 53.5701C87.6533 54.4371 90.1527 54.2331 90.1527 54.2331C91.2274 53.4426 91.1024 50.6883 91.1024 50.6883C92.752 51.7084 94.1517 51.4534 94.1517 51.4534C94.1517 51.4534 90.9775 48.0616 89.4778 45.0269C87.9782 41.9667 88.4031 40.0285 88.4031 40.0285C91.9272 48.1892 93.7018 48.9797 93.7018 48.9797C91.1774 45.2819 90.1277 40.054 90.9025 41.4821C91.6523 42.9102 94.8515 47.8576 95.8513 49.1837C96.8511 50.5098 95.7014 50.9689 95.7014 50.9689C98.6257 51.1474 96.9011 48.2912 96.9011 48.2912C98.8506 49.0307 99.5504 48.2912 99.5504 48.2912C93.7518 46.608 92.2772 39.9265 92.2772 39.9265C94.0267 42.2472 98.4507 46.9396 98.2508 46.2C98.0508 45.4604 94.2517 39.901 95.2015 40.6661C96.1762 41.4056 100.325 45.6645 101.025 46.353C101.725 47.0416 100.45 47.7301 100.45 47.7301C100.45 47.7301 100.25 48.0106 102.225 47.5771C104.199 47.1436 101.975 45.2054 101.975 45.2054C103.475 45.3074 103.774 44.8229 103.774 44.8229C96.3012 42.4257 95.4764 37.8609 95.4764 37.8609C101.575 43.3183 102.8 42.4512 102.8 42.4512C97.9008 39.136 97.8258 36.9938 97.8258 36.9938C103.849 42.1707 106.349 42.1707 106.424 42.7827C106.524 43.3948 104.874 44.2618 104.874 44.2618C106.499 44.4914 107.649 43.5223 108.248 42.9102C108.848 42.2982 108.223 42.0687 105.624 40.8446C100.75 38.6514 100.725 36.9938 100.725 36.9938C102.1 38.0139 105.799 38.8044 105.799 38.8044C101.1 36.0757 99.4255 32.6075 99.4255 32.6075C99.4255 32.6075 100.4 33.7806 104.399 35.7187C108.398 37.6568 109.548 37.5038 109.773 38.1669C109.973 38.8299 107.549 39.7735 107.549 39.7735C107.549 39.7735 108.148 40.1305 110.773 39.8245C113.397 39.5185 113.872 37.6058 113.872 37.6058C110.798 36.9938 105.199 34.1886 103.4 32.8115C101.6 31.4599 103.25 31.7659 105.174 32.837C107.074 33.8826 110.648 34.5201 110.648 34.5201C110.648 34.5201 107.524 32.9645 104.399 31.3069C101.3 29.6492 102.85 29.5982 104.399 30.4143C105.949 31.2304 112.472 33.4235 113.322 33.704C114.172 33.9846 111.948 35.5657 111.948 35.5657C111.948 35.5657 112.172 35.6932 115.572 36.1522C118.946 36.6113 119.621 34.3161 119.621 34.3161C112.947 32.939 110.723 31.2304 110.723 31.2304C113.772 32.0464 118.296 31.9699 118.296 31.9699C118.296 31.9699 112.822 30.3378 109.923 29.4452C107.024 28.5527 104.274 27.15 106.874 27.8131C109.448 28.4761 115.897 29.3432 115.897 29.3432C115.897 29.3432 111.998 27.6601 110.398 27.099C108.798 26.538 108.998 25.6199 109.373 25.926C109.773 26.232 111.798 26.6655 115.697 26.9715C119.621 27.2776 126.469 27.1245 126.469 27.1245C126.469 27.1245 122.995 26.487 120.346 26.283C111.498 25.4669 112.772 24.5998 112.772 24.5998L122.395 24.6764C120.346 23.6308 119.796 23.7073 114.972 23.3758C110.148 23.0442 110.823 22.2027 110.823 22.2027L124.12 22.9422C126.019 26.742 131.218 26.6655 131.218 26.6655C131.218 26.6655 129.543 25.7984 128.894 24.7274C128.244 23.6818 126.894 22.7892 126.894 22.7892C126.894 22.7892 127.844 22.6362 129.243 23.0952C131.593 24.0643 131.143 25.7474 133.417 25.8239C135.667 25.9005 136.842 24.2173 136.842 23.0952C136.842 21.9732 136.842 21.5906 136.842 21.5906H121.52C125.394 21.0041 127.819 19.882 127.819 19.882C113.747 21.0041 116.097 20.1115 116.097 20.1115C118.496 20.1625 124.769 18.1734 124.769 18.1734C121.42 18.3264 110.748 18.9129 110.748 18.9129C114.922 17.4338 125.594 16.3117 125.594 16.3117C129.093 20.9276 133.592 19.372 133.592 19.372C133.592 19.372 131.418 18.7344 129.668 17.3573C127.894 15.9802 128.244 15.8782 130.593 16.0312L130.493 15.9037ZM84.629 53.6721C82.4795 52.7285 83.4292 46.251 83.4292 46.251C83.4043 48.5717 84.454 51.1474 84.9539 52.244C85.4788 53.3405 84.629 53.6976 84.629 53.6976V53.6721ZM89.9277 23.8858C91.1774 23.8093 92.727 23.8858 92.727 23.8858C92.727 23.8858 90.0027 25.926 87.3533 26.2065C87.3533 26.2065 88.678 23.9623 89.9527 23.8858H89.9277ZM88.903 47.1436C90.5276 50.6118 89.7528 53.6721 89.7528 53.6721C85.7537 51.4789 86.0286 46.9141 86.0286 46.9141C86.9034 49.4387 88.628 51.1474 88.628 51.1474C88.3281 49.1582 86.7035 43.1398 86.7035 43.1398C86.7035 43.1398 87.2783 43.6753 88.903 47.1436ZM87.2284 29.5217C86.0786 29.6747 86.0036 29.5217 86.0036 29.5217C86.0286 29.4962 87.1534 27.8896 87.8032 27.8131C88.4531 27.7366 89.5278 27.6856 89.5278 27.6856C89.5278 27.6856 88.3781 29.3687 87.2284 29.5217ZM90.2276 34.0356C89.1029 33.704 88.603 32.0464 88.603 32.0464C88.603 32.0464 90.2776 33.4745 92.4271 33.296C92.4271 33.296 91.3274 34.3926 90.2026 34.0611L90.2276 34.0356ZM95.2015 31.9189C92.2522 32.2504 90.6525 30.1338 90.6525 30.1338C92.3771 31.1028 96.976 30.4653 96.976 30.4653C96.976 30.4653 96.1013 31.6639 95.2015 31.9189ZM99.0756 28.8587C97.001 28.9352 95.5514 28.9097 93.1769 27.5326C93.1769 27.5326 97.101 28.1956 99.0756 27.7111C101.05 27.2266 101.25 27.048 101.25 27.048C101.25 27.048 101.15 28.7822 99.0756 28.8587ZM102.55 25.926C99.0006 26.589 95.2764 25.2884 95.2764 25.2884C97.7009 24.8294 98.5507 25.1609 101.625 24.8294C104.724 24.4978 104.899 23.5543 104.899 23.5543C105.649 24.3193 104.599 25.5179 102.55 25.926ZM103.974 22.7637C101.775 22.7637 98.6756 22.7637 98.6756 22.7637C98.6756 22.7637 99.1255 22.4067 103.175 21.7946C107.224 21.2081 107.948 19.0914 107.948 19.0914C109.098 21.7181 106.174 22.7637 103.974 22.7637ZM106.899 18.0969C104.974 18.8619 102.4 18.9129 102.4 18.9129C102.4 18.9129 105.999 17.0513 107.649 16.0312C109.298 15.0111 108.848 17.3063 106.899 18.0969ZM115.022 15.4957C112.572 16.3882 110.373 16.2607 110.373 16.2607C110.373 16.2607 114.997 14.042 117.971 12.4609C121.82 10.3953 122.995 13.787 125.444 13.5065C125.444 13.5065 120.845 16.3372 115.697 16.2862L120.945 13.7105C120.945 13.7105 117.471 14.6286 115.022 15.5212V15.4957Z" fill="#091B3B"/>
<path d="M121.144 28.4763H128.617C128.617 28.4763 128.242 31.7406 125.168 31.8936C122.093 32.0466 122.793 30.0319 121.144 28.4763Z" fill="#091B3B"/>
<path d="M116.671 28.1178C116.671 28.1178 119.42 27.4547 120.495 30.2854C120.745 30.8975 121.095 31.484 121.57 31.9176C121.695 32.0451 121.795 32.0961 121.795 32.0961C121.795 32.0961 120.295 32.3256 118.845 30.1834C117.671 28.4748 116.671 28.1178 116.671 28.1178Z" fill="#091B3B"/>
<path d="M120.119 4.65682C120.119 4.65682 125.743 2.82068 128.367 0.5C128.367 0.5 129.742 4.19778 125.943 4.65682C123.518 4.65682 120.119 4.65682 120.119 4.65682Z" fill="#091B3B"/>
<path d="M9.8416 79.5366C11.0684 79.5366 12.2407 79.7081 13.3857 80.0511C14.5307 80.3942 15.5121 80.9373 16.3572 81.709C17.2023 82.4522 17.8566 83.3383 18.2656 84.3388C18.6745 85.3393 18.8926 86.454 18.8926 87.7403C18.8926 89.0838 18.6745 90.3415 18.211 91.4563C17.7476 92.5997 17.066 93.543 16.1936 94.3433C15.3213 95.1437 14.2853 95.7154 13.0585 96.087C11.859 96.4586 10.5777 96.6301 9.26909 96.6301C7.96051 96.6301 6.73372 96.4586 5.53419 96.087C4.33466 95.7154 3.32597 95.1437 2.42632 94.3433C1.55393 93.543 0.926911 92.6569 0.545243 91.685C0.163574 90.7131 0 89.6269 0 88.4264C0 86.6541 0.381669 85.1106 1.17227 83.7957C1.96287 82.4522 3.10787 81.4232 4.63455 80.68C6.16122 79.9368 7.87872 79.5652 9.81433 79.5652L9.8416 79.5366ZM9.6235 83.1668C8.75111 83.1668 7.93325 83.3955 7.22443 83.8529C6.51562 84.3102 5.97038 84.9391 5.58872 85.7394C5.20705 86.5398 5.01621 87.4259 5.01621 88.3406C5.01621 89.1981 5.17978 89.9699 5.53419 90.6845C5.8886 91.3991 6.40658 91.9422 7.14265 92.3424C7.85146 92.7426 8.61481 92.9427 9.4054 92.9427C10.2505 92.9427 11.0411 92.714 11.7499 92.2853C12.4587 91.8279 13.004 91.199 13.3857 90.3987C13.7673 89.5983 13.9309 88.7408 13.9309 87.8547C13.9309 86.9971 13.7673 86.1968 13.4129 85.4822C13.0585 84.7676 12.5678 84.1959 11.8862 83.7957C11.232 83.3955 10.4686 83.1954 9.6235 83.1954V83.1668ZM21.8914 96.3157L21.5097 94.0861C21.428 93.5716 21.2644 92.8284 21.0736 91.8851L19.1925 82.881L18.5109 79.8511C19.4651 79.8796 20.2557 79.8796 20.8554 79.8796C21.537 79.8796 22.3003 79.8796 23.2 79.8511C23.4181 81.1659 23.5817 82.1092 23.6907 82.7381L24.6449 87.5974C24.8357 88.655 25.0811 89.9128 25.2992 91.4277L25.6808 89.7412L27.0439 84.1673L27.9981 79.8511C29.0613 79.8796 29.9337 79.8796 30.6698 79.8796C31.4604 79.8796 32.3328 79.8796 33.3142 79.8511L34.0503 84.9391L35.059 91.3991L35.4952 89.6269C35.577 89.3125 35.6587 88.9981 35.7678 88.6836C35.8496 88.3692 36.0677 87.7403 36.3403 86.8256L37.7307 82.195L38.3849 79.8511C39.3118 79.8511 40.0752 79.8511 40.6749 79.8511C41.3565 79.8511 42.1198 79.8511 42.965 79.8511L38.5212 93.8574L37.8124 96.3157C36.6674 96.2871 35.6587 96.2871 34.8136 96.2871C33.914 96.2871 32.9053 96.2871 31.8148 96.3157L31.5422 94.6578L30.5335 88.9123C30.479 88.5693 30.4244 88.1977 30.3972 87.8547C30.3699 87.4831 30.2881 86.9114 30.2336 86.1396L29.8247 88.0262C29.7156 88.4549 29.6338 88.8551 29.5248 89.2839L27.671 96.3157C26.526 96.2871 25.5445 96.2871 24.7812 96.2871C23.9633 96.2871 23.0092 96.2871 21.8914 96.3157ZM42.3652 96.3157C42.556 94.4291 42.6923 92.8569 42.7741 91.6564C42.9377 89.484 43.0468 87.283 43.1285 85.1392C43.2103 82.9667 43.2376 81.2231 43.2376 79.8225C44.2735 79.8511 45.2004 79.8511 46.0183 79.8511C46.5635 79.8511 47.3541 79.8511 48.3628 79.8225L48.0902 84.1959L47.7358 91.0275L47.6813 92.714C48.9899 92.7426 49.8623 92.7426 50.2712 92.7426C52.2886 92.7426 53.8153 92.714 54.8512 92.6569L54.5786 96.2871C52.5612 96.2585 50.6529 96.2585 48.8263 96.2585C46.3455 96.2585 44.1918 96.2585 42.3379 96.2871L42.3652 96.3157ZM69.4909 86.7399C70.5269 86.7685 71.5356 86.7685 72.4898 86.7685C74.0982 86.7685 75.3795 86.7685 76.3064 86.7399C76.1974 87.8261 76.1156 89.3982 76.0066 91.3991C75.8975 93.4286 75.843 94.9436 75.8157 95.9726C74.9433 96.1442 74.2073 96.2585 73.6348 96.3442C73.0622 96.43 72.3534 96.4872 71.5356 96.5443C70.7177 96.6015 70.0089 96.6301 69.3546 96.6301C68.3187 96.6301 67.2827 96.5443 66.274 96.3728C65.2653 96.2013 64.3657 95.9155 63.5751 95.5153C62.7845 95.1151 62.1302 94.572 61.5849 93.9146C61.067 93.2285 60.658 92.4282 60.3581 91.5135C60.0583 90.5988 59.922 89.6269 59.922 88.655C59.922 87.0257 60.3036 85.5108 61.0942 84.1101C61.8576 82.7095 62.9753 81.5947 64.4474 80.7943C65.8923 79.9654 67.7734 79.5652 70.0634 79.5652C71.7537 79.5652 73.6075 79.7653 75.6521 80.1941C75.6521 81.366 75.7067 82.6523 75.7885 84.0815C75.2432 83.8814 74.7798 83.7385 74.4526 83.6528C74.0982 83.567 73.7165 83.4527 73.2531 83.3669C72.7896 83.2812 72.3534 83.224 71.9445 83.1954C71.5356 83.1668 71.1539 83.1383 70.854 83.1383C70.0089 83.1383 69.2183 83.2526 68.455 83.5098C67.7189 83.7671 67.0646 84.1387 66.5194 84.6818C65.9741 85.1963 65.5652 85.8252 65.3198 86.5684C65.0472 87.3116 64.9109 88.0834 64.9109 88.8837C64.9109 89.7127 65.0745 90.4559 65.3744 91.0847C65.6742 91.7422 66.165 92.2281 66.8465 92.5711C67.5008 92.9141 68.2641 93.0856 69.082 93.0856C69.7635 93.0856 70.5269 92.9713 71.3175 92.7712L71.4265 90.1986C70.9358 90.17 70.6359 90.17 70.5541 90.17H69.3273L69.4091 88.6836C69.4091 88.5121 69.4364 88.2834 69.4364 87.9976C69.4637 87.6832 69.4637 87.283 69.4637 86.7685L69.4909 86.7399ZM76.6881 96.3157C76.8244 94.8864 76.9607 93.6287 77.0425 92.4853C77.1243 91.342 77.2061 90.0271 77.2606 88.5407C77.3151 87.0543 77.3696 85.4536 77.3969 83.7957C77.4242 82.1378 77.4514 80.8229 77.4514 79.8225C78.4056 79.8511 79.1689 79.8511 79.7687 79.8511C80.3685 79.8511 81.1318 79.8225 82.0042 79.7939C82.8766 79.7653 83.749 79.7367 84.5668 79.7367C85.5483 79.7367 86.4206 79.7653 87.184 79.8511C87.7565 79.9082 88.2745 80.0226 88.7379 80.1941C89.2014 80.3656 89.6103 80.5942 89.9375 80.8229C90.2646 81.0802 90.5372 81.366 90.7553 81.6805C90.9734 81.9949 91.137 82.3665 91.246 82.7952C91.3551 83.224 91.4096 83.6814 91.4096 84.1387C91.4096 84.6818 91.3551 85.1963 91.2188 85.6537C91.0824 86.111 90.8916 86.5684 90.5917 86.9686C90.3191 87.3973 89.9647 87.7403 89.5285 88.0548C89.0923 88.3692 88.4926 88.655 87.7292 88.9695L88.329 90.513C88.4926 90.9418 88.6834 91.3706 88.8742 91.8279L90.4009 95.3724C90.4827 95.5153 90.5917 95.8297 90.7826 96.2871C89.5013 96.2585 88.6561 96.2585 88.2199 96.2585C87.6747 96.2585 86.775 96.2585 85.4937 96.2871C85.3847 95.8583 85.1393 95.0865 84.8394 93.9432C84.7031 93.4572 84.5941 93.0856 84.5123 92.8569C84.3215 92.2853 84.0489 91.4849 83.6945 90.4559L82.5222 87.0257C82.9311 87.1115 83.34 87.1401 83.749 87.1401C84.2942 87.1401 84.8122 87.0543 85.2757 86.8828C85.7391 86.7113 86.0662 86.4255 86.3116 86.0539C86.5297 85.6823 86.666 85.3107 86.666 84.8819C86.666 84.5389 86.5842 84.2245 86.3934 83.9672C86.2298 83.7099 85.9299 83.5099 85.5483 83.3955C85.1666 83.2812 84.5941 83.1954 83.8035 83.1954C83.5309 83.1954 83.2582 83.1954 82.9584 83.224C82.6585 83.224 82.3313 83.2526 81.9497 83.2526C81.8406 84.9105 81.7588 86.9114 81.677 89.2839C81.5953 91.6564 81.5407 93.9717 81.5135 96.2585C80.2322 96.2299 79.4143 96.2299 79.0054 96.2299C78.5692 96.2299 77.7513 96.2299 76.6063 96.2585L76.6881 96.3157ZM100.788 79.5366C102.015 79.5366 103.187 79.7081 104.332 80.0511C105.477 80.3942 106.458 80.9373 107.303 81.709C108.148 82.4522 108.803 83.3383 109.212 84.3388C109.621 85.3393 109.839 86.454 109.839 87.7403C109.839 89.0838 109.621 90.3415 109.157 91.4563C108.694 92.5997 108.012 93.543 107.14 94.3433C106.267 95.1437 105.231 95.7154 104.005 96.087C102.805 96.4586 101.524 96.6301 100.215 96.6301C98.9067 96.6301 97.6799 96.4586 96.4803 96.087C95.2808 95.7154 94.2721 95.1437 93.3725 94.3433C92.5001 93.543 91.8731 92.6569 91.4914 91.685C91.1097 90.7131 90.9461 89.6269 90.9461 88.4264C90.9461 86.6541 91.3278 85.1106 92.1184 83.7957C92.909 82.4522 94.054 81.4232 95.5807 80.68C97.1074 79.9368 98.8249 79.5652 100.76 79.5652L100.788 79.5366ZM100.57 83.1668C99.6973 83.1668 98.8794 83.3955 98.1706 83.8529C97.4618 84.3102 96.9165 84.9391 96.5349 85.7394C96.1532 86.5398 95.9624 87.4259 95.9624 88.3406C95.9624 89.1981 96.1259 89.9699 96.4803 90.6845C96.8347 91.3991 97.3527 91.9422 98.0888 92.3424C98.7976 92.7426 99.561 92.9427 100.352 92.9427C101.197 92.9427 101.987 92.714 102.696 92.2853C103.405 91.8279 103.95 91.199 104.332 90.3987C104.713 89.5983 104.877 88.7408 104.877 87.8547C104.877 86.9971 104.713 86.1968 104.359 85.4822C104.005 84.7676 103.514 84.1959 102.832 83.7957C102.178 83.3955 101.415 83.1954 100.57 83.1954V83.1668ZM110.438 79.8225C111.638 79.8511 112.483 79.8511 112.974 79.8511C113.574 79.8511 114.391 79.8511 115.427 79.8225L115.073 84.9677C115.019 85.9395 114.964 86.8256 114.909 87.6832C114.882 88.5407 114.855 89.1124 114.855 89.4268C114.855 90.0271 114.909 90.5416 114.991 90.9704C115.073 91.3706 115.237 91.7136 115.455 91.9994C115.673 92.2853 116 92.5139 116.382 92.6569C116.791 92.7998 117.199 92.8855 117.608 92.8855C117.99 92.8855 118.317 92.8284 118.644 92.7426C118.89 92.6569 119.135 92.5425 119.326 92.371C119.489 92.2281 119.653 92.0566 119.789 91.8565C119.953 91.6278 120.089 91.342 120.226 90.999C120.335 90.6845 120.444 90.2558 120.498 89.7412C120.553 89.2267 120.662 88.0262 120.771 86.1396C120.88 84.5389 120.934 83.0811 120.989 81.7662C121.043 80.4799 121.071 79.8511 121.125 79.8511C122.27 79.8511 123.197 79.8511 123.851 79.8511H126.196L125.651 88.4264C125.651 88.5979 125.651 88.7122 125.651 88.8265C125.623 90.513 125.514 91.685 125.351 92.371C125.187 93.057 124.915 93.6573 124.533 94.1718C124.151 94.6863 123.579 95.1437 122.843 95.5439C122.107 95.9441 121.262 96.2299 120.335 96.4014C119.408 96.5729 118.454 96.6587 117.499 96.6587C116.627 96.6587 115.809 96.6015 115.019 96.4586C114.282 96.3442 113.628 96.1441 113.028 95.8869C112.429 95.6296 111.938 95.3438 111.474 95.0294C111.066 94.7149 110.766 94.4005 110.548 94.0861C110.329 93.7716 110.166 93.4001 110.03 92.9427C109.893 92.4568 109.811 91.9137 109.811 91.342C109.811 91.1419 109.811 90.856 109.839 90.4559C109.866 90.0557 109.893 89.5126 109.948 88.7694L110.084 86.8256C110.111 86.3111 110.166 85.5679 110.193 84.5961L110.411 79.8225H110.438ZM126.196 96.2871L126.414 93.2L126.714 87.1687L126.85 82.9096C126.85 82.4522 126.85 81.9949 126.85 81.5375C126.85 81.1945 126.85 80.6228 126.85 79.8511C127.859 79.8796 128.677 79.8796 129.277 79.8796C129.876 79.8796 130.667 79.8511 131.703 79.8225C132.739 79.7939 133.611 79.7653 134.32 79.7653C135.356 79.7653 136.119 79.8225 136.61 79.9654C137.101 80.1083 137.564 80.3084 137.946 80.6228C138.355 80.9087 138.682 81.2517 138.927 81.6519C139.2 82.052 139.391 82.5094 139.5 82.9953C139.636 83.5098 139.691 84.0244 139.691 84.5389C139.691 85.6251 139.445 86.597 138.955 87.5117C138.464 88.3978 137.755 89.0838 136.855 89.5126C135.956 89.9413 134.947 90.17 133.802 90.17C133.393 90.17 132.902 90.1128 132.357 90.0271C132.303 89.6555 132.194 89.1124 132.003 88.3978C131.839 87.6832 131.703 87.1401 131.594 86.7685C131.921 86.8256 132.275 86.8542 132.657 86.8542C133.42 86.8542 133.993 86.6541 134.375 86.254C134.756 85.8538 134.947 85.3964 134.947 84.8247C134.947 84.5389 134.893 84.3102 134.811 84.0815C134.729 83.8814 134.593 83.6814 134.402 83.567C134.211 83.4241 134.02 83.3383 133.802 83.3098C133.584 83.2812 133.339 83.2526 133.039 83.2526C132.766 83.2526 132.466 83.2526 132.166 83.2812L131.212 83.3383C131.103 84.8819 131.049 86.6255 130.994 88.5121C130.912 91.9708 130.858 94.0289 130.858 94.7435V96.3157L128.568 96.2871C128.241 96.2871 127.45 96.2871 126.169 96.3157L126.196 96.2871Z" fill="#FF5000"/>
<path d="M0 108.684H0.851723V105.487L2.41324 107.445H2.55518L4.0812 105.454V108.684H4.93294V104.215H4.1167L2.5197 106.303L0.851723 104.215H0V108.684ZM7.5591 108.684H10.4337V107.934H8.41084V106.792H10.1498V106.042H8.41084V104.932H10.3627V104.182H7.5591V108.652V108.684ZM14.16 106.368L12.2436 108.684H13.2373L15.0827 106.368V108.684H15.9345V106.368L17.7799 108.684H18.7736L16.8572 106.335L18.7026 104.215H17.7089L15.9345 106.335V104.215H15.0827V106.335L13.3083 104.215H12.3146L14.16 106.368ZM20.1576 109.5H20.9739V108.717H24.3808V109.5H25.197V107.967H24.5228V104.247H21.5062L21.4707 105.128C21.3997 106.792 20.9384 107.738 20.7255 107.967H20.1931V109.5H20.1576ZM22.216 105.748L22.287 104.965H23.6355V107.967H21.6127C21.7901 107.771 22.145 106.89 22.216 105.748ZM30.9817 104.247H30.13L28.9588 106.759L27.3619 104.247H26.4037L28.5685 107.51L28.4975 107.673C28.391 107.869 28.2491 107.999 28.0007 107.999C27.8587 107.999 27.7877 107.967 27.6458 107.901L27.3619 108.554C27.5038 108.652 27.7877 108.717 28.0361 108.717C28.6394 108.717 29.0298 108.358 29.3492 107.673L31.0172 104.247H30.9817ZM36.1276 108.717H36.9793V104.247H36.1276V106.074H33.8918V104.247H33.0401V108.717H33.8918V106.792H36.1276V108.717ZM39.0022 108.717H39.8539L40.3507 107.575H42.4446L42.9414 108.717H43.8641L41.8058 104.215H41.0605L39.0022 108.717ZM41.4154 105.259L42.1252 106.857H40.7056L41.4154 105.259ZM46.7387 108.717V107.086C46.9517 107.118 47.2356 107.118 47.3775 107.118C48.5487 107.118 49.152 106.433 49.152 105.65C49.152 104.9 48.6906 104.215 47.2711 104.215C46.9162 104.215 46.1709 104.215 45.887 104.215V108.684H46.7387V108.717ZM47.342 104.965C47.9099 104.965 48.2293 105.193 48.2293 105.65C48.2293 106.14 47.8389 106.368 47.342 106.368C47.1646 106.368 46.9517 106.368 46.7387 106.335V104.965C46.9517 104.965 47.1646 104.965 47.342 104.965ZM51.0329 106.466C51.0329 107.869 52.133 108.782 53.5526 108.782C55.0076 108.782 56.1078 107.804 56.1078 106.466C56.1078 105.063 55.0076 104.149 53.5526 104.149C52.0621 104.149 51.0329 105.161 51.0329 106.466ZM51.9201 106.466C51.9201 105.552 52.6299 104.9 53.5526 104.9C54.4753 104.9 55.1851 105.552 55.1851 106.466C55.1851 107.347 54.5818 108.032 53.5526 108.032C52.6299 108.032 51.9201 107.347 51.9201 106.466ZM57.5983 109.5H58.4145V108.717H61.8215V109.5H62.6377V107.967H61.9634V104.247H58.9469L58.9114 105.128C58.8404 106.792 58.3791 107.738 58.1661 107.967H57.6338V109.5H57.5983ZM59.6566 105.748L59.7276 104.965H61.0762V107.967H59.0533C59.2308 107.771 59.5857 106.89 59.6566 105.748ZM67.8191 108.717H68.6708V104.247H67.8191V106.074H65.5833V104.247H64.7316V108.717H65.5833V106.792H67.8191V108.717ZM75.1298 108.717H75.9815V104.247H75.1298V108.717ZM72.6455 106.466C73.2489 106.466 73.6038 106.727 73.6038 107.184C73.6038 107.706 73.2843 107.967 72.6455 107.967C72.4681 107.967 72.3261 107.967 72.1842 107.934V106.466C72.3616 106.433 72.5391 106.433 72.6455 106.433V106.466ZM72.1842 104.247H71.3325V108.717C71.6164 108.717 72.0777 108.717 72.5391 108.717C73.7812 108.717 74.491 108.13 74.491 107.184C74.491 106.303 73.9231 105.748 72.7165 105.748C72.5746 105.748 72.3971 105.748 72.1842 105.781V104.247ZM78.6432 108.717H81.5177V107.967H79.4949V106.825H81.2338V106.074H79.4949V104.965H81.4468V104.215H78.6432V108.684V108.717ZM89.9286 108.717H90.7803V104.247H86.912V108.717H87.7638V104.998H89.9286V108.717ZM93.442 108.717H96.3166V107.967H94.2937V106.825H96.0327V106.074H94.2937V104.965H96.2456V104.215H93.442V108.684V108.717ZM99.5815 108.717V107.086C99.7945 107.118 100.078 107.118 100.22 107.118C101.391 107.118 101.995 106.433 101.995 105.65C101.995 104.9 101.533 104.215 100.114 104.215C99.759 104.215 99.0137 104.215 98.7298 104.215V108.684H99.5815V108.717ZM100.185 104.965C100.753 104.965 101.072 105.193 101.072 105.65C101.072 106.14 100.682 106.368 100.185 106.368C100.007 106.368 99.7945 106.368 99.5815 106.335V104.965C99.7945 104.965 100.007 104.965 100.185 104.965ZM104.266 108.717H107.141V107.967H105.118V106.825H106.857V106.074H105.118V104.965H107.07V104.215H104.266V108.684V108.717ZM109.554 108.717C109.838 108.75 110.477 108.75 110.902 108.75C111.932 108.75 112.712 108.326 112.712 107.412C112.712 106.825 112.322 106.466 111.861 106.368C112.287 106.205 112.57 105.879 112.57 105.357C112.57 104.737 112.145 104.247 110.973 104.247C110.477 104.247 109.838 104.28 109.554 104.28V108.75V108.717ZM111.009 106.792C111.541 106.792 111.861 106.988 111.861 107.347C111.861 107.771 111.541 107.999 110.973 107.999C110.725 107.999 110.512 107.967 110.406 107.967V106.792H111.009ZM110.938 104.965C111.399 104.965 111.719 105.161 111.719 105.52C111.719 105.944 111.399 106.107 111.009 106.107H110.441V104.965C110.583 104.965 110.796 104.932 110.973 104.932L110.938 104.965ZM114.771 106.498C114.771 107.901 115.871 108.815 117.29 108.815C118.745 108.815 119.846 107.836 119.846 106.498C119.846 105.096 118.745 104.182 117.29 104.182C115.8 104.182 114.771 105.193 114.771 106.498ZM115.658 106.498C115.658 105.585 116.368 104.932 117.29 104.932C118.213 104.932 118.923 105.585 118.923 106.498C118.923 107.379 118.32 108.065 117.29 108.065C116.368 108.065 115.658 107.379 115.658 106.498ZM123.359 108.815C124.246 108.815 125.062 108.326 125.062 107.477C125.062 106.955 124.814 106.564 124.211 106.401V106.368C124.672 106.14 124.85 105.715 124.85 105.389C124.85 104.606 124.246 104.149 123.395 104.149C122.72 104.149 122.152 104.443 121.798 104.835L122.294 105.357C122.578 105.03 122.862 104.867 123.288 104.867C123.678 104.867 123.998 105.063 123.998 105.422C123.998 105.781 123.643 106.009 123.288 106.009H122.827V106.759H123.324C123.891 106.759 124.175 106.988 124.175 107.347C124.175 107.804 123.749 107.999 123.288 107.999C122.898 107.999 122.436 107.771 122.117 107.445L121.656 107.967C121.904 108.326 122.472 108.717 123.324 108.717L123.359 108.815ZM127.476 108.75H128.327V106.433L130.315 108.75H131.415L129.286 106.368L131.273 104.28H130.244L128.327 106.401V104.28H127.476V108.75ZM134.183 108.75L136.738 105.585V108.75H137.59V104.28H136.845L134.29 107.445V104.28H133.438V108.75H134.183Z" fill="#091B3B"/>
</svg>
