<svg width="148" height="80" viewBox="0 0 148 80" fill="none" xmlns="http://www.w3.org/2000/svg">
<path d="M86.5303 65.0466C86.5303 65.0466 90.5249 68.9306 90.5514 73.1475C90.5514 73.1475 88.2763 72.9533 86.3716 70.6507C84.4669 68.3203 84.1759 68.1538 84.2817 67.2383C84.2817 67.2383 84.9695 66.5447 88.5673 70.29C88.5673 70.29 88.3292 68.1538 83.8849 65.1853C83.8849 65.1853 84.9695 63.4098 83.9907 61.5788C83.9907 61.5788 82.7473 63.9646 81.7156 64.4363C81.3717 64.5195 81.7685 62.633 81.213 61.9672C81.213 61.9672 80.1813 64.7692 79.3083 64.2976C79.3083 64.2976 79.467 62.9382 78.9908 61.8562C78.9908 61.8562 77.8268 64.2143 77.43 64.0201C77.0332 63.8259 76.266 62.6885 76.9274 61.0517C77.5888 59.4148 80.631 59.609 82.5093 59.9974C82.5093 59.9974 81.2394 58.2219 78.0914 58.8045C78.0914 58.8045 78.6469 56.8347 82.377 57.7503C82.377 57.7503 82.1124 56.7793 80.1548 56.3076C80.1548 56.3076 82.6151 54.4211 82.9325 52.7011C82.9325 52.7011 80.6575 52.812 80.1284 52.0352C79.5993 51.2584 81.9537 52.0075 84.2552 49.8436C84.2552 49.8436 80.7368 50.1487 80.6839 49.4552C80.631 48.7616 83.9642 47.5409 84.5462 46.8196C84.5462 46.8196 78.7263 48.3455 76.2396 44.1286C76.2396 44.1286 75.3137 46.1538 73.6735 46.8196V38.9684C73.6735 38.9684 74.4142 38.4413 76.1867 42.0478L76.3983 42.2698C76.3983 42.2698 76.2131 40.3555 76.848 40.2168C77.4829 40.0781 77.5888 41.2433 79.4935 41.3543C81.4246 41.4375 83.6997 39.3013 83.2235 36.4993C83.2235 36.4993 84.9166 37.9142 83.3822 40.9381C81.8214 43.9344 79.3876 43.435 79.3876 43.435C79.3876 43.435 82.7209 45.0163 85.6838 39.6897C85.6838 39.6897 86.2658 43.0188 82.4299 44.6834C82.4299 44.6834 85.7367 44.3505 86.98 41.3265C88.2234 38.3303 87.271 36.749 86.7155 35.667C86.16 34.585 87.853 34.585 87.5885 32.9759C87.5885 32.9759 86.9271 33.725 85.4986 33.614C84.0436 33.5031 79.5199 33.2256 77.6681 35.1121C77.6681 35.1121 77.5888 32.865 81.4246 32.3379C85.2605 31.8108 89.1493 30.3681 88.6202 25.097C88.6202 25.097 87.2446 26.9558 85.578 26.9558C83.9113 26.9558 81.0543 27.2332 79.9961 26.4841C79.9961 26.4841 80.922 28.7313 85.2341 28.3429C85.3928 29.0365 84.2817 30.9785 80.7633 31.3946C76.4777 31.9217 74.5994 34.9734 74.5994 34.9734H74.0439C74.0439 34.9734 73.7264 32.1992 69.6525 31.6443C65.5785 31.0894 64.6526 29.5081 64.6526 29.5081C64.6526 29.5081 67.5626 30.0075 69.5466 29.8688C71.5307 29.73 74.0703 31.4501 74.0703 31.4501C74.0703 31.4501 72.5095 28.87 67.3774 27.9268C67.3774 27.9268 69.8905 26.7338 75.155 28.3984C75.155 28.3984 73.2502 26.5396 70.7371 26.1512C70.7371 26.1512 71.7159 25.9848 77.5623 25.9848C77.5623 25.9848 75.1814 24.986 71.9275 24.9305C68.6736 24.8751 66.3721 26.1512 65.1023 26.2067C63.8325 26.2622 61.3458 26.9003 59.2294 24.3202C59.2294 24.3202 58.5945 26.6228 59.494 28.2597C60.4199 29.8965 61.3722 32.5598 59.6263 35.4728C59.2559 36.0554 58.7797 35.9999 59.0178 34.9457C59.2294 33.8915 59.5998 31.0617 57.5893 28.2042C55.5788 25.3467 52.8804 25.5686 52.1926 25.5686C51.5048 25.5409 48.1715 25.2357 47.3779 22.6834C47.3779 22.6834 48.4096 22.1563 52.3249 23.8208C52.3249 23.8208 51.1609 22.5724 47.034 20.9356C44.4679 19.9368 43.2246 19.2988 43.0923 17.7174C43.0923 17.7174 45.0235 19.3542 48.8593 19.9368C48.8593 19.9368 41.2141 14.8599 38.0924 11.9747C38.0924 11.9747 40.4469 16.3303 40.394 16.9684C40.3411 17.6064 34.8915 12.474 30.6852 9.89395C26.479 7.31387 23.4103 5.95447 23.4103 5.95447C23.4103 5.95447 33.8068 13.1676 34.6534 14.8322C35.4999 16.4967 24.9446 9.2836 22.2728 7.11967C19.5744 4.98347 13.9661 0.405912 11.2942 0.072998C11.2942 0.072998 10.8974 3.5131 15.2094 6.86998C19.548 10.2269 19.9977 11.1146 19.9977 11.1146C19.9977 11.1146 7.5906 6.8145 4.68062 5.2609C4.68062 5.2609 2.59073 8.00744 6.95569 10.8927C11.3471 13.7779 15.8443 16.0528 15.8443 16.0528C15.8443 16.0528 4.91871 15.1928 0.791836 13.2231C0.791836 13.2231 -1.24515 14.8599 1.2151 17.2735C3.67536 19.6872 17.0612 22.3782 17.0612 22.3782C17.0612 22.3782 6.42661 22.9885 3.04045 22.4614C3.04045 22.4614 2.27328 25.7073 7.24669 27.7048C12.2201 29.7023 23.9658 29.4804 23.9658 29.4804L12.1143 31.4778C12.1143 31.4778 12.4317 35.9167 19.548 35.9722C19.548 35.9722 23.7806 35.9722 24.6536 35.9722C25.5266 35.9722 24.0452 37.0264 21.6114 37.8032C21.1088 38.5245 22.6696 40.7439 26.6113 40.6052C29.3361 40.6052 30.0239 40.4388 30.0239 40.4388L27.4578 42.8246C27.4578 42.8246 27.9604 45.4047 32.2196 45.3492C34.6798 45.266 35.2618 45.1828 35.2618 45.1828C35.2618 45.1828 34.0449 47.9571 36.5316 48.3732C39.0183 48.7893 40.5262 48.3732 40.5262 48.3732C40.5262 48.3732 39.6532 51.0642 40.6585 51.6746C41.6638 52.2849 44.5473 52.5069 45.4467 52.2572C45.4467 52.2572 44.6796 55.4753 46.4785 56.1412C48.2774 56.7793 50.7641 55.0315 51.1873 54.4489C51.1873 54.4489 51.6106 57.9999 53.4624 58.4438C55.3142 58.9155 57.1925 56.9735 57.1925 56.9735C57.1925 56.9735 58.5945 59.0264 60.2083 59.1651C61.822 59.3316 63.3034 56.6405 63.3034 56.6405C63.3034 56.6405 63.4621 58.1387 64.7055 58.9709V59.4148C64.7055 59.4148 62.8008 59.9697 62.9066 62.0504C62.986 64.1311 63.0653 64.7969 63.0653 64.7969C63.0653 64.7969 56.8486 68.4035 56.6369 71.8158C56.584 73.8411 56.584 74.0908 56.584 74.0908C56.584 74.0908 57.8803 74.3682 59.8379 73.3972V76.4212C59.8379 76.4212 61.9013 76.8928 63.224 75.3669V78.1135C63.224 78.1135 66.1076 78.5574 67.3509 77.2534C67.3509 77.2534 67.2716 78.9457 68.8059 79.6948C68.8059 79.6948 71.1603 79.0012 72.2714 77.2257C72.2714 77.2257 73.1444 79.3619 74.8904 80C74.8904 80 76.5835 79.5006 77.9327 76.8373C77.9327 76.8373 79.5464 78.6683 81.504 79.0845C81.504 79.0845 82.8796 78.0025 83.25 76.116C83.25 76.116 85.0489 77.2257 87.4827 76.7541C87.4827 76.7541 88.0647 75.8108 88.1705 74.0075C88.1705 74.0075 89.3609 74.5346 91.7418 74.4237C91.7418 74.4237 92.9587 68.8196 86.5832 64.9911L86.5303 65.0466ZM78.4088 37.3871L78.4617 37.3593C78.5676 38.0529 79.176 38.58 79.8903 38.469C80.3929 38.3858 80.8162 37.9697 80.922 37.4703C81.0014 37.0819 80.922 36.6935 80.7104 36.4161L82.0066 36.4715C82.0066 36.4715 82.4564 38.1361 81.3717 39.2458C80.34 40.3278 78.594 40.2168 77.6681 39.0239C77.4036 38.691 77.2713 38.3858 77.2713 38.3858L78.3824 37.4148L78.4088 37.3871ZM49.2033 29.1474C49.2033 29.1474 48.3303 30.9785 45.8965 30.9785C43.4627 30.9785 43.1452 29.7023 43.1452 29.7023C43.2246 29.6746 49.2297 29.1752 49.2297 29.1752L49.2033 29.1474ZM47.1927 26.3732C47.1927 26.3732 45.6584 27.9268 43.2246 27.9268C40.7908 27.9268 38.7273 26.3732 38.7273 26.3732H47.1927ZM43.2246 23.6266C43.2246 23.6266 41.4521 24.3757 38.9125 24.3479C37.1665 24.3479 35.4735 23.6266 34.3359 22.2395C33.7539 21.5459 33.5158 20.9911 33.5158 20.9911C33.5158 20.9911 37.6692 23.3215 43.1981 23.6266H43.2246ZM39.521 20.0756C33.5423 19.9646 32.7487 17.2458 32.7487 17.2458C35.4735 16.4967 39.6268 20.0756 39.521 20.0756ZM27.2726 16.1361C27.2726 16.1361 18.4633 14.9986 16.0295 11.5863C16.0295 11.5863 23.3309 12.9179 27.2726 16.1361ZM11.2413 17.44C11.2413 17.44 22.0347 16.5522 30.2355 20.6304C30.2355 20.6304 25.2621 21.7124 11.2413 17.44ZM12.1672 24.8473C12.1672 24.8473 26.2144 23.6821 31.6376 24.8473C31.6376 24.8473 32.3254 26.1512 24.4685 26.1235C16.6115 26.0957 12.1672 24.8473 12.1672 24.8473ZM17.8284 32.3656C17.8284 32.3656 22.5637 32.1437 28.4366 30.6178C34.3095 29.092 36.0819 29.0642 36.0819 29.0642C36.0819 29.0642 33.7539 31.8108 29.0451 32.5876C24.3626 33.3643 19.4421 33.2256 17.8284 32.3656ZM28.516 36.2219C28.516 36.2219 30.9498 34.5573 35.1031 33.3366C39.2564 32.1159 39.6797 31.3114 39.6797 31.3114C39.6797 31.3114 37.8544 34.5573 33.992 35.4173C30.1297 36.2773 28.5424 36.2219 28.5424 36.2219H28.516ZM34.6005 40.3555C34.7327 37.8587 42.5103 35.2231 42.5103 35.2231C38.9125 40.8272 34.6005 40.3555 34.6005 40.3555ZM37.5104 45.7099C39.0183 42.7137 45.6584 38.4968 45.6584 38.4968C45.6584 38.4968 45.3674 40.1058 42.5103 42.8246C39.6532 45.5434 37.484 45.7099 37.484 45.7099H37.5104ZM42.8013 49.8436C42.8013 49.8436 43.0394 47.2912 45.0235 45.7099C47.0075 44.1285 48.3038 41.5762 48.3038 41.5762C47.5366 47.0415 42.8013 49.8436 42.8013 49.8436ZM47.8276 53.4224C47.8276 53.4224 47.5102 51.0365 48.9652 48.9558C50.4202 46.8473 51.2138 43.435 51.2138 43.435C51.5577 50.3707 47.8276 53.4224 47.8276 53.4224ZM47.4044 33.1424C47.4044 33.1424 49.653 30.8952 51.5577 32.8927C51.5577 32.8927 48.9652 34.2244 47.4044 33.1424ZM53.674 55.5031C52.5894 52.7566 54.8645 49.4274 54.8645 49.4274C56.2137 52.2294 53.674 55.5031 53.674 55.5031ZM56.2137 30.4236C53.8063 29.3971 51.9281 27.15 51.9281 27.15C51.9281 27.15 53.6211 26.7061 55.1026 27.7603C56.584 28.7868 56.1872 30.4514 56.1872 30.4514L56.2137 30.4236ZM62.4304 72.3985H61.1871C61.1871 72.3985 61.0019 70.0403 62.7743 69.4022C62.7743 69.4022 62.0072 71.261 62.4569 72.3985H62.4304ZM81.1865 53.894C81.1865 53.894 78.9115 55.9192 76.1073 53.783C76.1073 53.783 78.8057 52.2017 81.1865 53.894ZM80.2077 50.5094C80.2077 50.5094 78.4617 51.7023 77.2449 51.2862C76.0279 50.87 75.6311 50.2597 75.6311 50.2597C75.6311 50.2597 78.9908 48.6229 80.2077 50.5094ZM75.9221 52.0907C75.9221 52.0907 74.5201 54.3102 72.3508 52.8675C72.3508 52.8675 73.4354 50.87 75.9221 52.0907ZM75.8428 56.2522C75.4195 56.5573 74.6788 56.8902 73.8322 56.1967C73.6471 56.0302 73.6471 55.7528 73.8322 55.5863C74.229 55.2812 74.9433 54.9482 75.8428 55.5586C76.0544 55.725 76.0809 56.0579 75.8428 56.2244V56.2522ZM70.0228 34.1134C71.9011 35.4728 71.0281 37.1651 71.0281 37.1651C68.5678 34.0857 65.4462 34.1134 65.4462 34.1134C65.4991 33.1979 68.1446 32.754 70.0228 34.1134ZM71.1868 60.0807C70.5784 58.1941 68.9117 58.1941 68.0916 58.3329C67.6948 58.3883 67.4567 57.889 67.7477 57.6115C68.3826 57.0012 70.3667 57.1677 71.1868 58.1941C72.2714 59.5535 71.5572 60.691 71.1868 60.1084V60.0807ZM65.4462 36.4438L66.7425 36.3883C66.5573 36.6657 66.4515 37.0541 66.5308 37.4425C66.6367 37.9697 67.0599 38.3581 67.5626 38.4413C68.2768 38.5522 68.8853 38.0251 68.9911 37.3316L69.044 37.3593L70.1551 38.3303C70.1551 38.3303 70.0228 38.6355 69.7583 38.9684C68.8324 40.1613 67.0864 40.2723 66.0547 39.1903C64.9965 38.0806 65.4198 36.4161 65.4198 36.4161L65.4462 36.4438ZM62.3511 38.7465C62.3511 38.7465 63.3563 44.6002 69.7318 43.6014C69.7318 43.6014 70.5784 44.6834 67.2187 45.0995C63.8325 45.5157 60.7638 40.9659 62.3511 38.7465ZM58.9914 56.5851C57.1925 55.0592 58.5416 52.2294 58.5416 52.2294C60.2876 53.7553 58.9914 56.5851 58.9914 56.5851ZM59.1765 45.7099C57.8538 40.3278 59.4411 39.1071 59.4411 39.1071C59.494 41.9369 60.5257 47.0415 63.3034 50.7591C66.0811 54.4766 65.6843 56.2799 65.6843 56.2799C63.3034 50.981 60.2347 50.0378 59.1765 45.7099ZM66.2398 75.9218H64.5468C64.5468 75.9218 64.5468 75.7553 64.5468 74.4792C64.5468 73.203 66.2398 71.5107 66.2398 71.5107V75.9495V75.9218ZM65.7108 62.2723C65.7901 64.353 65.552 65.1576 65.552 65.1576C63.4092 62.7994 64.7055 60.2471 66.0018 60.2471C67.298 60.2471 67.2187 60.2194 68.2504 60.2471C69.2821 60.2749 70.8694 60.3303 70.8164 61.9672C70.7635 63.604 69.335 64.7137 69.335 64.7137C68.0387 63.4375 68.3562 61.7175 68.3562 61.7175C67.5097 62.2446 67.5097 64.7137 67.5097 64.7137C66.2398 64.1311 65.7108 62.2723 65.7108 62.2723ZM69.8112 67.0163C70.3403 68.2925 68.1446 68.7642 68.1446 68.7642C67.6948 66.517 69.8112 67.0163 69.8112 67.0163ZM68.6736 78.4464C68.6736 78.4464 68.6736 78.4464 68.3033 76.0328C67.9329 73.6191 69.9699 71.5107 69.9699 71.5107L69.8112 76.1437C70.0493 75.256 71.7423 74.6456 71.7423 74.6456C71.7688 78.5019 68.6736 78.4464 68.6736 78.4464ZM71.9011 70.0403C71.1604 67.1551 73.3561 67.2383 73.3561 67.2383C74.2555 69.1803 71.9011 70.0403 71.9011 70.0403ZM76.9538 75.2282C76.7422 77.5031 74.9962 78.7793 74.9962 78.7793C72.0069 76.227 74.0174 71.372 74.0174 71.372C74.1232 74.1462 75.2343 76.7263 75.2343 76.7263C76.2396 75.2837 75.9221 72.4539 75.9221 72.4539C75.9221 72.4539 77.1126 73.5359 76.9538 75.256V75.2282ZM76.6364 70.7894C74.3878 69.319 74.8904 67.1273 74.8904 67.1273C76.3454 68.9029 76.3983 68.6254 76.3983 68.6254C77.0332 67.9874 77.43 66.2118 77.43 66.2118C78.2237 68.3203 76.6364 70.7894 76.6364 70.7894ZM79.6786 67.4047C79.9432 67.6267 80.3135 67.5157 80.4458 67.2105C80.6575 66.7389 80.7897 66.2673 80.7897 66.2673C81.4511 67.0441 80.5781 69.2913 80.1548 69.2635C79.0173 69.2358 78.4617 66.9331 78.4617 66.9331C78.885 66.8222 79.3347 67.0996 79.6786 67.377V67.4047ZM81.3188 78.1412C77.2713 76.0605 78.0385 70.6784 78.0385 70.6784C80.0755 73.0088 80.8691 75.9218 80.8691 75.9218C81.2394 75.0063 80.7897 72.5094 80.7897 72.5094C83.6203 75.6444 81.3188 78.1412 81.3188 78.1412ZM81.0014 69.6797C83.1442 70.3455 85.5251 73.5082 85.5251 73.5082C84.8108 70.9558 82.4828 69.1803 82.4828 69.1803C87.3239 69.43 87.3239 76.1992 87.3239 76.1992C82.4563 74.6734 80.9749 69.6797 80.9749 69.6797H81.0014Z" fill="#656565"/>
<path d="M138.112 16.7582C140.599 16.9246 140.493 18.8944 144.117 18.8389C147.715 18.7557 147.847 14.2058 147.847 14.2058C147.847 14.2058 145.069 14.4 140.969 14.6775C136.869 14.9271 129.99 16.1201 129.99 16.1201C131.789 15.6485 135.916 13.6232 135.916 13.6232C135.916 13.6232 132.107 12.8742 132.265 11.598C132.424 10.3218 134.964 11.4038 136.207 11.9309C137.451 12.458 141.366 12.2916 142.979 9.46182C144.593 6.63205 143.456 5.1062 143.456 5.1062C143.456 5.1062 141.868 5.41137 137.768 7.27014C129.356 11.0709 126.578 11.3483 126.578 11.3483C127.662 10.4606 128.033 9.57279 128.033 9.57279C128.033 9.57279 124.276 10.9322 120.758 12.9852C117.213 15.0659 117.213 14.7329 117.345 14.4833C121.499 11.2096 123.271 9.1289 123.271 9.1289C116.472 13.651 112.398 15.6207 113.218 14.6775C114.012 13.7342 119.197 9.43408 121.657 8.26888C124.118 7.10368 125.625 8.71276 129.17 8.49082C132.715 8.29662 134.038 5.41137 134.038 5.41137C134.038 5.41137 130.837 7.21465 128.377 6.49334C125.916 5.74428 124.885 5.6888 123.615 6.2714C118.086 9.01793 109.303 15.593 108.245 16.6195C107.213 17.6459 106.208 18.0621 107.002 17.0633C107.769 16.0646 108.774 13.3458 108.774 13.3458C105.864 14.0949 101.287 19.1163 101.287 19.1163C102.981 19.1163 104.779 17.9234 104.779 17.9234C104.779 17.9234 103.959 20.337 100.864 20.9196C97.769 21.5022 97.769 22.057 97.769 22.057C99.3298 21.7796 101.764 21.7519 102.002 22.2512C100.811 23.6661 96.3934 24.4984 95.4675 24.4152C94.5416 24.332 96.2082 22.6674 96.2082 22.6674C94.1977 23.6106 89.5947 27.6333 89.674 29.825C89.7534 32.0167 88.219 32.5438 88.219 32.5438C88.219 32.5438 88.9333 33.3761 89.4888 38.0369C90.1767 46.5262 82.7959 55.5703 82.7959 55.5703C83.1134 56.4026 86.1291 59.4543 86.1291 59.4543L86.0762 56.2639H86.526C87.0286 57.9562 89.6476 59.6208 89.6476 59.6208C90.6264 59.1491 91.129 57.7343 91.129 57.7343C92.7692 58.6775 95.4146 58.4556 95.4146 58.4556C96.5521 57.5956 96.4199 54.5993 96.4199 54.5993C98.1659 55.709 99.6473 55.4316 99.6473 55.4316C99.6473 55.4316 96.2876 51.7418 94.7003 48.4404C93.1131 45.1113 93.5628 43.0028 93.5628 43.0028C97.2929 51.8805 99.1711 52.7406 99.1711 52.7406C96.4992 48.7179 95.3882 43.0306 96.2082 44.5842C97.0019 46.1378 100.388 51.5199 101.446 52.9625C102.504 54.4051 101.287 54.9045 101.287 54.9045C104.383 55.0987 102.557 51.9915 102.557 51.9915C104.621 52.7961 105.361 51.9915 105.361 51.9915C99.224 50.1605 97.6632 42.8919 97.6632 42.8919C99.515 45.4165 104.197 50.5211 103.986 49.7166C103.774 48.9121 99.7531 42.8641 100.758 43.6964C101.79 44.501 106.182 49.134 106.922 49.8831C107.663 50.6321 106.314 51.3812 106.314 51.3812C106.314 51.3812 106.102 51.6863 108.192 51.2147C110.282 50.7431 107.928 48.6346 107.928 48.6346C109.515 48.7456 109.832 48.2185 109.832 48.2185C101.922 45.6107 101.049 40.6447 101.049 40.6447C107.504 46.5817 108.801 45.6384 108.801 45.6384C103.615 42.0319 103.536 39.7015 103.536 39.7015C109.912 45.3332 112.557 45.3332 112.636 45.9991C112.742 46.6649 110.996 47.6082 110.996 47.6082C112.716 47.8578 113.933 46.8036 114.568 46.1378C115.202 45.472 114.541 45.2223 111.79 43.8906C106.631 41.5047 106.605 39.7015 106.605 39.7015C108.06 40.8112 111.975 41.6712 111.975 41.6712C107.002 38.7027 105.229 34.9297 105.229 34.9297C105.229 34.9297 106.261 36.2059 110.494 38.3143C114.726 40.4228 115.943 40.2563 116.181 40.9776C116.393 41.6989 113.827 42.7254 113.827 42.7254C113.827 42.7254 114.462 43.1138 117.239 42.7809C120.017 42.448 120.52 40.3673 120.52 40.3673C117.266 39.7015 111.34 36.6497 109.435 35.1516C107.531 33.6813 109.277 34.0142 111.314 35.1794C113.324 36.3168 117.107 37.0104 117.107 37.0104C117.107 37.0104 113.8 35.3181 110.494 33.5148C107.213 31.7115 108.853 31.656 110.494 32.5438C112.134 33.4316 119.038 35.8175 119.938 36.1226C120.837 36.4278 118.483 38.1479 118.483 38.1479C118.483 38.1479 118.721 38.2866 122.319 38.7859C125.89 39.2853 126.604 36.7885 126.604 36.7885C119.541 35.2904 117.187 33.4316 117.187 33.4316C120.414 34.3194 125.202 34.2361 125.202 34.2361C125.202 34.2361 119.409 32.4606 116.34 31.4896C113.271 30.5186 110.361 28.9927 113.113 29.7141C115.837 30.4354 122.663 31.3786 122.663 31.3786C122.663 31.3786 118.536 29.5476 116.843 28.9373C115.15 28.3269 115.361 27.3282 115.758 27.6611C116.181 27.994 118.324 28.4656 122.451 28.7985C126.604 29.1315 133.853 28.965 133.853 28.965C133.853 28.965 130.176 28.2714 127.371 28.0495C118.007 27.1617 119.356 26.2185 119.356 26.2185L129.541 26.3017C127.371 25.1642 126.789 25.2475 121.684 24.8868C116.578 24.5262 117.292 23.6106 117.292 23.6106L131.366 24.4152C133.377 28.5489 138.879 28.4656 138.879 28.4656C138.879 28.4656 137.107 27.5224 136.419 26.3572C135.731 25.2197 134.302 24.2487 134.302 24.2487C134.302 24.2487 135.308 24.0823 136.789 24.5816C139.276 25.6359 138.8 27.4669 141.207 27.5501C143.588 27.6333 144.831 25.8023 144.831 24.5816C144.831 23.361 144.831 22.9448 144.831 22.9448H128.615C132.715 22.3067 135.281 21.086 135.281 21.086C120.387 22.3067 122.874 21.3357 122.874 21.3357C125.414 21.3912 132.054 19.2273 132.054 19.2273C128.509 19.3937 117.213 20.0318 117.213 20.0318C121.631 18.4227 132.927 17.2021 132.927 17.2021C136.63 22.2235 141.392 20.5312 141.392 20.5312C141.392 20.5312 139.091 19.8376 137.239 18.3395C135.361 16.8414 135.731 16.7304 138.218 16.8969L138.112 16.7582ZM89.5682 57.8452C87.2931 56.8188 88.2984 49.7721 88.2984 49.7721C88.2719 52.2967 89.383 55.0987 89.9121 56.2916C90.4677 57.4846 89.5682 57.873 89.5682 57.873V57.8452ZM95.1765 25.4417C96.4992 25.3584 98.1394 25.4417 98.1394 25.4417C98.1394 25.4417 95.2559 27.6611 92.4517 27.9663C92.4517 27.9663 93.8538 25.5249 95.203 25.4417H95.1765ZM94.0919 50.7431C95.8114 54.5161 94.9913 57.8452 94.9913 57.8452C90.7587 55.4594 91.0496 50.4934 91.0496 50.4934C91.9755 53.2399 93.8009 55.0987 93.8009 55.0987C93.4834 52.9348 91.7639 46.3875 91.7639 46.3875C91.7639 46.3875 92.3724 46.9701 94.0919 50.7431ZM92.3195 31.5728C91.1026 31.7393 91.0232 31.5728 91.0232 31.5728C91.0496 31.5451 92.2401 29.7973 92.9279 29.7141C93.6157 29.6308 94.7533 29.5753 94.7533 29.5753C94.7533 29.5753 93.5364 31.4064 92.3195 31.5728ZM95.494 36.4833C94.3035 36.1226 93.7744 34.3194 93.7744 34.3194C93.7744 34.3194 95.5469 35.8729 97.822 35.6788C97.822 35.6788 96.658 36.8717 95.4675 36.511L95.494 36.4833ZM100.758 34.1806C97.6368 34.5413 95.9437 32.2386 95.9437 32.2386C97.769 33.2929 102.637 32.5993 102.637 32.5993C102.637 32.5993 101.711 33.9032 100.758 34.1806ZM104.859 30.8515C102.663 30.9347 101.129 30.907 98.6156 29.4089C98.6156 29.4089 102.769 30.1302 104.859 29.6031C106.949 29.076 107.16 28.8818 107.16 28.8818C107.16 28.8818 107.055 30.7683 104.859 30.8515ZM108.536 27.6611C104.779 28.3824 100.838 26.9675 100.838 26.9675C103.404 26.4681 104.303 26.8288 107.557 26.4681C110.837 26.1075 111.023 25.081 111.023 25.081C111.816 25.9133 110.705 27.2172 108.536 27.6611ZM110.044 24.221C107.716 24.221 104.436 24.221 104.436 24.221C104.436 24.221 104.912 23.8326 109.197 23.1668C113.483 22.5287 114.25 20.226 114.25 20.226C115.467 23.0835 112.372 24.221 110.044 24.221ZM113.139 19.1441C111.102 19.9763 108.377 20.0318 108.377 20.0318C108.377 20.0318 112.187 18.0066 113.933 16.8969C115.679 15.7872 115.202 18.284 113.139 19.1441ZM121.737 16.3143C119.144 17.2853 116.816 17.1466 116.816 17.1466C116.816 17.1466 121.71 14.7329 124.858 13.0129C128.932 10.7657 130.176 14.4555 132.768 14.1503C132.768 14.1503 127.901 17.2298 122.451 17.1743L128.006 14.3723C128.006 14.3723 124.329 15.371 121.737 16.342V16.3143Z" fill="#656565"/>
<path d="M128.226 30.4417H136.135C136.135 30.4417 135.739 33.9927 132.485 34.1592C129.231 34.3256 129.972 32.134 128.226 30.4417Z" fill="#656565"/>
<path d="M123.483 30.0497C123.483 30.0497 126.393 29.3284 127.531 32.4079C127.795 33.0737 128.166 33.7118 128.668 34.1834C128.801 34.3221 128.907 34.3776 128.907 34.3776C128.907 34.3776 127.319 34.6273 125.785 32.2969C124.542 30.4381 123.483 30.0497 123.483 30.0497Z" fill="#656565"/>
<path d="M127.132 4.52207C127.132 4.52207 133.084 2.52459 135.862 0C135.862 0 137.317 4.0227 133.296 4.52207C130.73 4.52207 127.132 4.52207 127.132 4.52207Z" fill="#656565"/>
</svg>
